<?xml version="1.0" encoding="iso-8859-1"?>
<!-- Uploaded to: SVG Repo, www.svgrepo.com, Generator: SVG Repo Mixer Tools -->
<svg fill="#FFFFFF" height="800px" width="800px" version="1.1" id="Capa_1" xmlns="http://www.w3.org/2000/svg" xmlns:xlink="http://www.w3.org/1999/xlink" 
	 viewBox="0 0 490 490" xml:space="preserve">
<path id="XMLID_925_" d="M428.775,158.467c-1.537-1.537-3.095-3.045-4.672-4.528c-0.552-0.52-1.119-1.019-1.676-1.532
	c-1.033-0.951-2.063-1.906-3.112-2.833c-0.671-0.593-1.356-1.165-2.033-1.748c-0.953-0.821-1.902-1.649-2.868-2.451
	c-0.733-0.609-1.479-1.197-2.218-1.794c-0.927-0.749-1.85-1.504-2.788-2.236c-0.777-0.607-1.566-1.193-2.351-1.788
	c-0.918-0.696-1.834-1.397-2.762-2.077c-0.81-0.593-1.63-1.167-2.447-1.748c-0.918-0.653-1.835-1.309-2.762-1.946
	c-0.839-0.576-1.688-1.135-2.534-1.698c-0.922-0.613-1.842-1.228-2.772-1.826c-0.864-0.555-1.737-1.094-2.608-1.636
	c-0.927-0.577-1.854-1.154-2.789-1.716c-0.886-0.532-1.779-1.049-2.672-1.567c-0.936-0.543-1.871-1.085-2.814-1.613
	c-0.905-0.507-1.816-1-2.728-1.493c-0.944-0.51-1.89-1.018-2.841-1.513c-0.924-0.481-1.853-0.95-2.783-1.416
	c-0.953-0.478-1.908-0.952-2.868-1.415c-0.939-0.453-1.883-0.896-2.828-1.335c-0.964-0.447-1.93-0.889-2.9-1.321
	c-0.953-0.425-1.909-0.841-2.868-1.251c-0.974-0.417-1.951-0.826-2.931-1.227c-0.966-0.396-1.935-0.785-2.907-1.166
	c-0.984-0.386-1.971-0.762-2.96-1.133c-0.979-0.367-1.96-0.729-2.944-1.081c-0.993-0.355-1.99-0.699-2.988-1.039
	c-0.99-0.337-1.98-0.671-2.975-0.993c-1.004-0.325-2.011-0.637-3.02-0.947c-0.998-0.307-1.997-0.612-3-0.903
	c-1.015-0.295-2.033-0.575-3.052-0.854c-1.005-0.276-2.011-0.552-3.02-0.812c-1.027-0.265-2.058-0.513-3.089-0.763
	c-1.01-0.244-2.018-0.49-3.032-0.719c-1.041-0.235-2.085-0.452-3.13-0.671c-1.012-0.212-2.022-0.429-3.037-0.626
	c-1.056-0.205-2.117-0.39-3.177-0.579c-1.01-0.18-2.019-0.366-3.032-0.532c-1.074-0.175-2.152-0.328-3.229-0.486
	c-1.006-0.148-2.009-0.304-3.018-0.437c-1.099-0.145-2.201-0.266-3.303-0.393c-0.992-0.115-1.982-0.24-2.976-0.341
	c-1.141-0.116-2.285-0.204-3.429-0.301c-0.96-0.081-1.917-0.175-2.879-0.243c-1.222-0.087-2.448-0.143-3.673-0.208
	c-0.888-0.047-1.774-0.11-2.663-0.145c-1.532-0.062-3.069-0.09-4.605-0.118c-0.584-0.011-1.165-0.038-1.75-0.043
	c-2.112-0.021-4.228-0.009-6.345,0.034c-0.733,0.015-1.467,0.054-2.201,0.077c-1.398,0.043-2.795,0.082-4.195,0.153
	c-0.867,0.044-1.735,0.114-2.602,0.169c-1.268,0.08-2.535,0.154-3.803,0.257c-0.917,0.075-1.835,0.175-2.753,0.262
	c-1.22,0.116-2.439,0.225-3.66,0.362c-0.941,0.106-1.883,0.235-2.824,0.354c-1.197,0.151-2.394,0.297-3.591,0.469
	c-0.956,0.137-1.911,0.297-2.866,0.447c-0.935,0.147-1.871,0.277-2.806,0.438c-23.451-21.265-53.786-32.303-85.278-31.152
	c-2.689-4.723-5.839-9.221-9.429-13.437c-0.46-0.543-0.926-1.082-1.401-1.615c-0.297-0.332-0.593-0.663-0.895-0.991
	c-0.834-0.908-1.681-1.806-2.558-2.682c-16.16-16.16-37.645-25.06-60.499-25.06s-44.339,8.899-60.498,25.06
	C8.899,66.528,0,88.013,0,110.866s8.899,44.339,25.059,60.498c5.62,5.62,11.891,10.368,18.729,14.188
	c-1.249,33.526,11.312,65.745,35.32,89.753c2.854,2.854,5.867,5.579,9.005,8.146c3.377,36.175,19.215,69.967,45.045,95.796
	c57.292,57.292,148.401,60.658,209.668,10.102l75.343,75.343l10.606-10.607C468.257,414.603,490,362.111,490,306.276
	S468.257,197.948,428.775,158.467z M460,306.276c0,1.421-0.019,2.839-0.052,4.255c-0.011,0.464-0.031,0.926-0.045,1.39
	c-0.029,0.952-0.06,1.904-0.104,2.853c-0.026,0.549-0.059,1.097-0.09,1.646c-0.048,0.862-0.098,1.724-0.158,2.584
	c-0.04,0.579-0.087,1.157-0.133,1.734c-0.066,0.829-0.136,1.658-0.213,2.485c-0.055,0.589-0.113,1.177-0.174,1.764
	c-0.085,0.819-0.175,1.636-0.271,2.453c-0.068,0.582-0.137,1.163-0.211,1.744c-0.105,0.829-0.219,1.656-0.336,2.483
	c-0.079,0.562-0.157,1.124-0.241,1.685c-0.131,0.871-0.274,1.739-0.418,2.606c-0.084,0.508-0.164,1.016-0.252,1.523
	c-0.179,1.025-0.372,2.047-0.569,3.068c-0.067,0.346-0.127,0.693-0.195,1.038c-0.271,1.36-0.557,2.715-0.858,4.066
	c-0.078,0.349-0.165,0.696-0.245,1.044c-0.23,1.003-0.464,2.006-0.712,3.004c-0.124,0.501-0.257,0.999-0.386,1.498
	c-0.217,0.844-0.435,1.687-0.665,2.526c-0.148,0.544-0.304,1.085-0.457,1.627c-0.224,0.792-0.452,1.584-0.687,2.372
	c-0.167,0.559-0.338,1.117-0.511,1.674c-0.238,0.77-0.481,1.539-0.729,2.305c-0.181,0.558-0.364,1.115-0.55,1.671
	c-0.258,0.769-0.522,1.535-0.791,2.3c-0.19,0.543-0.38,1.086-0.576,1.627c-0.284,0.786-0.578,1.568-0.873,2.35
	c-0.193,0.512-0.384,1.026-0.582,1.536c-0.331,0.852-0.673,1.698-1.017,2.544c-0.176,0.432-0.346,0.867-0.525,1.298
	c-0.519,1.248-1.05,2.491-1.598,3.726c-0.025,0.057-0.051,0.115-0.077,0.172c-0.544,1.225-1.103,2.443-1.675,3.655
	c-0.2,0.423-0.408,0.842-0.611,1.263c-0.396,0.822-0.793,1.644-1.201,2.46c-0.247,0.494-0.502,0.984-0.754,1.475
	c-0.379,0.739-0.759,1.478-1.149,2.212c-0.273,0.514-0.551,1.025-0.829,1.537c-0.385,0.709-0.773,1.416-1.168,2.12
	c-0.289,0.515-0.581,1.028-0.875,1.541c-0.4,0.696-0.805,1.39-1.214,2.081c-0.301,0.508-0.603,1.016-0.909,1.521
	c-0.423,0.698-0.853,1.391-1.285,2.084c-0.304,0.486-0.606,0.974-0.915,1.457c-0.464,0.726-0.937,1.447-1.412,2.167
	c-0.291,0.441-0.578,0.885-0.873,1.324c-0.565,0.841-1.142,1.675-1.722,2.507c-0.216,0.309-0.425,0.622-0.643,0.931
	c-0.798,1.13-1.611,2.253-2.437,3.367c-0.231,0.311-0.47,0.618-0.703,0.927c-0.606,0.806-1.213,1.61-1.833,2.407
	c-0.33,0.424-0.668,0.842-1.002,1.264c-0.537,0.678-1.075,1.355-1.623,2.026c-0.368,0.451-0.743,0.898-1.116,1.346
	c-0.34,0.409-0.685,0.815-1.029,1.221l-21.294-21.294C418.175,373.988,430,341.041,430,306.276
	c0-39.808-15.502-77.233-43.651-105.382c-28.157-28.158-65.539-43.665-105.258-43.665c-0.046,0-0.092,0.002-0.138,0.002
	c-2.89-10.371-7.16-20.288-12.721-29.526c0.74-0.053,1.48-0.106,2.219-0.15c0.637-0.038,1.274-0.081,1.91-0.112
	c1.292-0.063,2.582-0.106,3.872-0.141c0.455-0.013,0.91-0.034,1.365-0.043c1.751-0.035,3.5-0.045,5.247-0.029
	c0.314,0.003,0.626,0.016,0.94,0.021c1.428,0.021,2.856,0.054,4.281,0.109c0.58,0.022,1.158,0.057,1.736,0.085
	c1.165,0.056,2.329,0.119,3.491,0.198c0.638,0.043,1.275,0.094,1.912,0.144c1.112,0.088,2.223,0.184,3.333,0.292
	c0.641,0.063,1.281,0.127,1.921,0.197c1.131,0.123,2.259,0.259,3.386,0.403c0.598,0.076,1.196,0.15,1.792,0.232
	c1.249,0.173,2.494,0.364,3.738,0.563c0.464,0.074,0.929,0.141,1.392,0.218c3.435,0.577,6.849,1.254,10.239,2.03
	c0.452,0.104,0.902,0.218,1.354,0.325c1.232,0.292,2.461,0.592,3.686,0.91c0.564,0.146,1.125,0.301,1.687,0.453
	c1.117,0.302,2.231,0.612,3.342,0.935c0.589,0.172,1.177,0.347,1.764,0.524c1.097,0.332,2.19,0.675,3.28,1.028
	c0.568,0.184,1.137,0.366,1.703,0.556c1.157,0.387,2.308,0.791,3.457,1.202c0.48,0.172,0.963,0.338,1.442,0.514
	c1.474,0.542,2.941,1.103,4.401,1.684c0.143,0.057,0.289,0.11,0.432,0.167c1.632,0.654,3.254,1.335,4.868,2.038
	c0.338,0.147,0.671,0.304,1.008,0.453c1.242,0.55,2.48,1.111,3.71,1.69c0.514,0.242,1.024,0.493,1.535,0.74
	c1.053,0.508,2.103,1.023,3.147,1.553c0.557,0.282,1.112,0.57,1.666,0.859c1,0.521,1.996,1.051,2.988,1.591
	c0.555,0.302,1.11,0.605,1.662,0.914c1.011,0.565,2.014,1.143,3.015,1.728c0.508,0.297,1.017,0.589,1.522,0.891
	c1.141,0.682,2.273,1.383,3.4,2.091c0.348,0.219,0.7,0.43,1.047,0.651c1.48,0.945,2.949,1.911,4.404,2.901
	c0.226,0.154,0.448,0.315,0.673,0.47c1.21,0.832,2.413,1.676,3.605,2.539c0.475,0.344,0.943,0.698,1.415,1.047
	c0.938,0.693,1.872,1.392,2.798,2.104c0.528,0.406,1.051,0.819,1.574,1.232c0.866,0.682,1.728,1.372,2.583,2.071
	c0.532,0.435,1.062,0.872,1.589,1.314c0.85,0.711,1.692,1.434,2.531,2.163c0.504,0.438,1.01,0.874,1.509,1.318
	c0.898,0.798,1.786,1.612,2.67,2.431c0.42,0.388,0.844,0.77,1.261,1.162c1.291,1.217,2.569,2.451,3.829,3.711
	C441.377,213.495,460,258.454,460,306.276z M154.371,358.034c-22.216-22.217-35.282-51.72-36.791-83.075l-0.347-7.203l-5.842-4.228
	c-3.926-2.842-7.651-6.016-11.07-9.437c-20.009-20.009-29.439-47.613-25.873-75.735l1.465-11.552l-10.829-4.284
	c-7.075-2.799-13.404-6.96-18.813-12.37C35.779,139.658,30,125.706,30,110.866s5.779-28.792,16.273-39.285
	c10.493-10.494,24.445-16.272,39.285-16.272s28.792,5.779,39.285,16.273c5.409,5.409,9.571,11.738,12.37,18.813l1.956,4.944
	c1.49,4.926,2.303,10.058,2.364,15.287c0.169,14.557-5.462,28.299-15.858,38.695l-13.304,13.305l21.214,21.213l13.304-13.304
	c16.156-16.155,24.907-37.555,24.643-60.257c-0.043-3.727-0.351-7.416-0.87-11.059c21.789,1.416,42.324,10.614,58.124,26.414
	c0.205,0.205,0.401,0.415,0.599,0.624l1.976,2.057c8.655,9.375,15.121,20.275,19.156,32.071c-0.158,0.033-0.317,0.06-0.475,0.094
	l5.232,24.813c0.075,1.518,0.118,3.042,0.118,4.573c0,24.263-9.449,47.074-26.605,64.23l-10.607,10.607l103.314,103.314
	C272.039,406.941,199.955,403.616,154.371,358.034z M259.956,264.052c16.492-21.12,25.434-46.968,25.434-74.19
	c0-0.852-0.025-1.7-0.043-2.549c30.114,1.057,58.308,13.313,79.79,34.794C387.619,244.589,400,274.481,400,306.276
	c0,26.74-8.759,52.131-24.917,72.903L259.956,264.052z"/>
</svg>