<svg id="svg" version="1.1" xmlns="http://www.w3.org/2000/svg" xmlns:xlink="http://www.w3.org/1999/xlink" width="400" height="400" viewBox="0, 0, 400,400"><g id="svgg"><path id="path0" d="M188.800 209.852 C 183.190 212.378,174.730 216.164,170.000 218.267 C 165.270 220.370,157.396 223.872,152.502 226.049 C 147.608 228.226,139.553 231.807,134.603 234.007 C 129.653 236.207,121.553 239.807,116.603 242.007 C 95.093 251.567,75.867 260.121,61.300 266.611 C 57.945 268.106,55.200 269.464,55.200 269.628 C 55.200 269.793,56.481 272.869,58.046 276.464 C 59.611 280.059,61.388 284.170,61.994 285.600 C 62.601 287.030,64.130 290.540,65.393 293.400 C 70.197 304.282,71.984 308.349,74.000 313.000 C 75.145 315.640,77.395 320.770,79.000 324.400 C 80.605 328.030,82.856 333.160,84.003 335.800 C 86.906 342.484,92.062 354.186,92.142 354.270 C 92.371 354.516,103.474 351.572,104.341 351.036 C 106.706 349.575,126.418 346.555,137.215 345.999 C 153.465 345.163,175.450 347.565,181.701 350.860 C 182.946 351.516,191.673 353.527,196.127 354.184 C 209.384 356.140,218.974 355.661,229.767 352.504 C 257.416 344.415,280.866 343.511,305.989 349.566 C 309.926 350.515,309.450 350.823,311.510 346.000 C 312.402 343.910,315.777 336.080,319.009 328.600 C 322.242 321.120,325.385 313.830,325.996 312.400 C 326.606 310.970,329.754 303.680,332.991 296.200 C 342.022 275.333,344.468 269.534,344.306 269.373 C 344.224 269.291,342.277 268.393,339.979 267.377 C 337.680 266.362,335.260 265.287,334.600 264.990 C 333.940 264.692,329.890 262.891,325.600 260.987 C 321.310 259.083,317.260 257.284,316.600 256.989 C 314.567 256.081,297.089 248.307,287.600 244.090 C 265.498 234.267,259.653 231.668,251.302 227.952 C 246.408 225.774,238.398 222.212,233.502 220.036 C 228.606 217.860,220.370 214.194,215.200 211.889 C 201.570 205.812,200.123 205.197,199.533 205.231 C 199.240 205.247,194.410 207.327,188.800 209.852 " stroke="none" fill="#54ace3" fill-rule="evenodd"></path><path id="path1" d="M129.800 22.960 C 127.181 23.788,125.763 24.682,124.231 26.472 C 121.496 29.667,121.600 27.918,121.600 70.873 L 121.600 109.600 199.808 109.600 L 278.015 109.600 277.908 70.100 L 277.800 30.600 276.559 28.400 C 275.070 25.760,272.700 23.839,269.910 23.010 C 267.100 22.176,132.432 22.127,129.800 22.960 M156.452 39.531 C 158.775 40.534,161.049 42.781,162.151 45.164 C 163.472 48.021,163.475 83.589,162.154 86.400 C 157.905 95.443,144.239 94.636,141.430 85.177 C 140.539 82.175,140.490 49.558,141.373 46.625 C 143.353 40.045,150.191 36.828,156.452 39.531 M204.589 39.743 C 210.514 42.456,210.891 44.130,210.728 67.000 L 210.600 85.000 209.420 87.129 C 204.966 95.171,193.406 94.631,189.521 86.200 C 188.206 83.346,188.067 49.182,189.357 45.839 C 191.754 39.622,198.461 36.938,204.589 39.743 M252.362 39.781 C 254.561 40.895,256.581 43.035,257.644 45.374 C 258.771 47.855,258.779 83.730,257.653 86.200 C 253.720 94.829,241.830 95.138,237.624 86.721 L 236.400 84.272 236.400 66.007 C 236.400 45.679,236.417 45.526,239.062 42.436 C 242.374 38.567,247.820 37.479,252.362 39.781 " stroke="none" fill="#fbc30c" fill-rule="evenodd"></path><path id="path2" d="M70.200 133.062 C 67.424 134.485,66.241 135.706,65.035 138.394 L 63.996 140.709 64.098 178.536 L 64.200 216.363 71.400 213.162 C 79.726 209.460,87.940 205.829,98.400 201.224 C 102.470 199.433,106.340 197.714,107.000 197.404 C 108.180 196.850,115.999 193.390,130.200 187.137 C 134.160 185.394,137.940 183.714,138.600 183.404 C 139.260 183.094,142.500 181.655,145.800 180.206 C 149.100 178.757,152.160 177.406,152.600 177.203 C 153.040 177.000,156.910 175.294,161.200 173.411 C 165.490 171.528,169.540 169.730,170.200 169.414 C 171.206 168.933,177.643 166.076,184.200 163.201 C 185.080 162.815,188.140 161.442,191.000 160.150 C 198.513 156.755,201.087 156.755,208.600 160.150 C 211.460 161.442,214.520 162.815,215.400 163.201 C 221.317 165.796,228.387 168.928,229.400 169.404 C 230.060 169.714,233.840 171.393,237.800 173.136 C 249.063 178.093,258.405 182.216,265.800 185.493 C 269.540 187.150,273.320 188.823,274.200 189.211 C 277.792 190.795,291.147 196.718,299.400 200.389 C 304.240 202.542,311.350 205.695,315.200 207.396 C 323.457 211.044,323.108 210.890,330.000 213.961 L 335.400 216.368 335.502 178.804 C 335.602 142.104,335.586 141.192,334.805 139.120 C 333.779 136.396,331.760 134.224,329.106 132.988 L 327.000 132.008 199.600 132.023 L 72.200 132.037 70.200 133.062 M193.600 184.023 C 190.630 185.347,187.840 186.596,187.400 186.798 C 186.960 186.999,184.080 188.262,181.000 189.604 C 177.920 190.945,174.680 192.374,173.800 192.779 C 172.920 193.184,170.040 194.454,167.400 195.602 C 162.088 197.913,152.248 202.231,151.000 202.800 C 150.560 203.000,147.680 204.267,144.600 205.615 C 137.502 208.720,128.545 212.657,119.600 216.602 C 115.750 218.300,110.350 220.669,107.600 221.866 C 104.850 223.064,101.880 224.375,101.000 224.779 C 100.120 225.184,97.240 226.452,94.600 227.598 C 91.960 228.744,86.740 231.034,83.000 232.685 C 79.260 234.337,73.950 236.669,71.200 237.866 C 68.450 239.064,65.480 240.376,64.600 240.782 C 63.720 241.187,61.650 242.097,60.000 242.803 C 58.350 243.510,56.460 244.327,55.800 244.619 C 55.140 244.911,51.900 246.338,48.600 247.789 C 45.300 249.241,42.240 250.594,41.800 250.796 C 41.360 250.999,38.480 252.265,35.400 253.610 C 26.756 257.384,26.000 257.757,26.000 258.241 C 26.000 258.489,26.912 260.742,28.027 263.246 C 29.142 265.751,30.837 269.600,31.794 271.800 C 33.570 275.884,35.777 280.954,39.804 290.200 C 41.049 293.060,42.978 297.470,44.090 300.000 C 45.202 302.530,46.425 305.320,46.808 306.200 C 47.191 307.080,48.176 309.330,48.995 311.200 C 49.815 313.070,51.295 316.490,52.283 318.800 C 53.271 321.110,54.400 323.720,54.791 324.600 C 55.536 326.276,58.218 332.422,61.600 340.200 C 62.700 342.730,64.500 346.870,65.600 349.400 C 66.700 351.930,68.500 356.070,69.600 358.600 C 70.700 361.130,72.516 365.315,73.636 367.900 C 78.029 378.040,77.764 377.600,79.479 377.600 C 86.324 377.599,98.911 375.351,111.000 371.971 C 131.616 366.207,154.615 366.286,175.800 372.195 C 201.052 379.239,218.274 379.348,238.800 372.594 C 260.239 365.540,281.305 365.482,307.200 372.408 C 310.610 373.320,315.379 374.473,317.798 374.971 L 322.197 375.877 324.430 370.838 C 325.658 368.067,327.485 363.910,328.489 361.600 C 331.645 354.345,334.471 347.861,335.202 346.200 C 335.589 345.320,336.488 343.250,337.200 341.600 C 337.912 339.950,338.812 337.880,339.200 337.000 C 339.588 336.120,340.488 334.050,341.200 332.400 C 342.708 328.903,343.122 327.957,346.177 321.000 C 347.433 318.140,349.323 313.820,350.377 311.400 C 351.430 308.980,353.199 304.930,354.308 302.400 C 355.416 299.870,357.263 295.640,358.411 293.000 C 359.559 290.360,360.818 287.480,361.209 286.600 C 361.600 285.720,362.729 283.110,363.717 280.800 C 365.295 277.111,366.396 274.580,369.198 268.200 C 369.584 267.320,370.762 264.665,371.816 262.300 C 372.870 259.934,373.658 257.933,373.566 257.851 C 373.475 257.770,371.240 256.758,368.600 255.602 C 361.212 252.369,360.941 252.250,355.400 249.796 C 352.540 248.529,349.480 247.179,348.600 246.796 C 347.043 246.118,344.308 244.913,330.200 238.691 C 326.460 237.042,321.240 234.749,318.600 233.597 C 312.359 230.873,311.535 230.511,305.600 227.894 C 301.047 225.886,294.644 223.069,282.000 217.510 C 279.470 216.398,276.680 215.175,275.800 214.793 C 273.484 213.786,263.142 209.229,262.200 208.800 C 261.760 208.600,258.880 207.334,255.800 205.988 C 244.381 200.998,239.887 199.023,221.000 190.692 C 217.260 189.042,212.040 186.749,209.400 185.597 C 206.760 184.445,203.683 183.074,202.561 182.551 C 199.811 181.268,199.758 181.277,193.600 184.023 M202.933 206.449 C 204.510 207.136,210.030 209.584,215.200 211.889 C 220.370 214.194,228.606 217.860,233.502 220.036 C 238.398 222.212,246.408 225.774,251.302 227.952 C 259.653 231.668,265.498 234.267,287.600 244.090 C 297.089 248.307,314.567 256.081,316.600 256.989 C 317.260 257.284,321.310 259.083,325.600 260.987 C 329.890 262.891,333.940 264.692,334.600 264.990 C 335.260 265.287,337.680 266.362,339.979 267.377 C 342.277 268.393,344.224 269.291,344.306 269.373 C 344.468 269.534,342.022 275.333,332.991 296.200 C 329.754 303.680,326.606 310.970,325.996 312.400 C 325.385 313.830,322.242 321.120,319.009 328.600 C 315.777 336.080,312.402 343.910,311.510 346.000 C 309.450 350.823,309.926 350.515,305.989 349.566 C 280.866 343.511,257.416 344.415,229.767 352.504 C 218.974 355.661,209.384 356.140,196.127 354.184 C 191.673 353.527,182.946 351.516,181.701 350.860 C 175.450 347.565,153.465 345.163,137.215 345.999 C 126.418 346.555,106.706 349.575,104.341 351.036 C 103.474 351.572,92.371 354.516,92.142 354.270 C 92.062 354.186,86.906 342.484,84.003 335.800 C 82.856 333.160,80.605 328.030,79.000 324.400 C 77.395 320.770,75.145 315.640,74.000 313.000 C 71.984 308.349,70.197 304.282,65.393 293.400 C 64.130 290.540,62.601 287.030,61.994 285.600 C 61.388 284.170,59.611 280.059,58.046 276.464 C 56.481 272.869,55.200 269.793,55.200 269.628 C 55.200 269.464,57.945 268.106,61.300 266.611 C 75.867 260.121,95.093 251.567,116.603 242.007 C 121.553 239.807,129.653 236.207,134.603 234.007 C 139.553 231.807,147.608 228.226,152.502 226.049 C 157.396 223.872,165.270 220.370,170.000 218.267 C 174.730 216.164,183.190 212.378,188.800 209.852 C 200.598 204.542,199.282 204.859,202.933 206.449 " stroke="none" fill="#fbfbfb" fill-rule="evenodd"></path><path id="path3" d="M127.600 0.268 C 125.095 0.533,120.400 1.646,120.400 1.975 C 120.400 2.152,119.585 2.524,118.590 2.803 C 117.594 3.082,116.682 3.468,116.563 3.661 C 116.443 3.854,115.630 4.376,114.756 4.822 C 112.976 5.730,112.866 5.818,109.100 9.290 C 107.615 10.660,106.400 11.990,106.400 12.247 C 106.400 12.504,106.145 12.812,105.834 12.932 C 105.259 13.152,104.677 14.070,103.201 17.083 C 102.748 18.009,102.229 18.859,102.047 18.971 C 101.866 19.083,101.407 20.215,101.028 21.487 C 100.649 22.759,100.173 24.160,99.970 24.600 C 98.976 26.758,98.815 33.034,98.808 70.071 L 98.800 109.142 83.185 109.271 C 73.383 109.352,67.464 109.549,67.285 109.800 C 67.128 110.020,65.740 110.521,64.200 110.914 C 62.660 111.306,61.340 111.801,61.267 112.014 C 61.193 112.226,60.951 112.400,60.727 112.400 C 60.224 112.400,57.473 113.663,57.200 114.019 C 57.090 114.163,56.550 114.515,56.000 114.802 C 53.768 115.968,47.968 121.768,46.802 124.000 C 46.515 124.550,46.159 125.090,46.011 125.200 C 45.507 125.574,43.265 130.593,42.794 132.400 C 42.536 133.390,42.117 134.560,41.863 135.000 C 41.523 135.587,41.347 147.876,41.200 181.140 L 41.000 226.481 39.200 227.087 C 38.210 227.420,37.310 227.826,37.200 227.988 C 37.090 228.151,36.287 228.517,35.416 228.801 C 34.544 229.085,32.988 229.741,31.958 230.259 C 30.927 230.776,29.835 231.200,29.531 231.200 C 29.227 231.200,28.600 231.465,28.139 231.788 C 27.677 232.111,26.422 232.672,25.350 233.035 C 24.277 233.398,23.310 233.815,23.200 233.962 C 23.090 234.110,21.965 234.576,20.700 234.998 C 19.435 235.420,18.400 235.884,18.400 236.028 C 18.400 236.172,17.410 236.602,16.201 236.982 C 14.991 237.363,13.911 237.821,13.800 238.000 C 13.689 238.179,12.609 238.637,11.399 239.018 C 10.190 239.398,9.200 239.826,9.200 239.967 C 9.200 240.109,8.380 240.467,7.378 240.763 C 6.376 241.059,5.309 241.549,5.006 241.851 C 4.704 242.153,4.304 242.400,4.117 242.400 C 3.404 242.400,1.157 245.221,0.591 246.825 C -0.547 250.052,0.499 259.600,1.991 259.600 C 2.146 259.600,2.600 260.680,3.000 262.000 C 3.400 263.320,3.841 264.400,3.980 264.400 C 4.120 264.400,4.571 265.390,4.982 266.600 C 5.393 267.810,5.881 268.800,6.065 268.800 C 6.249 268.800,6.400 269.078,6.400 269.418 C 6.400 269.759,7.030 271.383,7.800 273.027 C 8.570 274.672,9.200 276.217,9.200 276.462 C 9.200 276.706,9.543 277.467,9.961 278.153 C 10.380 278.839,10.949 280.165,11.225 281.100 C 11.501 282.035,11.865 282.800,12.035 282.800 C 12.204 282.800,12.631 283.790,12.983 285.000 C 13.335 286.210,13.758 287.200,13.924 287.200 C 14.090 287.200,14.467 288.020,14.763 289.022 C 15.059 290.024,15.518 291.061,15.783 291.326 C 16.048 291.591,16.392 292.316,16.548 292.936 C 16.704 293.557,17.353 295.175,17.990 296.532 C 18.627 297.889,19.269 299.495,19.417 300.100 C 19.566 300.705,19.824 301.200,19.991 301.200 C 20.159 301.200,20.527 302.025,20.809 303.033 C 21.091 304.040,21.520 305.075,21.761 305.333 C 22.002 305.590,22.544 306.835,22.965 308.100 C 23.386 309.365,23.861 310.400,24.022 310.400 C 24.182 310.400,24.428 310.857,24.568 311.415 C 24.708 311.973,25.352 313.586,26.000 315.000 C 26.648 316.414,27.292 318.027,27.432 318.585 C 27.572 319.143,27.823 319.600,27.989 319.600 C 28.155 319.600,28.602 320.590,28.982 321.799 C 29.363 323.009,29.821 324.089,30.000 324.200 C 30.179 324.311,30.637 325.391,31.018 326.601 C 31.398 327.810,31.845 328.800,32.011 328.800 C 32.177 328.800,32.434 329.295,32.583 329.900 C 32.731 330.505,33.380 332.125,34.026 333.501 C 34.672 334.877,35.200 336.139,35.200 336.307 C 35.200 336.475,35.543 337.252,35.963 338.035 C 36.382 338.817,36.951 340.210,37.226 341.129 C 37.501 342.048,37.865 342.800,38.035 342.800 C 38.204 342.800,38.631 343.790,38.983 345.000 C 39.335 346.210,39.764 347.200,39.938 347.200 C 40.112 347.200,40.566 348.190,40.947 349.400 C 41.329 350.610,41.789 351.600,41.970 351.600 C 42.152 351.600,42.405 352.123,42.532 352.761 C 42.660 353.400,43.301 355.065,43.956 356.461 C 44.612 357.858,45.269 359.495,45.417 360.100 C 45.566 360.705,45.823 361.200,45.989 361.200 C 46.155 361.200,46.602 362.190,46.982 363.400 C 47.363 364.610,47.805 365.600,47.964 365.600 C 48.124 365.600,48.579 366.635,48.976 367.900 C 49.373 369.165,49.841 370.292,50.017 370.404 C 52.067 371.713,50.489 373.176,48.296 372.000 C 44.277 369.846,34.400 372.870,34.400 376.255 C 34.400 376.518,34.204 376.799,33.964 376.879 C 32.778 377.274,32.093 382.927,32.819 386.316 C 33.425 389.139,37.728 393.600,39.846 393.600 C 40.151 393.600,40.400 393.761,40.400 393.957 C 40.400 394.153,41.705 394.617,43.300 394.988 C 44.895 395.358,46.560 395.827,47.000 396.030 C 48.014 396.497,53.843 397.600,55.300 397.600 C 55.905 397.600,56.400 397.759,56.400 397.952 C 56.400 399.790,98.965 399.872,100.400 398.036 C 100.510 397.895,102.580 397.453,105.000 397.053 C 107.420 396.653,109.580 396.179,109.800 396.001 C 110.020 395.822,111.775 395.364,113.700 394.983 C 115.625 394.602,117.200 394.160,117.200 394.001 C 117.200 393.841,119.135 393.387,121.500 392.992 C 123.865 392.596,125.980 392.141,126.200 391.980 C 128.556 390.259,159.427 390.257,161.800 391.978 C 162.020 392.138,164.045 392.598,166.300 393.001 C 168.555 393.404,170.400 393.854,170.400 394.002 C 170.400 394.149,171.885 394.599,173.700 395.002 C 175.515 395.405,177.191 395.878,177.424 396.053 C 177.657 396.228,179.637 396.665,181.824 397.023 C 184.011 397.382,186.105 397.833,186.478 398.027 C 190.759 400.251,226.974 400.241,232.200 398.015 C 232.640 397.827,234.710 397.366,236.800 396.989 C 238.890 396.612,240.780 396.176,241.000 396.018 C 241.220 395.861,242.660 395.407,244.200 395.009 C 245.740 394.611,247.180 394.149,247.400 393.981 C 247.620 393.813,249.420 393.359,251.400 392.971 C 253.380 392.584,255.090 392.141,255.200 391.987 C 256.489 390.179,290.194 390.189,292.600 391.998 C 292.820 392.163,294.755 392.624,296.900 393.022 C 299.045 393.421,300.800 393.863,300.800 394.005 C 300.800 394.147,302.510 394.599,304.600 395.010 C 306.690 395.421,308.400 395.877,308.400 396.024 C 308.400 396.170,310.335 396.617,312.700 397.017 C 315.065 397.417,317.090 397.859,317.200 398.000 C 317.310 398.140,319.110 398.469,321.200 398.730 C 336.830 400.685,356.670 400.086,361.048 397.527 C 362.652 396.590,365.200 394.329,365.200 393.843 C 365.200 393.692,365.592 393.037,366.071 392.389 C 367.670 390.227,367.527 383.006,365.843 380.887 C 363.789 378.301,361.251 376.400,359.853 376.400 C 359.531 376.400,359.191 376.175,359.099 375.900 C 358.974 375.527,357.472 375.417,353.166 375.469 C 349.995 375.507,347.624 375.447,347.898 375.336 C 348.172 375.225,348.680 374.159,349.027 372.967 C 349.373 371.775,349.795 370.800,349.964 370.800 C 350.134 370.800,350.511 370.035,350.803 369.100 C 351.095 368.165,351.646 366.860,352.028 366.200 C 352.410 365.540,352.949 364.235,353.225 363.300 C 353.501 362.365,353.861 361.600,354.026 361.600 C 354.191 361.600,354.637 360.610,355.018 359.400 C 355.398 358.190,355.845 357.200,356.011 357.200 C 356.177 357.200,356.434 356.705,356.583 356.100 C 356.731 355.495,357.380 353.875,358.026 352.499 C 358.672 351.123,359.200 349.901,359.200 349.782 C 359.200 349.664,359.740 348.412,360.400 347.000 C 361.060 345.588,361.600 344.156,361.600 343.817 C 361.600 343.478,361.775 343.200,361.989 343.200 C 362.203 343.200,362.665 342.210,363.017 341.000 C 363.369 339.790,363.795 338.800,363.964 338.800 C 364.134 338.800,364.511 338.035,364.803 337.100 C 365.095 336.165,365.646 334.860,366.028 334.200 C 366.410 333.540,366.949 332.235,367.225 331.300 C 367.501 330.365,367.861 329.600,368.026 329.600 C 368.191 329.600,368.637 328.610,369.018 327.400 C 369.398 326.190,369.845 325.200,370.011 325.200 C 370.177 325.200,370.434 324.705,370.583 324.100 C 370.731 323.495,371.373 321.889,372.010 320.532 C 372.647 319.175,373.296 317.557,373.452 316.936 C 373.608 316.316,373.952 315.591,374.217 315.326 C 374.482 315.061,374.941 314.024,375.237 313.022 C 375.533 312.020,375.901 311.200,376.055 311.200 C 376.209 311.200,376.647 310.255,377.027 309.100 C 377.407 307.945,377.850 306.910,378.012 306.800 C 378.174 306.690,378.597 305.739,378.953 304.686 C 379.309 303.633,379.855 302.373,380.166 301.886 C 380.476 301.399,380.955 300.235,381.229 299.300 C 381.503 298.365,381.861 297.600,382.026 297.600 C 382.191 297.600,382.637 296.610,383.018 295.400 C 383.398 294.190,383.845 293.200,384.011 293.200 C 384.177 293.200,384.434 292.705,384.583 292.100 C 384.731 291.495,385.388 289.858,386.044 288.461 C 386.699 287.065,387.340 285.400,387.468 284.761 C 387.595 284.123,387.845 283.600,388.023 283.600 C 388.201 283.600,388.472 283.195,388.627 282.700 C 388.781 282.205,389.411 280.720,390.027 279.400 C 390.644 278.080,391.269 276.505,391.417 275.900 C 391.566 275.295,391.818 274.800,391.979 274.800 C 392.140 274.800,392.511 274.035,392.803 273.100 C 393.095 272.165,393.646 270.860,394.028 270.200 C 394.410 269.540,394.949 268.235,395.225 267.300 C 395.501 266.365,395.857 265.600,396.017 265.600 C 396.177 265.600,396.617 264.655,396.994 263.500 C 397.372 262.345,397.807 261.310,397.963 261.200 C 398.857 260.566,400.000 255.898,400.000 252.878 C 400.000 249.857,399.816 248.976,398.650 246.409 C 397.909 244.777,394.351 241.647,392.412 240.920 C 391.415 240.547,390.510 240.115,390.400 239.961 C 390.290 239.807,389.210 239.358,388.000 238.964 C 386.790 238.570,385.562 238.012,385.271 237.724 C 384.981 237.436,384.490 237.200,384.181 237.200 C 383.873 237.200,382.452 236.665,381.025 236.011 C 379.597 235.358,377.973 234.708,377.415 234.568 C 376.857 234.428,376.400 234.186,376.400 234.030 C 376.400 233.874,375.378 233.424,374.128 233.030 C 372.879 232.636,371.606 232.063,371.300 231.757 C 370.994 231.451,370.490 231.200,370.181 231.200 C 369.873 231.200,368.491 230.685,367.110 230.055 C 365.730 229.425,364.150 228.771,363.600 228.601 C 363.050 228.431,362.510 228.163,362.400 228.006 C 362.290 227.849,361.390 227.453,360.400 227.127 L 358.600 226.533 358.501 182.567 C 358.447 158.385,358.283 138.330,358.137 138.000 C 357.992 137.670,357.551 135.887,357.158 134.037 C 356.764 132.187,356.297 130.567,356.119 130.437 C 355.941 130.307,355.553 129.505,355.256 128.656 C 354.312 125.956,351.119 121.441,348.214 118.699 C 347.106 117.654,345.821 116.439,345.358 115.999 C 344.895 115.560,344.344 115.200,344.133 115.200 C 343.923 115.200,343.380 114.854,342.926 114.431 C 341.887 113.464,337.570 111.437,335.200 110.805 C 334.210 110.541,333.040 110.117,332.600 109.863 C 332.043 109.541,327.096 109.362,316.316 109.275 L 300.832 109.149 300.716 68.108 C 300.624 35.713,300.495 27.031,300.100 26.900 C 299.825 26.808,299.600 26.426,299.600 26.051 C 299.600 25.010,298.406 20.654,298.055 20.413 C 297.884 20.296,297.426 19.391,297.036 18.401 C 296.646 17.412,296.209 16.512,296.064 16.401 C 295.919 16.291,295.460 15.590,295.045 14.845 C 293.187 11.511,285.497 4.400,283.749 4.400 C 283.447 4.400,283.200 4.235,283.200 4.033 C 283.200 3.831,282.345 3.346,281.300 2.954 C 280.255 2.562,279.310 2.120,279.200 1.972 C 277.913 0.241,277.521 0.232,201.200 0.174 C 161.490 0.144,128.370 0.186,127.600 0.268 M271.800 23.663 C 274.183 24.929,275.598 26.364,276.864 28.800 L 277.800 30.600 277.908 70.100 L 278.015 109.600 199.800 109.600 L 121.585 109.600 121.692 69.900 L 121.800 30.200 122.683 28.549 C 123.169 27.641,124.377 26.184,125.368 25.312 C 128.892 22.210,122.825 22.436,200.400 22.522 L 269.800 22.600 271.800 23.663 M150.137 38.838 C 147.646 39.299,145.482 40.557,143.702 42.579 C 141.043 45.600,141.000 45.976,141.000 66.200 L 141.000 84.200 142.124 86.490 C 146.479 95.357,159.754 94.570,162.453 85.283 C 163.255 82.522,163.246 49.047,162.442 46.279 C 161.024 41.395,155.236 37.895,150.137 38.838 M197.309 38.990 C 193.541 39.875,190.663 42.420,189.408 45.978 C 188.474 48.626,188.508 83.000,189.447 85.757 C 192.713 95.340,207.371 94.791,210.223 84.979 C 211.294 81.296,210.894 47.636,209.751 45.163 C 207.572 40.453,202.274 37.825,197.309 38.990 M245.800 38.846 C 242.042 39.521,239.556 41.264,237.780 44.471 L 236.600 46.600 236.485 65.045 C 236.375 82.724,236.404 83.580,237.178 85.649 C 240.529 94.605,253.148 95.189,257.413 86.587 C 258.163 85.075,258.200 84.086,258.200 65.600 L 258.200 46.200 257.066 44.307 C 254.656 40.283,250.100 38.075,245.800 38.846 M329.200 132.644 C 331.536 133.740,333.662 135.857,334.850 138.271 L 335.800 140.200 335.914 178.166 C 335.976 199.048,335.886 216.263,335.714 216.421 C 335.541 216.580,333.690 215.943,331.600 215.006 C 327.206 213.036,326.968 212.930,319.000 209.417 C 315.700 207.962,312.640 206.606,312.200 206.403 C 311.760 206.201,308.700 204.845,305.400 203.391 C 297.424 199.875,296.018 199.251,294.600 198.595 C 293.545 198.108,285.083 194.364,280.600 192.402 C 275.648 190.235,264.026 185.085,263.000 184.604 C 261.919 184.096,253.387 180.319,248.800 178.317 C 247.810 177.885,246.280 177.205,245.400 176.806 C 244.520 176.407,242.270 175.409,240.400 174.589 C 234.268 171.898,232.616 171.165,231.400 170.599 C 230.740 170.292,227.680 168.945,224.600 167.606 C 221.520 166.267,218.460 164.917,217.800 164.606 C 203.527 157.877,198.901 156.578,195.686 158.399 C 195.309 158.613,192.300 159.970,189.000 161.414 C 185.700 162.858,182.460 164.295,181.800 164.606 C 181.140 164.917,178.080 166.272,175.000 167.616 C 171.920 168.961,168.680 170.392,167.800 170.796 C 166.920 171.200,165.390 171.885,164.400 172.317 C 161.076 173.768,151.408 178.032,150.600 178.404 C 150.160 178.606,147.100 179.957,143.800 181.406 C 140.500 182.855,137.260 184.295,136.600 184.606 C 135.940 184.917,132.880 186.272,129.800 187.616 C 126.720 188.961,123.480 190.392,122.600 190.796 C 121.720 191.200,120.190 191.885,119.200 192.317 C 115.876 193.768,106.208 198.032,105.400 198.404 C 104.960 198.606,101.900 199.962,98.600 201.416 C 95.300 202.870,91.880 204.391,91.000 204.796 C 90.120 205.200,88.590 205.885,87.600 206.317 C 86.610 206.749,83.280 208.218,80.200 209.583 C 77.120 210.947,73.970 212.342,73.200 212.682 C 72.430 213.023,70.090 214.069,68.000 215.006 C 65.910 215.943,64.061 216.581,63.890 216.425 C 63.720 216.268,63.630 199.054,63.690 178.170 L 63.800 140.200 64.666 138.326 C 65.142 137.295,66.369 135.650,67.392 134.670 C 70.836 131.370,58.012 131.653,200.400 131.731 L 327.400 131.800 329.200 132.644 M201.439 181.758 C 202.077 182.065,204.760 183.253,207.400 184.399 C 210.040 185.544,214.450 187.475,217.200 188.690 C 219.950 189.905,222.920 191.213,223.800 191.596 C 224.680 191.979,227.740 193.329,230.600 194.596 C 237.645 197.716,238.538 198.108,242.000 199.594 C 243.650 200.302,245.720 201.211,246.600 201.614 C 247.957 202.236,254.203 204.984,260.200 207.596 C 268.911 211.391,272.383 212.916,273.400 213.395 C 274.060 213.705,277.120 215.058,280.200 216.401 C 283.280 217.744,286.520 219.175,287.400 219.581 C 288.280 219.987,290.350 220.898,292.000 221.606 C 293.650 222.315,295.720 223.209,296.600 223.594 C 305.581 227.520,308.840 228.954,310.200 229.579 C 311.080 229.984,313.960 231.251,316.600 232.395 C 319.240 233.540,322.120 234.801,323.000 235.197 C 324.602 235.920,329.817 238.215,333.200 239.686 C 334.190 240.116,335.720 240.795,336.600 241.194 C 338.151 241.897,343.339 244.182,346.600 245.598 C 351.738 247.830,358.821 250.946,360.200 251.582 C 361.080 251.987,363.150 252.898,364.800 253.606 C 366.450 254.315,368.520 255.214,369.400 255.606 C 370.280 255.997,371.675 256.597,372.500 256.938 C 374.379 257.716,374.441 257.443,370.416 266.200 C 370.012 267.080,369.102 269.150,368.394 270.800 C 367.685 272.450,366.788 274.520,366.400 275.400 C 366.012 276.280,365.112 278.350,364.400 280.000 C 363.688 281.650,362.788 283.720,362.400 284.600 C 362.012 285.480,361.112 287.550,360.400 289.200 C 359.688 290.850,358.791 292.920,358.406 293.800 C 358.022 294.680,356.686 297.740,355.439 300.600 C 354.191 303.460,352.921 306.340,352.616 307.000 C 352.311 307.660,351.406 309.730,350.606 311.600 C 349.806 313.470,348.821 315.720,348.416 316.600 C 348.012 317.480,347.102 319.550,346.394 321.200 C 345.685 322.850,344.788 324.920,344.400 325.800 C 344.012 326.680,343.112 328.750,342.400 330.400 C 341.688 332.050,340.788 334.120,340.400 335.000 C 340.012 335.880,339.112 337.950,338.400 339.600 C 337.688 341.250,336.791 343.320,336.406 344.200 C 336.022 345.080,334.686 348.140,333.439 351.000 C 332.191 353.860,330.921 356.740,330.616 357.400 C 330.311 358.060,329.410 360.130,328.614 362.000 C 327.817 363.870,326.917 365.940,326.614 366.600 C 326.310 367.260,325.408 369.330,324.610 371.200 C 323.812 373.070,323.010 374.870,322.827 375.200 C 322.302 376.147,319.071 375.740,311.220 373.735 C 290.003 368.316,286.504 367.794,271.600 367.819 C 256.639 367.845,252.025 368.605,236.925 373.531 C 225.754 377.176,205.422 378.827,195.400 376.904 C 194.080 376.651,190.930 376.066,188.400 375.605 C 185.870 375.144,183.260 374.599,182.600 374.395 C 155.793 366.112,133.817 365.831,106.800 373.424 C 104.710 374.011,101.380 374.825,99.400 375.231 C 97.420 375.638,95.066 376.148,94.168 376.365 C 91.447 377.024,83.995 377.664,80.630 377.528 L 77.460 377.400 76.030 374.163 C 75.243 372.383,74.296 370.223,73.925 369.363 C 72.304 365.607,70.250 360.876,69.599 359.400 C 69.211 358.520,68.312 356.450,67.600 354.800 C 66.888 353.150,65.988 351.080,65.600 350.200 C 65.212 349.320,64.312 347.250,63.600 345.600 C 62.888 343.950,61.988 341.880,61.600 341.000 C 61.212 340.120,60.312 338.050,59.600 336.400 C 58.888 334.750,57.988 332.680,57.600 331.800 C 57.212 330.920,56.312 328.850,55.600 327.200 C 54.888 325.550,53.988 323.480,53.600 322.600 C 53.212 321.720,52.312 319.650,51.600 318.000 C 50.888 316.350,49.988 314.280,49.600 313.400 C 49.212 312.520,48.315 310.450,47.606 308.800 C 46.898 307.150,45.988 305.080,45.584 304.200 C 45.179 303.320,44.194 301.070,43.394 299.200 C 42.594 297.330,41.690 295.260,41.386 294.600 C 41.083 293.940,40.183 291.870,39.386 290.000 C 38.590 288.130,37.689 286.060,37.384 285.400 C 36.894 284.339,35.189 280.409,31.135 271.000 C 30.472 269.460,29.682 267.660,29.381 267.000 C 25.161 257.761,25.157 257.743,27.100 256.938 C 27.925 256.597,29.500 255.904,30.600 255.399 C 31.700 254.894,34.760 253.544,37.400 252.398 C 40.040 251.252,42.920 249.984,43.800 249.579 C 45.160 248.954,48.419 247.520,57.400 243.594 C 58.280 243.209,60.350 242.315,62.000 241.606 C 63.650 240.898,65.720 239.987,66.600 239.581 C 67.480 239.175,70.720 237.744,73.800 236.401 C 76.880 235.058,79.940 233.705,80.600 233.395 C 81.260 233.084,84.140 231.809,87.000 230.561 C 89.860 229.314,92.920 227.978,93.800 227.594 C 94.680 227.209,96.750 226.315,98.400 225.606 C 100.050 224.898,102.120 223.987,103.000 223.581 C 103.880 223.175,107.120 221.745,110.200 220.404 C 113.280 219.062,116.160 217.799,116.600 217.596 C 117.040 217.394,120.100 216.041,123.400 214.589 C 131.584 210.990,131.370 211.084,135.200 209.418 C 137.070 208.604,139.140 207.689,139.800 207.384 C 140.460 207.078,143.520 205.734,146.600 204.396 C 149.680 203.059,152.560 201.799,153.000 201.596 C 153.440 201.394,156.500 200.041,159.800 198.589 C 163.100 197.138,166.340 195.711,167.000 195.419 C 167.660 195.127,169.550 194.310,171.200 193.603 C 172.850 192.897,174.920 191.987,175.800 191.581 C 177.384 190.850,186.561 186.819,189.966 185.358 C 190.937 184.941,193.367 183.847,195.366 182.927 C 199.455 181.046,199.812 180.977,201.439 181.758 " stroke="none" fill="#1c4c83" fill-rule="evenodd"></path><path id="path4" d="M188.583 65.800 C 188.583 75.260,188.636 79.073,188.700 74.273 C 188.764 69.473,188.763 61.733,188.699 57.073 C 188.636 52.413,188.583 56.340,188.583 65.800 M136.300 131.900 C 171.115 131.956,228.085 131.956,262.900 131.900 C 297.715 131.844,269.230 131.798,199.600 131.798 C 129.970 131.798,101.485 131.844,136.300 131.900 M69.741 132.797 C 69.268 132.988,68.754 133.351,68.597 133.605 C 68.364 133.981,70.586 133.068,71.167 132.549 C 71.453 132.293,70.639 132.435,69.741 132.797 M328.433 132.528 C 329.069 133.015,331.600 134.336,331.600 134.181 C 331.600 133.913,329.082 132.403,328.633 132.401 C 328.432 132.401,328.342 132.457,328.433 132.528 M332.400 135.138 C 332.400 135.324,332.788 135.819,333.262 136.238 L 334.124 137.000 333.416 135.900 C 332.686 134.766,332.400 134.551,332.400 135.138 M64.981 137.637 C 64.629 138.318,64.412 138.945,64.499 139.032 C 64.586 139.119,64.956 138.562,65.322 137.795 C 66.144 136.070,65.859 135.938,64.981 137.637 M334.742 138.987 C 335.092 139.960,335.446 140.688,335.529 140.605 C 335.748 140.385,334.799 137.647,334.424 137.415 C 334.249 137.307,334.392 138.014,334.742 138.987 M63.698 178.876 C 63.602 215.679,63.646 217.166,64.819 216.336 C 65.293 216.000,65.272 215.966,64.702 216.149 C 64.042 216.361,63.998 214.339,63.900 178.887 L 63.796 141.400 63.698 178.876 M335.698 179.287 C 335.605 214.403,335.563 216.363,334.900 216.150 C 334.315 215.961,334.298 215.994,334.797 216.346 C 335.961 217.168,336.003 215.766,335.900 179.178 L 335.796 142.200 335.698 179.287 M194.200 158.778 C 193.320 159.195,192.713 159.550,192.851 159.568 C 193.240 159.618,196.000 158.414,196.000 158.195 C 196.000 157.927,195.999 157.927,194.200 158.778 M204.758 158.837 C 205.725 159.266,206.588 159.545,206.675 159.458 C 206.848 159.286,203.765 157.982,203.292 158.028 C 203.131 158.044,203.791 158.408,204.758 158.837 M189.600 160.800 C 188.830 161.222,188.380 161.566,188.600 161.566 C 188.820 161.566,189.630 161.222,190.400 160.800 C 191.170 160.378,191.620 160.034,191.400 160.034 C 191.180 160.034,190.370 160.378,189.600 160.800 M209.200 160.800 C 209.970 161.222,210.780 161.566,211.000 161.566 C 211.220 161.566,210.770 161.222,210.000 160.800 C 209.230 160.378,208.420 160.034,208.200 160.034 C 207.980 160.034,208.430 160.378,209.200 160.800 M185.300 162.634 C 184.585 162.946,184.000 163.294,184.000 163.407 C 184.000 163.615,186.806 162.527,187.146 162.187 C 187.486 161.847,186.620 162.057,185.300 162.634 M212.454 162.187 C 212.790 162.523,215.600 163.616,215.600 163.411 C 215.600 163.301,214.948 162.938,214.151 162.605 C 212.675 161.989,212.118 161.851,212.454 162.187 M180.600 164.778 C 179.720 165.195,179.141 165.550,179.313 165.568 C 179.783 165.616,182.400 164.474,182.400 164.220 C 182.400 163.923,182.419 163.917,180.600 164.778 M217.200 164.215 C 217.200 164.565,220.058 165.675,220.310 165.423 C 220.433 165.301,220.435 165.200,220.316 165.200 C 220.196 165.200,219.446 164.928,218.649 164.595 C 217.852 164.262,217.200 164.091,217.200 164.215 M175.600 167.000 C 175.050 167.314,174.780 167.572,175.000 167.572 C 175.220 167.572,175.850 167.314,176.400 167.000 C 176.950 166.686,177.220 166.428,177.000 166.428 C 176.780 166.428,176.150 166.686,175.600 167.000 M223.200 167.000 C 223.750 167.314,224.380 167.572,224.600 167.572 C 224.820 167.572,224.550 167.314,224.000 167.000 C 223.450 166.686,222.820 166.428,222.600 166.428 C 222.380 166.428,222.650 166.686,223.200 167.000 M171.700 168.634 C 170.985 168.946,170.400 169.294,170.400 169.407 C 170.400 169.615,173.206 168.527,173.546 168.187 C 173.886 167.847,173.020 168.057,171.700 168.634 M226.054 168.187 C 226.390 168.523,229.200 169.616,229.200 169.411 C 229.200 169.301,228.548 168.938,227.751 168.605 C 226.275 167.989,225.718 167.851,226.054 168.187 M166.600 170.991 C 165.500 171.509,164.720 171.948,164.867 171.967 C 165.286 172.019,168.800 170.453,168.800 170.214 C 168.800 169.940,168.928 169.894,166.600 170.991 M230.800 170.215 C 230.800 170.565,233.658 171.675,233.910 171.423 C 234.033 171.301,234.035 171.200,233.916 171.200 C 233.796 171.200,233.046 170.928,232.249 170.595 C 231.452 170.262,230.800 170.091,230.800 170.215 M162.600 172.778 C 161.720 173.195,161.113 173.550,161.251 173.568 C 161.640 173.618,164.400 172.414,164.400 172.195 C 164.400 171.927,164.399 171.927,162.600 172.778 M235.200 172.189 C 235.200 172.506,238.100 173.633,238.328 173.405 C 238.441 173.292,238.435 173.200,238.316 173.200 C 238.196 173.200,237.446 172.928,236.649 172.595 C 235.852 172.262,235.200 172.079,235.200 172.189 M240.800 174.800 C 241.570 175.222,242.380 175.566,242.600 175.566 C 242.820 175.566,242.370 175.222,241.600 174.800 C 240.830 174.378,240.020 174.034,239.800 174.034 C 239.580 174.034,240.030 174.378,240.800 174.800 M157.600 175.000 C 157.050 175.314,156.780 175.572,157.000 175.572 C 157.220 175.572,157.850 175.314,158.400 175.000 C 158.950 174.686,159.220 174.428,159.000 174.428 C 158.780 174.428,158.150 174.686,157.600 175.000 M153.700 176.634 C 152.985 176.946,152.400 177.294,152.400 177.407 C 152.400 177.615,155.206 176.527,155.546 176.187 C 155.886 175.847,155.020 176.057,153.700 176.634 M244.400 176.236 C 244.400 176.504,248.078 178.055,248.266 177.867 C 248.350 177.783,247.515 177.339,246.409 176.879 C 245.304 176.420,244.400 176.131,244.400 176.236 M149.000 178.778 C 148.120 179.195,147.513 179.550,147.651 179.568 C 148.040 179.618,150.800 178.414,150.800 178.195 C 150.800 177.927,150.799 177.927,149.000 178.778 M248.800 178.189 C 248.800 178.506,251.700 179.633,251.928 179.405 C 252.041 179.292,252.035 179.200,251.916 179.200 C 251.796 179.200,251.046 178.928,250.249 178.595 C 249.452 178.262,248.800 178.079,248.800 178.189 M254.400 180.800 C 255.170 181.222,255.980 181.566,256.200 181.566 C 256.420 181.566,255.970 181.222,255.200 180.800 C 254.430 180.378,253.620 180.034,253.400 180.034 C 253.180 180.034,253.630 180.378,254.400 180.800 M144.000 181.000 C 143.450 181.314,143.180 181.572,143.400 181.572 C 143.620 181.572,144.250 181.314,144.800 181.000 C 145.350 180.686,145.620 180.428,145.400 180.428 C 145.180 180.428,144.550 180.686,144.000 181.000 M198.507 181.525 C 198.223 181.706,198.673 181.830,199.567 181.819 C 200.421 181.809,201.038 181.665,200.937 181.500 C 200.697 181.109,199.138 181.125,198.507 181.525 M140.100 182.634 C 139.385 182.946,138.800 183.294,138.800 183.407 C 138.800 183.615,141.606 182.527,141.946 182.187 C 142.286 181.847,141.420 182.057,140.100 182.634 M259.552 183.009 C 260.735 183.570,261.778 183.956,261.868 183.865 C 261.959 183.774,261.261 183.388,260.317 183.006 C 257.580 181.900,257.217 181.901,259.552 183.009 M195.200 183.000 C 194.650 183.314,194.380 183.572,194.600 183.572 C 194.820 183.572,195.450 183.314,196.000 183.000 C 196.550 182.686,196.820 182.428,196.600 182.428 C 196.380 182.428,195.750 182.686,195.200 183.000 M202.800 182.589 C 202.800 182.906,205.700 184.033,205.928 183.805 C 206.041 183.692,206.035 183.600,205.916 183.600 C 205.796 183.600,205.046 183.328,204.249 182.995 C 203.452 182.662,202.800 182.479,202.800 182.589 M135.400 184.778 C 134.520 185.195,133.941 185.550,134.113 185.568 C 134.583 185.616,137.200 184.474,137.200 184.220 C 137.200 183.923,137.219 183.917,135.400 184.778 M262.400 184.215 C 262.400 184.565,265.258 185.675,265.510 185.423 C 265.633 185.301,265.635 185.200,265.516 185.200 C 265.396 185.200,264.646 184.928,263.849 184.595 C 263.052 184.262,262.400 184.091,262.400 184.215 M190.500 185.034 C 189.785 185.346,189.200 185.694,189.200 185.807 C 189.200 186.015,192.006 184.927,192.346 184.587 C 192.686 184.247,191.820 184.457,190.500 185.034 M208.000 185.000 C 208.550 185.314,209.180 185.572,209.400 185.572 C 209.620 185.572,209.350 185.314,208.800 185.000 C 208.250 184.686,207.620 184.428,207.400 184.428 C 207.180 184.428,207.450 184.686,208.000 185.000 M212.752 187.009 C 213.935 187.570,214.978 187.956,215.068 187.865 C 215.159 187.774,214.461 187.388,213.517 187.006 C 210.780 185.900,210.417 185.901,212.752 187.009 M130.400 187.000 C 129.850 187.314,129.580 187.572,129.800 187.572 C 130.020 187.572,130.650 187.314,131.200 187.000 C 131.750 186.686,132.020 186.428,131.800 186.428 C 131.580 186.428,130.950 186.686,130.400 187.000 M185.800 187.178 C 184.920 187.595,184.313 187.950,184.451 187.968 C 184.840 188.018,187.600 186.814,187.600 186.595 C 187.600 186.327,187.599 186.327,185.800 187.178 M268.400 187.000 C 268.950 187.314,269.580 187.572,269.800 187.572 C 270.020 187.572,269.750 187.314,269.200 187.000 C 268.650 186.686,268.020 186.428,267.800 186.428 C 267.580 186.428,267.850 186.686,268.400 187.000 M126.800 188.600 C 126.250 188.914,125.980 189.172,126.200 189.172 C 126.420 189.172,127.050 188.914,127.600 188.600 C 128.150 188.286,128.420 188.028,128.200 188.028 C 127.980 188.028,127.350 188.286,126.800 188.600 M271.254 188.187 C 271.590 188.523,274.400 189.616,274.400 189.411 C 274.400 189.301,273.748 188.938,272.951 188.605 C 271.475 187.989,270.918 187.851,271.254 188.187 M181.600 189.000 C 181.050 189.314,180.780 189.572,181.000 189.572 C 181.220 189.572,181.850 189.314,182.400 189.000 C 182.950 188.686,183.220 188.428,183.000 188.428 C 182.780 188.428,182.150 188.686,181.600 189.000 M217.600 189.200 C 218.370 189.622,219.180 189.966,219.400 189.966 C 219.620 189.966,219.170 189.622,218.400 189.200 C 217.630 188.778,216.820 188.434,216.600 188.434 C 216.380 188.434,216.830 188.778,217.600 189.200 M277.000 190.815 C 278.320 191.445,279.580 191.956,279.800 191.950 C 280.314 191.936,275.533 189.660,275.000 189.665 C 274.780 189.667,275.680 190.184,277.000 190.815 M121.400 190.991 C 120.300 191.509,119.520 191.948,119.667 191.967 C 120.086 192.019,123.600 190.453,123.600 190.214 C 123.600 189.940,123.728 189.894,121.400 190.991 M176.900 190.996 C 176.185 191.307,175.600 191.662,175.600 191.786 C 175.600 192.009,178.386 190.947,178.746 190.587 C 179.101 190.232,178.197 190.433,176.900 190.996 M220.854 190.587 C 221.190 190.923,224.000 192.016,224.000 191.811 C 224.000 191.701,223.348 191.338,222.551 191.005 C 221.075 190.389,220.518 190.251,220.854 190.587 M117.400 192.778 C 116.520 193.195,115.913 193.550,116.051 193.568 C 116.440 193.618,119.200 192.414,119.200 192.195 C 119.200 191.927,119.199 191.927,117.400 192.778 M226.352 193.009 C 227.535 193.570,228.578 193.956,228.668 193.865 C 228.759 193.774,228.061 193.388,227.117 193.006 C 224.380 191.900,224.017 191.901,226.352 193.009 M280.400 192.189 C 280.400 192.506,283.300 193.633,283.528 193.405 C 283.641 193.292,283.635 193.200,283.516 193.200 C 283.396 193.200,282.646 192.928,281.849 192.595 C 281.052 192.262,280.400 192.079,280.400 192.189 M172.200 193.178 C 171.320 193.595,170.713 193.950,170.851 193.968 C 171.240 194.018,174.000 192.814,174.000 192.595 C 174.000 192.327,173.999 192.327,172.200 193.178 M286.000 194.800 C 286.770 195.222,287.580 195.566,287.800 195.566 C 288.020 195.566,287.570 195.222,286.800 194.800 C 286.030 194.378,285.220 194.034,285.000 194.034 C 284.780 194.034,285.230 194.378,286.000 194.800 M112.400 195.000 C 111.850 195.314,111.580 195.572,111.800 195.572 C 112.020 195.572,112.650 195.314,113.200 195.000 C 113.750 194.686,114.020 194.428,113.800 194.428 C 113.580 194.428,112.950 194.686,112.400 195.000 M167.700 195.034 C 166.985 195.346,166.400 195.694,166.400 195.807 C 166.400 196.015,169.206 194.927,169.546 194.587 C 169.886 194.247,169.020 194.457,167.700 195.034 M230.800 195.000 C 231.350 195.314,231.980 195.572,232.200 195.572 C 232.420 195.572,232.150 195.314,231.600 195.000 C 231.050 194.686,230.420 194.428,230.200 194.428 C 229.980 194.428,230.250 194.686,230.800 195.000 M108.500 196.634 C 107.785 196.946,107.200 197.294,107.200 197.407 C 107.200 197.615,110.006 196.527,110.346 196.187 C 110.686 195.847,109.820 196.057,108.500 196.634 M163.400 196.991 C 162.300 197.509,161.580 197.937,161.800 197.942 C 162.020 197.947,163.100 197.527,164.200 197.009 C 165.300 196.491,166.020 196.063,165.800 196.058 C 165.580 196.053,164.500 196.473,163.400 196.991 M291.152 197.009 C 292.335 197.570,293.378 197.956,293.468 197.865 C 293.559 197.774,292.861 197.388,291.917 197.006 C 289.180 195.900,288.817 195.901,291.152 197.009 M234.454 196.587 C 234.790 196.923,237.600 198.016,237.600 197.811 C 237.600 197.701,236.948 197.338,236.151 197.005 C 234.675 196.389,234.118 196.251,234.454 196.587 M103.800 198.778 C 102.920 199.195,102.313 199.550,102.451 199.568 C 102.840 199.618,105.600 198.414,105.600 198.195 C 105.600 197.927,105.599 197.927,103.800 198.778 M239.952 199.009 C 241.135 199.570,242.178 199.956,242.268 199.865 C 242.359 199.774,241.661 199.388,240.717 199.006 C 237.980 197.900,237.617 197.901,239.952 199.009 M294.000 198.215 C 294.000 198.565,296.858 199.675,297.110 199.423 C 297.233 199.301,297.235 199.200,297.116 199.200 C 296.996 199.200,296.246 198.928,295.449 198.595 C 294.652 198.262,294.000 198.091,294.000 198.215 M158.400 199.200 C 157.630 199.622,157.180 199.966,157.400 199.966 C 157.620 199.966,158.430 199.622,159.200 199.200 C 159.970 198.778,160.420 198.434,160.200 198.434 C 159.980 198.434,159.170 198.778,158.400 199.200 M298.400 200.189 C 298.400 200.506,301.300 201.633,301.528 201.405 C 301.641 201.292,301.635 201.200,301.516 201.200 C 301.396 201.200,300.646 200.928,299.849 200.595 C 299.052 200.262,298.400 200.079,298.400 200.189 M98.800 201.000 C 98.250 201.314,97.980 201.572,98.200 201.572 C 98.420 201.572,99.050 201.314,99.600 201.000 C 100.150 200.686,100.420 200.428,100.200 200.428 C 99.980 200.428,99.350 200.686,98.800 201.000 M154.100 201.034 C 153.385 201.346,152.800 201.694,152.800 201.807 C 152.800 202.015,155.606 200.927,155.946 200.587 C 156.286 200.247,155.420 200.457,154.100 201.034 M243.654 200.587 C 243.990 200.923,246.800 202.016,246.800 201.811 C 246.800 201.701,246.148 201.338,245.351 201.005 C 243.875 200.389,243.318 200.251,243.654 200.587 M95.200 202.600 C 94.650 202.914,94.380 203.172,94.600 203.172 C 94.820 203.172,95.450 202.914,96.000 202.600 C 96.550 202.286,96.820 202.028,96.600 202.028 C 96.380 202.028,95.750 202.286,95.200 202.600 M304.000 202.800 C 304.770 203.222,305.580 203.566,305.800 203.566 C 306.020 203.566,305.570 203.222,304.800 202.800 C 304.030 202.378,303.220 202.034,303.000 202.034 C 302.780 202.034,303.230 202.378,304.000 202.800 M149.400 203.178 C 148.520 203.595,147.913 203.950,148.051 203.968 C 148.440 204.018,151.200 202.814,151.200 202.595 C 151.200 202.327,151.199 202.327,149.400 203.178 M248.800 202.936 C 249.350 203.246,250.250 203.619,250.800 203.765 L 251.800 204.029 250.800 203.464 C 250.250 203.154,249.350 202.781,248.800 202.635 L 247.800 202.371 248.800 202.936 M89.800 204.991 C 88.700 205.509,87.920 205.948,88.067 205.967 C 88.486 206.019,92.000 204.453,92.000 204.214 C 92.000 203.940,92.128 203.894,89.800 204.991 M309.152 205.009 C 310.335 205.570,311.378 205.956,311.468 205.865 C 311.559 205.774,310.861 205.388,309.917 205.006 C 307.180 203.900,306.817 203.901,309.152 205.009 M145.200 205.000 C 144.650 205.314,144.380 205.572,144.600 205.572 C 144.820 205.572,145.450 205.314,146.000 205.000 C 146.550 204.686,146.820 204.428,146.600 204.428 C 146.380 204.428,145.750 204.686,145.200 205.000 M254.000 205.200 C 254.770 205.622,255.580 205.966,255.800 205.966 C 256.020 205.966,255.570 205.622,254.800 205.200 C 254.030 204.778,253.220 204.434,253.000 204.434 C 252.780 204.434,253.230 204.778,254.000 205.200 M85.800 206.778 C 84.920 207.195,84.313 207.550,84.451 207.568 C 84.840 207.618,87.600 206.414,87.600 206.195 C 87.600 205.927,87.599 205.927,85.800 206.778 M312.000 206.189 C 312.000 206.506,314.900 207.633,315.128 207.405 C 315.241 207.292,315.235 207.200,315.116 207.200 C 314.996 207.200,314.246 206.928,313.449 206.595 C 312.652 206.262,312.000 206.079,312.000 206.189 M140.500 206.996 C 139.785 207.307,139.200 207.662,139.200 207.786 C 139.200 208.009,141.986 206.947,142.346 206.587 C 142.701 206.232,141.797 206.433,140.500 206.996 M257.254 206.587 C 257.590 206.923,260.400 208.016,260.400 207.811 C 260.400 207.701,259.748 207.338,258.951 207.005 C 257.475 206.389,256.918 206.251,257.254 206.587 M317.600 208.800 C 318.370 209.222,319.180 209.566,319.400 209.566 C 319.620 209.566,319.170 209.222,318.400 208.800 C 317.630 208.378,316.820 208.034,316.600 208.034 C 316.380 208.034,316.830 208.378,317.600 208.800 M80.800 209.000 C 80.250 209.314,79.980 209.572,80.200 209.572 C 80.420 209.572,81.050 209.314,81.600 209.000 C 82.150 208.686,82.420 208.428,82.200 208.428 C 81.980 208.428,81.350 208.686,80.800 209.000 M135.600 209.200 C 134.830 209.622,134.380 209.966,134.600 209.966 C 134.820 209.966,135.630 209.622,136.400 209.200 C 137.170 208.778,137.620 208.434,137.400 208.434 C 137.180 208.434,136.370 208.778,135.600 209.200 M262.000 208.589 C 262.000 208.906,264.900 210.033,265.128 209.805 C 265.241 209.692,265.235 209.600,265.116 209.600 C 264.996 209.600,264.246 209.328,263.449 208.995 C 262.652 208.662,262.000 208.479,262.000 208.589 M76.200 210.991 C 75.100 211.509,74.380 211.937,74.600 211.942 C 74.820 211.947,75.900 211.527,77.000 211.009 C 78.100 210.491,78.820 210.063,78.600 210.058 C 78.380 210.053,77.300 210.473,76.200 210.991 M320.854 210.187 C 321.190 210.523,324.000 211.616,324.000 211.411 C 324.000 211.301,323.348 210.938,322.551 210.605 C 321.075 209.989,320.518 209.851,320.854 210.187 M131.300 211.034 C 130.585 211.346,130.000 211.694,130.000 211.807 C 130.000 212.015,132.806 210.927,133.146 210.587 C 133.486 210.247,132.620 210.457,131.300 211.034 M267.200 211.000 C 267.750 211.314,268.380 211.572,268.600 211.572 C 268.820 211.572,268.550 211.314,268.000 211.000 C 267.450 210.686,266.820 210.428,266.600 210.428 C 266.380 210.428,266.650 210.686,267.200 211.000 M72.200 212.778 C 71.320 213.195,70.741 213.550,70.913 213.568 C 71.383 213.616,74.000 212.474,74.000 212.220 C 74.000 211.923,74.019 211.917,72.200 212.778 M127.000 212.991 C 125.900 213.509,125.180 213.937,125.400 213.942 C 125.620 213.947,126.700 213.527,127.800 213.009 C 128.900 212.491,129.620 212.063,129.400 212.058 C 129.180 212.053,128.100 212.473,127.000 212.991 M325.600 212.215 C 325.600 212.565,328.458 213.675,328.710 213.423 C 328.833 213.301,328.835 213.200,328.716 213.200 C 328.596 213.200,327.846 212.928,327.049 212.595 C 326.252 212.262,325.600 212.091,325.600 212.215 M270.854 212.587 C 271.215 212.948,274.000 214.008,274.000 213.785 C 274.000 213.661,273.376 213.298,272.613 212.980 C 271.220 212.398,270.505 212.238,270.854 212.587 M67.200 215.000 C 66.650 215.314,66.380 215.572,66.600 215.572 C 66.820 215.572,67.450 215.314,68.000 215.000 C 68.550 214.686,68.820 214.428,68.600 214.428 C 68.380 214.428,67.750 214.686,67.200 215.000 M122.400 215.000 C 121.850 215.314,121.580 215.572,121.800 215.572 C 122.020 215.572,122.650 215.314,123.200 215.000 C 123.750 214.686,124.020 214.428,123.800 214.428 C 123.580 214.428,122.950 214.686,122.400 215.000 M275.600 214.589 C 275.600 214.906,278.500 216.033,278.728 215.805 C 278.841 215.692,278.835 215.600,278.716 215.600 C 278.596 215.600,277.846 215.328,277.049 214.995 C 276.252 214.662,275.600 214.479,275.600 214.589 M331.600 215.000 C 332.150 215.314,332.780 215.572,333.000 215.572 C 333.220 215.572,332.950 215.314,332.400 215.000 C 331.850 214.686,331.220 214.428,331.000 214.428 C 330.780 214.428,331.050 214.686,331.600 215.000 M117.700 217.034 C 116.985 217.346,116.400 217.694,116.400 217.807 C 116.400 218.015,119.206 216.927,119.546 216.587 C 119.886 216.247,119.020 216.457,117.700 217.034 M280.800 217.000 C 281.350 217.314,281.980 217.572,282.200 217.572 C 282.420 217.572,282.150 217.314,281.600 217.000 C 281.050 216.686,280.420 216.428,280.200 216.428 C 279.980 216.428,280.250 216.686,280.800 217.000 M113.400 218.991 C 112.300 219.509,111.580 219.937,111.800 219.942 C 112.020 219.947,113.100 219.527,114.200 219.009 C 115.300 218.491,116.020 218.063,115.800 218.058 C 115.580 218.053,114.500 218.473,113.400 218.991 M284.454 218.587 C 284.815 218.948,287.600 220.008,287.600 219.785 C 287.600 219.661,286.976 219.298,286.213 218.980 C 284.820 218.398,284.105 218.238,284.454 218.587 M108.800 221.000 C 108.250 221.314,107.980 221.572,108.200 221.572 C 108.420 221.572,109.050 221.314,109.600 221.000 C 110.150 220.686,110.420 220.428,110.200 220.428 C 109.980 220.428,109.350 220.686,108.800 221.000 M104.100 222.996 C 103.385 223.307,102.800 223.662,102.800 223.786 C 102.800 224.009,105.586 222.947,105.946 222.587 C 106.301 222.232,105.397 222.433,104.100 222.996 M293.654 222.587 C 293.990 222.923,296.800 224.016,296.800 223.811 C 296.800 223.701,296.148 223.338,295.351 223.005 C 293.875 222.389,293.318 222.251,293.654 222.587 M299.152 225.009 C 300.335 225.570,301.378 225.956,301.468 225.865 C 301.559 225.774,300.861 225.388,299.917 225.006 C 297.180 223.900,296.817 223.901,299.152 225.009 M99.400 225.178 C 98.520 225.595,97.913 225.950,98.051 225.968 C 98.440 226.018,101.200 224.814,101.200 224.595 C 101.200 224.327,101.199 224.327,99.400 225.178 M94.900 227.034 C 94.185 227.346,93.600 227.694,93.600 227.807 C 93.600 228.015,96.406 226.927,96.746 226.587 C 97.086 226.247,96.220 226.457,94.900 227.034 M303.600 227.000 C 304.150 227.314,304.780 227.572,305.000 227.572 C 305.220 227.572,304.950 227.314,304.400 227.000 C 303.850 226.686,303.220 226.428,303.000 226.428 C 302.780 226.428,303.050 226.686,303.600 227.000 M90.600 228.991 C 89.500 229.509,88.780 229.937,89.000 229.942 C 89.220 229.947,90.300 229.527,91.400 229.009 C 92.500 228.491,93.220 228.063,93.000 228.058 C 92.780 228.053,91.700 228.473,90.600 228.991 M307.254 228.587 C 307.615 228.948,310.400 230.008,310.400 229.785 C 310.400 229.661,309.776 229.298,309.013 228.980 C 307.620 228.398,306.905 228.238,307.254 228.587 M86.000 231.000 C 85.450 231.314,85.180 231.572,85.400 231.572 C 85.620 231.572,86.250 231.314,86.800 231.000 C 87.350 230.686,87.620 230.428,87.400 230.428 C 87.180 230.428,86.550 230.686,86.000 231.000 M312.000 230.589 C 312.000 230.906,314.900 232.033,315.128 231.805 C 315.241 231.692,315.235 231.600,315.116 231.600 C 314.996 231.600,314.246 231.328,313.449 230.995 C 312.652 230.662,312.000 230.479,312.000 230.589 M81.300 232.996 C 80.585 233.307,80.000 233.662,80.000 233.786 C 80.000 234.009,82.786 232.947,83.146 232.587 C 83.501 232.232,82.597 232.433,81.300 232.996 M317.200 233.000 C 317.750 233.314,318.380 233.572,318.600 233.572 C 318.820 233.572,318.550 233.314,318.000 233.000 C 317.450 232.686,316.820 232.428,316.600 232.428 C 316.380 232.428,316.650 232.686,317.200 233.000 M77.000 234.991 C 75.900 235.509,75.180 235.937,75.400 235.942 C 75.620 235.947,76.700 235.527,77.800 235.009 C 78.900 234.491,79.620 234.063,79.400 234.058 C 79.180 234.053,78.100 234.473,77.000 234.991 M320.042 234.175 C 320.375 234.508,324.000 235.971,324.000 235.772 C 324.000 235.662,323.175 235.218,322.167 234.786 C 320.379 234.020,319.687 233.821,320.042 234.175 M72.400 237.000 C 71.850 237.314,71.580 237.572,71.800 237.572 C 72.020 237.572,72.650 237.314,73.200 237.000 C 73.750 236.686,74.020 236.428,73.800 236.428 C 73.580 236.428,72.950 236.686,72.400 237.000 M326.800 237.200 C 327.570 237.622,328.380 237.966,328.600 237.966 C 328.820 237.966,328.370 237.622,327.600 237.200 C 326.830 236.778,326.020 236.434,325.800 236.434 C 325.580 236.434,326.030 236.778,326.800 237.200 M67.700 238.996 C 66.985 239.307,66.400 239.662,66.400 239.786 C 66.400 240.009,69.186 238.947,69.546 238.587 C 69.901 238.232,68.997 238.433,67.700 238.996 M330.054 238.587 C 330.390 238.923,333.200 240.016,333.200 239.811 C 333.200 239.701,332.548 239.338,331.751 239.005 C 330.275 238.389,329.718 238.251,330.054 238.587 M333.642 240.175 C 333.975 240.508,337.600 241.971,337.600 241.772 C 337.600 241.662,336.775 241.218,335.767 240.786 C 333.979 240.020,333.287 239.821,333.642 240.175 M63.000 241.178 C 62.120 241.595,61.513 241.950,61.651 241.968 C 62.040 242.018,64.800 240.814,64.800 240.595 C 64.800 240.327,64.799 240.327,63.000 241.178 M58.500 243.034 C 57.785 243.346,57.200 243.694,57.200 243.807 C 57.200 244.015,60.006 242.927,60.346 242.587 C 60.686 242.247,59.820 242.457,58.500 243.034 M340.000 243.000 C 340.550 243.314,341.180 243.572,341.400 243.572 C 341.620 243.572,341.350 243.314,340.800 243.000 C 340.250 242.686,339.620 242.428,339.400 242.428 C 339.180 242.428,339.450 242.686,340.000 243.000 M53.800 245.178 C 52.920 245.595,52.313 245.950,52.451 245.968 C 52.840 246.018,55.600 244.814,55.600 244.595 C 55.600 244.327,55.599 244.327,53.800 245.178 M343.654 244.587 C 343.990 244.923,346.800 246.016,346.800 245.811 C 346.800 245.701,346.148 245.338,345.351 245.005 C 343.875 244.389,343.318 244.251,343.654 244.587 M49.600 247.000 C 49.050 247.314,48.780 247.572,49.000 247.572 C 49.220 247.572,49.850 247.314,50.400 247.000 C 50.950 246.686,51.220 246.428,51.000 246.428 C 50.780 246.428,50.150 246.686,49.600 247.000 M348.400 246.589 C 348.400 246.906,351.300 248.033,351.528 247.805 C 351.641 247.692,351.635 247.600,351.516 247.600 C 351.396 247.600,350.646 247.328,349.849 246.995 C 349.052 246.662,348.400 246.479,348.400 246.589 M44.900 248.996 C 44.185 249.307,43.600 249.662,43.600 249.786 C 43.600 250.009,46.386 248.947,46.746 248.587 C 47.101 248.232,46.197 248.433,44.900 248.996 M353.600 249.000 C 354.150 249.314,354.780 249.572,355.000 249.572 C 355.220 249.572,354.950 249.314,354.400 249.000 C 353.850 248.686,353.220 248.428,353.000 248.428 C 352.780 248.428,353.050 248.686,353.600 249.000 M40.200 251.178 C 39.320 251.595,38.713 251.950,38.851 251.968 C 39.240 252.018,42.000 250.814,42.000 250.595 C 42.000 250.327,41.999 250.327,40.200 251.178 M357.254 250.587 C 357.615 250.948,360.400 252.008,360.400 251.785 C 360.400 251.661,359.776 251.298,359.013 250.980 C 357.620 250.398,356.905 250.238,357.254 250.587 M36.000 253.000 C 35.450 253.314,35.180 253.572,35.400 253.572 C 35.620 253.572,36.250 253.314,36.800 253.000 C 37.350 252.686,37.620 252.428,37.400 252.428 C 37.180 252.428,36.550 252.686,36.000 253.000 M362.000 252.589 C 362.000 252.906,364.900 254.033,365.128 253.805 C 365.241 253.692,365.235 253.600,365.116 253.600 C 364.996 253.600,364.246 253.328,363.449 252.995 C 362.652 252.662,362.000 252.479,362.000 252.589 M31.700 254.812 C 30.765 255.227,30.000 255.667,30.000 255.789 C 30.000 256.022,32.298 255.132,33.496 254.434 C 34.647 253.764,33.530 253.999,31.700 254.812 M366.454 254.587 C 366.790 254.923,369.600 256.016,369.600 255.811 C 369.600 255.701,368.948 255.338,368.151 255.005 C 366.675 254.389,366.118 254.251,366.454 254.587 M371.600 256.887 C 372.590 257.338,373.532 257.908,373.694 258.154 C 373.898 258.464,373.990 258.444,373.994 258.086 C 373.997 257.803,373.175 257.218,372.167 256.786 C 369.752 255.751,369.288 255.834,371.600 256.887 M26.900 256.996 C 26.082 257.352,25.617 257.828,25.646 258.281 C 25.687 258.908,25.715 258.915,25.870 258.331 C 25.967 257.963,26.576 257.477,27.223 257.252 C 27.871 257.026,28.400 256.742,28.400 256.621 C 28.400 256.338,28.432 256.330,26.900 256.996 M372.865 259.817 C 372.195 261.288,372.323 261.602,373.047 260.265 C 373.386 259.640,373.588 259.054,373.496 258.963 C 373.405 258.871,373.121 259.256,372.865 259.817 M26.428 260.200 C 26.428 260.420,26.686 261.050,27.000 261.600 C 27.314 262.150,27.572 262.420,27.572 262.200 C 27.572 261.980,27.314 261.350,27.000 260.800 C 26.686 260.250,26.428 259.980,26.428 260.200 M371.200 263.284 C 371.200 263.404,370.928 264.154,370.595 264.951 C 370.262 265.748,370.091 266.400,370.215 266.400 C 370.565 266.400,371.675 263.542,371.423 263.290 C 371.301 263.167,371.200 263.165,371.200 263.284 M28.400 264.546 C 28.400 265.054,29.555 267.600,29.785 267.600 C 29.909 267.600,29.733 266.934,29.393 266.121 C 28.765 264.619,28.400 264.040,28.400 264.546 M368.600 269.461 C 368.264 270.265,368.082 271.015,368.195 271.128 C 368.308 271.241,368.400 271.235,368.400 271.116 C 368.400 270.996,368.672 270.246,369.005 269.449 C 369.338 268.652,369.521 268.000,369.411 268.000 C 369.301 268.000,368.936 268.658,368.600 269.461 M30.428 269.400 C 30.428 269.620,30.686 270.250,31.000 270.800 C 31.314 271.350,31.572 271.620,31.572 271.400 C 31.572 271.180,31.314 270.550,31.000 270.000 C 30.686 269.450,30.428 269.180,30.428 269.400 M367.200 272.484 C 367.200 272.604,366.928 273.354,366.595 274.151 C 366.262 274.948,366.079 275.600,366.189 275.600 C 366.506 275.600,367.633 272.700,367.405 272.472 C 367.292 272.359,367.200 272.365,367.200 272.484 M32.635 274.400 C 32.781 274.950,33.154 275.850,33.464 276.400 L 34.029 277.400 33.765 276.400 C 33.619 275.850,33.246 274.950,32.936 274.400 L 32.371 273.400 32.635 274.400 M364.853 278.053 C 364.380 279.193,364.058 280.192,364.139 280.272 C 364.220 280.353,364.673 279.486,365.147 278.347 C 365.620 277.207,365.942 276.208,365.861 276.128 C 365.780 276.047,365.327 276.914,364.853 278.053 M34.428 278.600 C 34.428 278.820,34.686 279.450,35.000 280.000 C 35.314 280.550,35.572 280.820,35.572 280.600 C 35.572 280.380,35.314 279.750,35.000 279.200 C 34.686 278.650,34.428 278.380,34.428 278.600 M363.200 281.684 C 363.200 281.804,362.928 282.554,362.595 283.351 C 362.262 284.148,362.079 284.800,362.189 284.800 C 362.506 284.800,363.633 281.900,363.405 281.672 C 363.292 281.559,363.200 281.565,363.200 281.684 M36.400 282.946 C 36.400 283.454,37.555 286.000,37.785 286.000 C 37.909 286.000,37.733 285.334,37.393 284.521 C 36.765 283.019,36.400 282.440,36.400 282.946 M360.600 287.861 C 360.264 288.665,360.082 289.415,360.195 289.528 C 360.308 289.641,360.400 289.635,360.400 289.516 C 360.400 289.396,360.672 288.646,361.005 287.849 C 361.338 287.052,361.521 286.400,361.411 286.400 C 361.301 286.400,360.936 287.058,360.600 287.861 M38.434 287.800 C 38.434 288.020,38.778 288.830,39.200 289.600 C 39.622 290.370,39.966 290.820,39.966 290.600 C 39.966 290.380,39.622 289.570,39.200 288.800 C 38.778 288.030,38.434 287.580,38.434 287.800 M359.200 290.884 C 359.200 291.004,358.928 291.754,358.595 292.551 C 358.262 293.348,358.079 294.000,358.189 294.000 C 358.506 294.000,359.633 291.100,359.405 290.872 C 359.292 290.759,359.200 290.765,359.200 290.884 M40.400 292.146 C 40.400 292.654,41.555 295.200,41.785 295.200 C 41.909 295.200,41.733 294.534,41.393 293.721 C 40.765 292.219,40.400 291.640,40.400 292.146 M356.853 296.453 C 356.380 297.593,356.058 298.592,356.139 298.672 C 356.220 298.753,356.673 297.886,357.147 296.747 C 357.620 295.607,357.942 294.608,357.861 294.528 C 357.780 294.447,357.327 295.314,356.853 296.453 M42.434 297.000 C 42.434 297.220,42.778 298.030,43.200 298.800 C 43.622 299.570,43.966 300.020,43.966 299.800 C 43.966 299.580,43.622 298.770,43.200 298.000 C 42.778 297.230,42.434 296.780,42.434 297.000 M354.865 301.017 C 354.195 302.488,354.323 302.802,355.047 301.465 C 355.386 300.840,355.588 300.254,355.496 300.163 C 355.405 300.071,355.121 300.456,354.865 301.017 M44.400 301.346 C 44.400 301.854,45.555 304.400,45.785 304.400 C 45.909 304.400,45.733 303.734,45.393 302.921 C 44.765 301.419,44.400 300.840,44.400 301.346 M353.200 304.484 C 353.200 304.604,352.928 305.354,352.595 306.151 C 352.262 306.948,352.091 307.600,352.215 307.600 C 352.565 307.600,353.675 304.742,353.423 304.490 C 353.301 304.367,353.200 304.365,353.200 304.484 M47.007 307.479 C 47.607 308.914,48.000 309.562,48.000 309.116 C 48.000 308.684,46.785 306.000,46.589 306.000 C 46.479 306.000,46.667 306.666,47.007 307.479 M350.865 310.217 C 350.195 311.688,350.323 312.002,351.047 310.665 C 351.386 310.040,351.588 309.454,351.496 309.363 C 351.405 309.271,351.121 309.656,350.865 310.217 M48.400 310.484 C 48.400 310.916,49.615 313.600,49.811 313.600 C 49.921 313.600,49.733 312.934,49.393 312.121 C 48.793 310.686,48.400 310.038,48.400 310.484 M349.200 313.684 C 349.200 313.804,348.928 314.554,348.595 315.351 C 348.262 316.148,348.091 316.800,348.215 316.800 C 348.565 316.800,349.675 313.942,349.423 313.690 C 349.301 313.567,349.200 313.565,349.200 313.684 M50.150 314.400 C 50.501 315.699,51.709 318.424,51.865 318.268 C 51.956 318.178,51.570 317.135,51.009 315.952 C 50.447 314.768,50.061 314.070,50.150 314.400 M346.465 320.217 C 345.795 321.688,345.923 322.002,346.647 320.665 C 346.986 320.040,347.188 319.454,347.096 319.363 C 347.005 319.271,346.721 319.656,346.465 320.217 M52.400 319.684 C 52.400 320.116,53.615 322.800,53.811 322.800 C 53.921 322.800,53.733 322.134,53.393 321.321 C 52.793 319.886,52.400 319.238,52.400 319.684 M345.200 322.884 C 345.200 323.004,344.928 323.754,344.595 324.551 C 344.262 325.348,344.079 326.000,344.189 326.000 C 344.506 326.000,345.633 323.100,345.405 322.872 C 345.292 322.759,345.200 322.765,345.200 322.884 M55.007 325.879 C 55.607 327.314,56.000 327.962,56.000 327.516 C 56.000 327.084,54.785 324.400,54.589 324.400 C 54.479 324.400,54.667 325.066,55.007 325.879 M342.600 329.061 C 342.264 329.865,342.082 330.615,342.195 330.728 C 342.308 330.841,342.400 330.835,342.400 330.716 C 342.400 330.596,342.672 329.846,343.005 329.049 C 343.338 328.252,343.521 327.600,343.411 327.600 C 343.301 327.600,342.936 328.258,342.600 329.061 M56.400 328.884 C 56.400 329.316,57.615 332.000,57.811 332.000 C 57.921 332.000,57.733 331.334,57.393 330.521 C 56.793 329.086,56.400 328.438,56.400 328.884 M341.200 332.084 C 341.200 332.204,340.928 332.954,340.595 333.751 C 340.262 334.548,340.079 335.200,340.189 335.200 C 340.506 335.200,341.633 332.300,341.405 332.072 C 341.292 331.959,341.200 331.965,341.200 332.084 M58.150 332.800 C 58.501 334.099,59.709 336.824,59.865 336.668 C 59.956 336.578,59.570 335.535,59.009 334.352 C 58.447 333.168,58.061 332.470,58.150 332.800 M338.600 338.261 C 338.264 339.065,338.082 339.815,338.195 339.928 C 338.308 340.041,338.400 340.035,338.400 339.916 C 338.400 339.796,338.672 339.046,339.005 338.249 C 339.338 337.452,339.521 336.800,339.411 336.800 C 339.301 336.800,338.936 337.458,338.600 338.261 M60.400 338.084 C 60.400 338.516,61.615 341.200,61.811 341.200 C 61.921 341.200,61.733 340.534,61.393 339.721 C 60.793 338.286,60.400 337.638,60.400 338.084 M337.200 341.284 C 337.200 341.404,336.928 342.154,336.595 342.951 C 336.262 343.748,336.079 344.400,336.189 344.400 C 336.506 344.400,337.633 341.500,337.405 341.272 C 337.292 341.159,337.200 341.165,337.200 341.284 M62.150 342.000 C 62.501 343.299,63.709 346.024,63.865 345.868 C 63.956 345.778,63.570 344.735,63.009 343.552 C 62.447 342.368,62.061 341.670,62.150 342.000 M334.600 347.461 C 334.264 348.265,334.082 349.015,334.195 349.128 C 334.308 349.241,334.400 349.235,334.400 349.116 C 334.400 348.996,334.672 348.246,335.005 347.449 C 335.338 346.652,335.521 346.000,335.411 346.000 C 335.301 346.000,334.936 346.658,334.600 347.461 M64.400 347.284 C 64.400 347.716,65.615 350.400,65.811 350.400 C 65.921 350.400,65.733 349.734,65.393 348.921 C 64.793 347.486,64.400 346.838,64.400 347.284 M332.865 351.417 C 332.195 352.888,332.323 353.202,333.047 351.865 C 333.386 351.240,333.588 350.654,333.496 350.563 C 333.405 350.471,333.121 350.856,332.865 351.417 M66.150 351.200 C 66.501 352.499,67.709 355.224,67.865 355.068 C 67.956 354.978,67.570 353.935,67.009 352.752 C 66.447 351.568,66.061 350.870,66.150 351.200 M330.695 356.396 C 330.348 357.278,330.149 358.000,330.253 358.000 C 330.523 358.000,331.678 355.145,331.486 354.952 C 331.397 354.864,331.041 355.513,330.695 356.396 M68.400 356.484 C 68.400 356.916,69.615 359.600,69.811 359.600 C 69.921 359.600,69.733 358.934,69.393 358.121 C 68.793 356.686,68.400 356.038,68.400 356.484 M328.865 360.617 C 328.195 362.088,328.323 362.402,329.047 361.065 C 329.386 360.440,329.588 359.854,329.496 359.763 C 329.405 359.671,329.121 360.056,328.865 360.617 M70.150 360.400 C 70.501 361.699,71.709 364.424,71.865 364.268 C 71.956 364.178,71.570 363.135,71.009 361.952 C 70.447 360.768,70.061 360.070,70.150 360.400 M326.695 365.596 C 326.348 366.478,326.149 367.200,326.253 367.200 C 326.523 367.200,327.678 364.345,327.486 364.152 C 327.397 364.064,327.041 364.713,326.695 365.596 M72.400 365.684 C 72.400 366.116,73.615 368.800,73.811 368.800 C 73.921 368.800,73.733 368.134,73.393 367.321 C 72.793 365.886,72.400 365.238,72.400 365.684 M268.918 367.498 C 270.633 367.573,273.333 367.572,274.918 367.497 C 276.503 367.421,275.100 367.359,271.800 367.360 C 268.500 367.361,267.203 367.422,268.918 367.498 M139.519 367.898 C 141.344 367.972,144.224 367.972,145.919 367.897 C 147.614 367.822,146.120 367.761,142.600 367.762 C 139.080 367.762,137.694 367.824,139.519 367.898 M131.300 368.276 C 131.685 368.376,132.315 368.376,132.700 368.276 C 133.085 368.175,132.770 368.093,132.000 368.093 C 131.230 368.093,130.915 368.175,131.300 368.276 M152.900 368.276 C 153.285 368.376,153.915 368.376,154.300 368.276 C 154.685 368.175,154.370 368.093,153.600 368.093 C 152.830 368.093,152.515 368.175,152.900 368.276 M285.200 368.117 C 285.467 368.393,294.074 369.659,294.281 369.452 C 294.371 369.363,293.309 369.102,291.922 368.873 C 288.032 368.232,284.979 367.888,285.200 368.117 M126.600 368.600 C 126.380 368.675,125.329 368.855,124.263 368.999 C 123.198 369.142,122.396 369.329,122.480 369.413 C 122.564 369.498,124.426 369.323,126.617 369.025 C 129.063 368.692,129.906 368.479,128.800 368.473 C 127.810 368.467,126.820 368.525,126.600 368.600 M157.200 368.783 C 161.228 369.419,163.557 369.607,162.200 369.187 C 161.540 368.983,159.650 368.730,158.000 368.626 C 155.227 368.450,155.167 368.462,157.200 368.783 M253.000 368.820 C 252.211 369.035,252.622 369.070,254.200 368.923 C 255.520 368.800,256.675 368.632,256.767 368.550 C 257.064 368.282,254.234 368.485,253.000 368.820 M324.865 369.817 C 324.195 371.288,324.323 371.602,325.047 370.265 C 325.386 369.640,325.588 369.054,325.496 368.963 C 325.405 368.871,325.121 369.256,324.865 369.817 M74.150 369.600 C 74.501 370.899,75.709 373.624,75.865 373.468 C 75.956 373.378,75.570 372.335,75.009 371.152 C 74.447 369.968,74.061 369.270,74.150 369.600 M297.235 370.168 C 297.518 370.451,302.906 371.628,303.087 371.446 C 303.180 371.353,301.993 370.990,300.449 370.638 C 297.513 369.971,296.956 369.889,297.235 370.168 M114.600 370.989 C 112.452 371.697,113.297 371.724,115.800 371.028 C 116.900 370.722,117.440 370.469,117.000 370.467 C 116.560 370.464,115.480 370.699,114.600 370.989 M168.800 370.746 C 170.293 371.238,173.170 371.660,172.200 371.245 C 171.760 371.056,170.590 370.793,169.600 370.659 C 168.416 370.500,168.142 370.529,168.800 370.746 M243.800 371.015 C 242.223 371.561,242.220 371.565,243.600 371.332 C 245.232 371.057,246.900 370.448,246.000 370.456 C 245.670 370.459,244.680 370.711,243.800 371.015 M108.000 372.783 C 106.790 373.187,105.952 373.536,106.138 373.559 C 106.626 373.618,110.800 372.376,110.800 372.172 C 110.800 371.901,110.349 371.999,108.000 372.783 M176.014 372.551 C 176.792 372.852,178.052 373.211,178.814 373.348 L 180.200 373.598 178.786 373.049 C 178.008 372.748,176.748 372.389,175.986 372.252 L 174.600 372.002 176.014 372.551 M238.200 372.834 C 237.100 373.259,236.720 373.505,237.356 373.381 C 238.614 373.137,241.250 372.066,240.600 372.064 C 240.380 372.063,239.300 372.409,238.200 372.834 M306.609 372.561 C 307.493 372.856,308.843 373.204,309.609 373.335 C 310.935 373.562,310.925 373.549,309.391 373.039 C 308.507 372.744,307.157 372.396,306.391 372.265 C 305.065 372.038,305.075 372.051,306.609 372.561 M322.850 374.250 C 322.586 374.829,322.462 375.395,322.574 375.507 C 322.686 375.619,322.968 375.211,323.200 374.600 C 323.432 373.989,323.557 373.423,323.476 373.343 C 323.396 373.262,323.114 373.671,322.850 374.250 M100.474 374.687 C 99.084 375.014,98.023 375.356,98.115 375.449 C 98.339 375.672,102.438 374.799,103.200 374.366 C 103.988 373.917,103.511 373.973,100.474 374.687 M182.800 374.382 C 183.130 374.605,183.745 374.791,184.167 374.794 C 185.190 374.802,184.871 374.573,183.400 374.244 C 182.524 374.048,182.362 374.085,182.800 374.382 M231.000 375.015 C 229.423 375.561,229.420 375.565,230.800 375.332 C 232.432 375.057,234.100 374.448,233.200 374.456 C 232.870 374.459,231.880 374.711,231.000 375.015 M316.200 375.009 C 317.300 375.292,318.560 375.519,319.000 375.514 C 319.440 375.509,318.900 375.274,317.800 374.991 C 316.700 374.708,315.440 374.481,315.000 374.486 C 314.560 374.491,315.100 374.726,316.200 375.009 M76.400 374.953 C 76.400 375.382,77.590 377.600,77.821 377.600 C 77.931 377.600,77.723 377.015,77.359 376.300 C 76.617 374.840,76.400 374.536,76.400 374.953 M87.800 376.814 C 84.720 377.195,82.778 377.528,83.484 377.553 C 85.335 377.621,92.838 376.765,93.792 376.379 C 94.825 375.960,94.523 375.981,87.800 376.814 M194.100 376.676 C 194.485 376.776,195.115 376.776,195.500 376.676 C 195.885 376.575,195.570 376.493,194.800 376.493 C 194.030 376.493,193.715 376.575,194.100 376.676 M220.600 376.800 C 218.668 377.065,218.654 377.076,220.200 377.114 C 221.080 377.136,222.520 377.005,223.400 376.823 C 225.442 376.401,223.620 376.386,220.600 376.800 M197.305 377.087 C 197.914 377.179,198.814 377.177,199.305 377.082 C 199.797 376.987,199.300 376.911,198.200 376.914 C 197.100 376.917,196.697 376.995,197.305 377.087 M201.705 377.487 C 202.314 377.579,203.214 377.577,203.705 377.482 C 204.197 377.387,203.700 377.311,202.600 377.314 C 201.500 377.317,201.097 377.395,201.705 377.487 M215.300 377.487 C 215.905 377.578,216.895 377.578,217.500 377.487 C 218.105 377.395,217.610 377.320,216.400 377.320 C 215.190 377.320,214.695 377.395,215.300 377.487 " stroke="none" fill="#7594b4" fill-rule="evenodd"></path></g></svg>