<svg id="svg" version="1.1" xmlns="http://www.w3.org/2000/svg" xmlns:xlink="http://www.w3.org/1999/xlink" width="400" height="490.38961038961037" viewBox="0, 0, 400,490.38961038961037"><g id="svgg"><path id="path0" d="M299.900 12.432 C 298.882 13.025,298.826 31.969,299.839 32.982 C 300.924 34.067,339.828 33.724,340.632 32.624 C 341.393 31.584,341.472 13.232,340.720 12.480 C 340.094 11.854,300.972 11.808,299.900 12.432 M313.680 44.880 C 313.011 45.549,313.057 70.080,313.730 71.800 C 313.989 72.460,315.495 75.167,317.079 77.816 C 318.662 80.464,321.428 85.669,323.226 89.381 C 325.719 94.527,326.581 95.977,326.857 95.485 C 327.540 94.264,327.098 45.233,326.400 44.791 C 325.488 44.215,314.267 44.293,313.680 44.880 M170.000 72.200 C 169.994 77.134,168.386 77.756,154.871 78.048 C 133.578 78.508,121.043 82.905,109.776 93.864 C 93.089 110.096,87.630 159.764,100.354 179.600 C 113.839 200.622,136.464 210.890,158.894 206.167 C 164.624 204.960,166.430 204.076,170.447 200.507 C 187.074 185.736,209.508 186.102,226.000 201.413 C 228.685 203.906,230.983 205.251,234.400 206.330 C 257.796 213.718,282.938 203.959,297.975 181.655 C 310.493 163.087,306.820 113.580,291.738 97.593 C 282.826 88.146,270.742 81.695,256.800 78.942 C 253.842 78.358,248.949 78.240,219.129 78.035 C 185.282 77.803,184.844 77.790,183.729 76.972 C 182.341 75.953,181.201 73.802,181.201 72.200 L 181.201 71.000 175.601 71.000 L 170.002 71.000 170.000 72.200 M258.000 89.324 C 277.841 94.988,291.152 107.171,297.199 125.200 C 300.017 133.599,298.896 137.088,293.218 137.600 L 291.000 137.800 291.000 143.200 L 291.000 148.600 293.000 148.815 C 299.902 149.558,300.074 155.518,293.584 169.000 C 287.475 181.687,275.235 193.093,264.196 196.385 C 257.999 198.233,256.984 198.386,250.858 198.393 C 240.929 198.404,236.519 196.991,230.651 191.918 C 211.427 175.296,183.041 175.655,163.890 192.763 C 157.952 198.067,143.717 198.276,130.663 193.250 C 102.492 182.402,90.675 141.370,107.396 112.458 C 113.999 101.040,124.789 93.068,138.400 89.552 C 143.864 88.140,145.655 88.100,201.200 88.171 L 254.200 88.239 258.000 89.324 M328.087 193.700 C 327.861 193.975,327.005 195.910,326.185 198.000 C 324.181 203.109,319.749 211.940,316.258 217.780 L 313.400 222.560 313.153 233.980 C 312.897 245.851,312.638 247.936,310.739 253.400 C 306.107 266.729,293.865 277.494,279.800 280.606 C 275.440 281.571,247.944 282.213,230.400 281.760 L 216.200 281.393 213.918 280.276 C 209.677 278.200,208.009 275.286,207.713 269.435 C 207.451 264.236,207.678 264.400,200.724 264.400 C 193.628 264.400,193.524 264.474,193.842 269.288 C 194.788 283.655,202.708 294.213,213.600 295.630 C 218.263 296.236,273.461 296.575,277.256 296.021 C 301.360 292.498,320.357 275.436,325.379 252.800 C 325.745 251.150,326.234 249.080,326.466 248.200 C 326.717 247.247,326.968 238.976,327.087 227.738 L 327.287 208.877 328.473 207.438 C 329.348 206.377,330.080 205.933,331.271 205.742 C 334.170 205.279,334.746 204.337,334.829 199.924 C 334.911 195.488,334.463 194.684,331.644 194.208 C 330.742 194.055,329.903 193.766,329.778 193.565 C 329.456 193.044,328.568 193.114,328.087 193.700 M182.267 240.667 C 181.496 241.437,182.003 249.487,182.908 250.841 C 184.736 253.578,184.877 253.599,201.540 253.599 C 220.612 253.600,220.765 253.540,221.129 245.941 C 221.421 239.817,221.173 239.573,217.254 242.136 C 207.173 248.729,194.457 248.595,185.197 241.798 C 183.271 240.384,182.750 240.183,182.267 240.667 " stroke="none" fill="#efbb20" fill-rule="evenodd"></path><path id="path1" d="M187.600 41.625 C 165.711 44.405,146.456 52.708,131.279 65.911 L 128.758 68.104 129.624 69.025 C 130.354 69.802,130.654 69.883,131.545 69.538 C 135.842 67.876,147.890 66.670,158.201 66.868 C 166.607 67.031,167.844 67.344,169.135 69.639 C 169.994 71.167,170.607 71.297,176.185 71.135 L 180.834 71.000 182.117 69.534 C 184.460 66.857,182.569 67.012,214.600 66.878 C 252.538 66.720,256.930 67.057,269.335 71.074 C 275.074 72.932,274.091 70.996,265.959 64.421 C 243.966 46.641,214.834 38.166,187.600 41.625 M190.977 201.568 C 185.881 202.804,181.681 205.159,177.000 209.406 C 166.161 219.240,144.449 220.946,124.626 213.522 C 122.880 212.868,119.685 211.446,117.526 210.363 C 113.150 208.167,112.852 208.325,115.269 211.564 C 127.192 227.540,146.411 241.298,165.680 247.648 C 171.595 249.597,171.200 250.234,171.200 238.729 C 171.200 226.960,171.814 226.000,179.339 226.000 C 183.784 226.000,184.868 226.474,187.655 229.639 C 195.240 238.252,205.670 238.323,214.775 229.823 C 218.881 225.990,219.267 225.843,224.679 226.059 C 231.393 226.327,232.000 227.416,232.000 239.187 C 232.000 248.969,231.575 248.326,236.772 246.410 C 251.134 241.115,264.865 232.084,275.813 220.733 C 283.782 212.470,284.473 210.711,278.722 213.331 C 276.133 214.511,270.397 216.600,267.000 217.600 C 258.840 220.002,243.735 219.878,233.400 217.325 C 226.650 215.658,223.519 213.931,217.600 208.610 C 210.176 201.936,200.266 199.315,190.977 201.568 M159.800 308.089 C 156.431 308.811,152.984 309.725,152.600 309.999 C 152.018 310.413,147.007 311.600,145.841 311.600 C 145.295 311.600,144.736 311.780,144.600 312.000 C 144.464 312.220,144.021 312.400,143.616 312.400 C 143.211 312.400,141.532 313.089,139.886 313.931 C 138.239 314.773,135.386 316.044,133.546 316.756 C 111.226 325.385,96.997 334.537,80.978 350.571 C 58.690 372.879,42.263 403.082,35.276 434.600 C 35.032 435.700,34.570 437.770,34.250 439.200 C 33.284 443.512,32.479 448.326,31.843 453.600 C 30.935 461.135,30.829 462.599,31.152 463.122 C 31.381 463.493,69.656 463.578,200.624 463.500 L 369.800 463.400 369.714 459.833 C 369.316 443.325,361.758 415.955,352.024 395.775 C 337.476 365.613,312.443 338.478,287.360 325.682 C 286.473 325.229,285.516 324.581,285.235 324.242 C 284.953 323.902,283.345 322.948,281.661 322.121 C 279.978 321.294,277.957 320.227,277.172 319.749 C 276.386 319.271,274.946 318.601,273.972 318.261 C 272.997 317.920,271.210 317.263,270.000 316.800 C 265.151 314.946,261.900 314.077,256.600 313.215 C 255.060 312.965,252.540 312.504,251.000 312.191 C 240.914 310.141,236.496 309.685,221.800 309.180 C 215.420 308.961,208.760 308.618,207.000 308.419 C 202.744 307.937,161.842 307.651,159.800 308.089 " stroke="none" fill="#fafafb" fill-rule="evenodd"></path><path id="path2" d="M197.500 40.695 C 198.655 40.776,200.545 40.776,201.700 40.695 C 202.855 40.614,201.910 40.548,199.600 40.548 C 197.290 40.548,196.345 40.614,197.500 40.695 M187.800 41.200 L 186.200 41.486 187.600 41.504 C 188.370 41.513,189.990 41.384,191.200 41.217 L 193.400 40.913 191.400 40.913 C 190.300 40.913,188.680 41.042,187.800 41.200 M206.033 40.951 C 206.125 41.035,207.640 41.202,209.400 41.323 C 211.806 41.488,212.153 41.458,210.800 41.201 C 208.950 40.850,205.736 40.681,206.033 40.951 M180.600 42.239 L 178.600 42.783 180.600 42.525 C 181.700 42.384,183.410 42.141,184.400 41.987 L 186.200 41.707 184.400 41.701 C 183.410 41.698,181.700 41.940,180.600 42.239 M214.800 42.004 C 219.353 42.755,220.805 42.850,218.200 42.226 C 216.880 41.910,215.170 41.664,214.400 41.679 C 213.114 41.705,213.147 41.731,214.800 42.004 M175.200 43.263 C 174.430 43.473,173.260 43.803,172.600 43.996 C 171.940 44.189,170.617 44.550,169.660 44.800 C 168.702 45.049,167.991 45.324,168.078 45.412 C 168.166 45.499,169.219 45.297,170.419 44.962 C 171.618 44.627,173.751 44.098,175.158 43.785 C 177.737 43.213,178.783 42.765,177.367 42.841 C 176.945 42.863,175.970 43.053,175.200 43.263 M221.600 43.200 C 222.968 43.638,224.019 43.638,223.000 43.200 C 222.560 43.011,221.840 42.862,221.400 42.868 C 220.757 42.877,220.796 42.943,221.600 43.200 M225.800 44.209 C 228.322 44.910,229.030 44.905,227.200 44.200 C 226.430 43.903,225.350 43.659,224.800 43.657 C 224.221 43.655,224.642 43.888,225.800 44.209 M232.600 46.256 C 236.870 47.755,238.893 48.334,237.200 47.573 C 235.124 46.640,229.776 44.805,229.200 44.828 C 228.870 44.841,230.400 45.484,232.600 46.256 M161.000 47.791 C 158.353 49.038,158.854 49.053,161.832 47.817 C 163.134 47.276,163.930 46.837,163.600 46.841 C 163.270 46.846,162.100 47.273,161.000 47.791 M239.600 48.700 C 240.370 49.057,243.699 50.674,246.998 52.293 C 250.297 53.912,252.817 55.067,252.598 54.860 C 251.655 53.967,239.283 47.963,238.516 48.026 C 238.342 48.040,238.830 48.343,239.600 48.700 M157.200 49.400 C 156.650 49.714,156.380 49.972,156.600 49.972 C 156.820 49.972,157.450 49.714,158.000 49.400 C 158.550 49.086,158.820 48.828,158.600 48.828 C 158.380 48.828,157.750 49.086,157.200 49.400 M154.400 50.600 C 153.850 50.914,153.580 51.172,153.800 51.172 C 154.020 51.172,154.650 50.914,155.200 50.600 C 155.750 50.286,156.020 50.028,155.800 50.028 C 155.580 50.028,154.950 50.286,154.400 50.600 M150.700 52.426 C 149.435 53.079,148.400 53.703,148.400 53.812 C 148.400 53.922,149.480 53.466,150.800 52.800 C 152.120 52.134,153.200 51.501,153.200 51.394 C 153.200 51.128,153.274 51.097,150.700 52.426 M144.366 56.041 C 138.827 59.401,128.963 66.841,128.481 68.024 C 128.415 68.185,128.791 68.781,129.317 69.348 L 130.273 70.380 132.903 69.628 C 138.477 68.034,144.304 67.538,155.878 67.673 L 166.757 67.800 168.255 69.200 C 169.440 70.306,169.623 70.390,169.131 69.600 C 168.788 69.050,167.899 68.240,167.154 67.800 C 163.702 65.760,138.080 67.011,131.545 69.538 C 130.653 69.883,130.354 69.802,129.616 69.017 L 128.742 68.087 131.471 65.741 C 134.933 62.764,140.013 59.122,144.500 56.400 C 147.610 54.513,148.329 54.000,147.866 54.000 C 147.792 54.000,146.217 54.919,144.366 56.041 M253.200 55.295 C 253.310 55.407,255.470 56.890,258.000 58.590 C 263.327 62.170,267.174 65.186,270.700 68.545 C 272.075 69.855,273.200 70.745,273.200 70.523 C 273.200 70.127,271.003 68.123,266.152 64.092 C 262.818 61.321,251.706 53.775,253.200 55.295 M185.710 67.188 C 184.027 67.588,182.547 68.577,181.950 69.700 C 181.603 70.351,181.932 70.185,183.137 69.100 L 184.802 67.600 217.901 67.603 C 257.013 67.606,257.545 67.646,269.264 71.505 C 272.246 72.486,273.600 72.505,273.600 71.564 C 273.600 71.226,273.442 71.233,273.014 71.588 C 272.546 71.977,271.801 71.872,269.314 71.067 C 262.295 68.794,257.769 67.902,249.800 67.219 C 244.268 66.746,187.689 66.718,185.710 67.188 M147.400 99.204 C 122.382 100.550,104.723 127.754,111.831 153.998 C 112.159 155.209,112.627 156.920,112.871 157.800 C 114.476 163.580,120.595 173.198,125.292 177.321 C 135.305 186.110,151.361 188.914,158.432 183.108 C 181.613 164.077,215.035 164.096,237.141 183.154 C 240.814 186.320,241.001 186.412,245.053 187.059 C 250.765 187.970,257.329 187.667,261.105 186.316 C 272.354 182.292,283.412 169.138,287.225 155.243 C 287.685 153.570,288.587 151.451,289.230 150.535 C 290.910 148.143,291.041 138.165,289.426 135.691 C 288.890 134.871,287.969 132.490,287.380 130.400 C 283.150 115.414,271.856 104.459,256.192 100.146 L 252.200 99.047 202.600 98.975 C 175.320 98.936,150.480 99.039,147.400 99.204 M195.005 119.376 C 196.798 120.744,197.453 122.771,196.808 124.951 C 196.240 126.871,174.779 148.846,171.681 150.680 C 167.619 153.086,162.773 149.356,164.007 144.773 C 164.448 143.135,187.786 119.435,189.879 118.499 C 191.407 117.816,193.408 118.159,195.005 119.376 M232.126 118.449 C 234.908 119.878,236.088 122.394,235.265 125.140 C 234.555 127.512,210.755 151.030,208.675 151.416 C 204.430 152.203,200.953 147.485,202.974 143.680 C 203.770 142.180,226.724 119.378,228.200 118.621 C 229.624 117.890,230.928 117.833,232.126 118.449 M39.400 199.565 C 37.847 200.258,35.579 203.019,35.337 204.509 C 34.096 212.160,45.566 214.552,47.631 207.073 C 48.866 202.599,43.522 197.723,39.400 199.565 M190.800 201.174 C 185.375 202.638,181.374 204.814,177.391 208.466 C 172.831 212.647,168.350 215.069,163.482 215.986 C 161.987 216.267,160.857 216.590,160.970 216.703 C 162.348 218.082,172.562 213.432,177.000 209.406 C 189.422 198.136,205.596 197.819,217.600 208.610 C 225.586 215.789,235.591 219.419,246.621 219.140 C 248.720 219.087,248.576 219.044,245.400 218.777 C 232.185 217.668,225.370 215.196,218.905 209.164 C 210.869 201.667,200.205 198.636,190.800 201.174 M112.400 207.808 C 112.400 208.603,120.030 218.400,120.648 218.400 C 120.775 218.400,119.992 217.365,118.908 216.100 C 116.119 212.844,113.600 209.409,113.600 208.860 C 113.600 208.603,115.367 209.279,117.526 210.363 C 125.185 214.206,130.851 215.987,140.446 217.565 C 144.101 218.166,154.395 218.057,157.800 217.381 C 159.340 217.075,159.790 216.916,158.800 217.026 C 143.728 218.712,130.692 216.501,118.046 210.114 C 113.275 207.705,112.400 207.348,112.400 207.808 M278.000 213.158 C 275.039 214.507,271.124 215.950,267.000 217.210 C 265.567 217.648,261.270 218.349,257.400 218.774 C 254.928 219.047,254.823 219.090,256.500 219.141 C 258.387 219.200,264.703 218.271,267.000 217.598 C 270.354 216.615,276.127 214.514,278.722 213.331 C 284.473 210.711,283.782 212.470,275.813 220.733 C 264.865 232.084,251.134 241.115,236.772 246.410 C 231.575 248.326,232.000 248.969,232.000 239.187 C 232.000 227.416,231.393 226.327,224.679 226.059 C 219.267 225.843,218.881 225.990,214.775 229.823 C 205.670 238.323,195.240 238.252,187.655 229.639 C 184.868 226.474,183.784 226.000,179.339 226.000 C 171.814 226.000,171.200 226.960,171.200 238.729 C 171.200 250.009,171.386 249.628,166.697 247.963 C 165.401 247.503,164.253 247.214,164.146 247.321 C 163.869 247.598,168.976 249.200,170.137 249.200 C 171.505 249.200,171.588 248.611,171.595 238.880 C 171.602 227.384,172.209 226.415,179.400 226.419 C 183.298 226.421,184.965 227.111,186.981 229.555 C 194.433 238.589,205.919 238.927,214.950 230.379 C 218.886 226.653,219.444 226.400,223.726 226.401 C 230.760 226.402,231.340 227.340,231.600 239.128 L 231.800 248.200 232.800 248.059 C 241.740 246.799,261.980 234.610,273.231 223.710 C 284.037 213.240,285.650 209.671,278.000 213.158 M121.528 219.454 C 122.065 220.471,129.151 227.110,133.044 230.243 C 138.473 234.613,153.184 243.749,153.799 243.134 C 153.877 243.056,152.109 242.030,149.870 240.854 C 141.189 236.293,131.765 229.307,124.572 222.102 C 122.650 220.176,121.280 218.985,121.528 219.454 M250.905 219.487 C 251.514 219.579,252.414 219.577,252.905 219.482 C 253.397 219.387,252.900 219.311,251.800 219.314 C 250.700 219.317,250.297 219.395,250.905 219.487 M154.600 243.495 C 155.156 244.009,160.072 246.061,160.271 245.862 C 160.360 245.773,159.751 245.422,158.917 245.082 C 158.082 244.743,156.680 244.163,155.800 243.795 C 154.920 243.427,154.380 243.292,154.600 243.495 M52.584 243.945 C 45.810 245.146,40.379 252.421,40.893 259.609 C 41.877 273.359,59.796 278.205,67.679 266.853 C 75.174 256.061,65.663 241.627,52.584 243.945 M265.154 268.915 C 265.328 269.089,267.255 269.178,269.435 269.113 L 273.400 268.995 269.118 268.798 C 266.763 268.689,264.979 268.742,265.154 268.915 M358.800 305.460 C 352.541 307.962,354.317 317.600,361.037 317.600 C 368.750 317.600,369.225 305.798,361.529 305.345 C 360.358 305.276,359.130 305.328,358.800 305.460 M163.715 307.496 C 164.988 307.576,166.968 307.575,168.115 307.494 C 169.262 307.414,168.220 307.349,165.800 307.350 C 163.380 307.351,162.442 307.416,163.715 307.496 M178.473 307.899 C 182.804 307.964,190.004 307.964,194.473 307.900 C 198.943 307.835,195.400 307.782,186.600 307.782 C 177.800 307.782,174.143 307.835,178.473 307.899 M204.200 307.980 C 205.434 308.315,208.264 308.518,207.967 308.250 C 207.875 308.168,206.720 308.000,205.400 307.877 C 203.822 307.730,203.411 307.765,204.200 307.980 M155.200 308.818 C 154.762 309.115,154.924 309.152,155.800 308.956 C 157.271 308.627,157.590 308.398,156.567 308.406 C 156.145 308.409,155.530 308.595,155.200 308.818 M211.400 308.806 C 213.440 309.136,218.269 309.319,217.967 309.054 C 217.875 308.973,215.910 308.812,213.600 308.695 C 210.768 308.551,210.051 308.587,211.400 308.806 M228.300 309.489 C 229.015 309.578,230.185 309.578,230.900 309.489 C 231.615 309.401,231.030 309.328,229.600 309.328 C 228.170 309.328,227.585 309.401,228.300 309.489 M236.300 309.882 C 236.795 309.978,237.605 309.978,238.100 309.882 C 238.595 309.787,238.190 309.709,237.200 309.709 C 236.210 309.709,235.805 309.787,236.300 309.882 M148.800 310.818 C 148.362 311.115,148.524 311.152,149.400 310.956 C 150.871 310.627,151.190 310.398,150.167 310.406 C 149.745 310.409,149.130 310.595,148.800 310.818 M242.433 310.544 C 242.525 310.624,243.410 310.796,244.400 310.927 C 245.602 311.086,245.934 311.047,245.400 310.810 C 244.636 310.472,242.086 310.243,242.433 310.544 M246.900 311.476 C 247.285 311.576,247.915 311.576,248.300 311.476 C 248.685 311.375,248.370 311.293,247.600 311.293 C 246.830 311.293,246.515 311.375,246.900 311.476 M139.900 313.477 C 137.265 314.944,137.727 315.016,140.571 313.581 C 141.859 312.932,142.662 312.404,142.356 312.410 C 142.050 312.415,140.945 312.895,139.900 313.477 M253.100 312.682 C 253.595 312.778,254.405 312.778,254.900 312.682 C 255.395 312.587,254.990 312.509,254.000 312.509 C 253.010 312.509,252.605 312.587,253.100 312.682 M260.033 313.743 C 260.125 313.821,260.830 314.001,261.600 314.142 C 262.585 314.323,262.822 314.282,262.400 314.006 C 261.858 313.650,259.637 313.403,260.033 313.743 M133.400 316.436 C 132.300 316.875,130.320 317.612,129.000 318.074 C 124.333 319.705,109.544 327.159,110.908 327.192 C 111.077 327.197,111.887 326.783,112.708 326.274 C 116.633 323.838,124.639 320.171,133.000 316.978 C 134.540 316.390,135.875 315.839,135.967 315.754 C 136.347 315.402,135.277 315.687,133.400 316.436 M268.400 316.200 C 268.950 316.514,269.580 316.772,269.800 316.772 C 270.020 316.772,269.750 316.514,269.200 316.200 C 268.650 315.886,268.020 315.628,267.800 315.628 C 267.580 315.628,267.850 315.886,268.400 316.200 M270.883 317.016 C 271.278 317.412,275.345 318.788,275.541 318.593 C 275.647 318.487,275.656 318.400,275.561 318.400 C 275.466 318.400,274.404 318.040,273.200 317.600 C 270.892 316.756,270.532 316.666,270.883 317.016 M279.600 320.945 C 279.600 321.025,280.749 321.656,282.152 322.347 C 283.556 323.038,284.939 323.886,285.226 324.231 C 285.512 324.576,286.473 325.229,287.360 325.682 C 317.405 341.010,345.953 375.584,359.218 412.710 C 359.711 414.090,360.188 415.145,360.279 415.054 C 360.453 414.881,357.277 406.282,355.901 403.200 C 355.112 401.433,353.783 398.558,351.188 393.008 C 339.070 367.092,314.659 340.761,289.600 326.575 C 287.730 325.517,285.750 324.267,285.200 323.799 C 283.869 322.666,279.600 320.490,279.600 320.945 M106.651 329.401 C 79.893 346.202,59.732 370.347,45.198 403.000 C 43.637 406.507,40.277 415.611,40.472 415.806 C 40.560 415.893,41.134 414.578,41.747 412.883 C 54.494 377.636,77.863 347.840,107.100 329.556 C 110.001 327.741,110.732 327.200,110.279 327.200 C 110.212 327.200,108.580 328.191,106.651 329.401 M360.432 415.854 C 360.415 416.104,360.663 416.914,360.984 417.654 C 361.306 418.394,361.568 418.730,361.566 418.400 C 361.563 417.661,360.478 415.223,360.432 415.854 M39.844 416.843 C 39.747 417.149,39.383 418.287,39.034 419.371 C 38.039 422.464,38.351 422.511,39.427 419.430 C 39.959 417.907,40.310 416.577,40.207 416.473 C 40.103 416.370,39.940 416.536,39.844 416.843 M361.766 419.900 C 362.688 422.830,363.997 427.480,364.588 429.919 C 364.977 431.524,365.386 432.747,365.496 432.637 C 365.831 432.302,362.177 419.200,361.749 419.200 C 361.637 419.200,361.645 419.515,361.766 419.900 M37.594 424.060 C 37.342 425.017,36.725 427.330,36.223 429.200 C 34.907 434.104,34.244 437.177,34.456 437.389 C 34.558 437.491,34.877 436.455,35.167 435.087 C 35.456 433.719,36.309 430.372,37.061 427.648 C 37.814 424.925,38.345 422.612,38.241 422.508 C 38.138 422.404,37.846 423.102,37.594 424.060 M365.653 433.800 C 365.643 434.240,365.885 435.500,366.191 436.600 C 366.496 437.700,366.755 438.240,366.765 437.800 C 366.776 437.360,366.534 436.100,366.228 435.000 C 365.922 433.900,365.663 433.360,365.653 433.800 M33.800 439.200 C 33.648 439.891,33.614 440.547,33.724 440.657 C 33.834 440.767,34.048 440.291,34.200 439.600 C 34.352 438.909,34.386 438.253,34.276 438.143 C 34.166 438.033,33.952 438.509,33.800 439.200 M367.062 440.200 C 367.196 441.080,367.372 441.875,367.453 441.967 C 367.756 442.310,367.529 440.168,367.181 439.400 C 366.929 438.842,366.893 439.085,367.062 440.200 M32.822 444.222 C 32.529 445.872,32.378 447.311,32.487 447.420 C 32.595 447.528,32.916 446.259,33.200 444.600 C 33.484 442.941,33.635 441.502,33.536 441.402 C 33.436 441.303,33.115 442.572,32.822 444.222 M367.812 443.800 C 367.921 444.680,368.375 447.848,368.820 450.841 C 369.265 453.833,369.667 457.883,369.714 459.841 L 369.800 463.400 200.624 463.500 C 72.139 463.577,31.378 463.489,31.160 463.135 C 30.830 462.602,31.011 460.090,31.829 453.816 C 32.452 449.033,32.522 446.740,31.957 449.600 C 31.108 453.894,30.384 462.899,30.843 463.452 C 31.228 463.916,57.467 463.985,200.749 463.900 L 370.200 463.800 370.149 460.200 C 370.099 456.735,368.767 446.495,367.990 443.600 L 367.614 442.200 367.812 443.800 " stroke="none" fill="#53abe2" fill-rule="evenodd"></path><path id="path3" d="M292.887 0.535 C 292.386 0.814,292.116 1.196,292.287 1.385 C 292.459 1.574,292.382 1.603,292.115 1.450 C 291.532 1.115,288.400 4.119,288.400 5.013 C 288.400 5.349,288.130 5.729,287.800 5.855 C 287.454 5.988,287.200 6.586,287.200 7.266 C 287.200 7.916,287.028 8.341,286.818 8.211 C 286.579 8.064,286.427 13.501,286.410 22.788 C 286.392 32.625,286.520 37.600,286.791 37.600 C 287.016 37.600,287.200 38.056,287.200 38.613 C 287.200 39.169,287.470 39.729,287.800 39.855 C 288.130 39.982,288.400 40.336,288.400 40.643 C 288.400 40.949,288.130 41.200,287.800 41.200 C 287.470 41.200,287.200 41.010,287.200 40.777 C 287.200 40.112,284.699 38.000,283.911 38.000 C 283.520 38.000,283.200 37.730,283.200 37.400 C 283.200 37.070,282.930 36.800,282.600 36.800 C 282.270 36.800,282.000 36.620,282.000 36.400 C 282.000 36.180,281.730 36.000,281.400 36.000 C 281.070 36.000,280.800 35.730,280.800 35.400 C 280.800 35.070,280.465 34.800,280.056 34.800 C 279.647 34.800,278.974 34.350,278.561 33.800 C 278.148 33.250,277.583 32.800,277.305 32.800 C 277.027 32.800,276.800 32.623,276.800 32.408 C 276.800 32.192,276.350 31.902,275.800 31.764 C 275.250 31.626,274.800 31.353,274.800 31.157 C 274.800 30.960,274.549 30.800,274.243 30.800 C 273.936 30.800,273.582 30.530,273.455 30.200 C 273.329 29.870,272.949 29.600,272.613 29.600 C 272.276 29.600,271.633 29.233,271.185 28.785 C 270.737 28.337,270.197 28.078,269.985 28.209 C 269.773 28.340,269.600 28.257,269.600 28.024 C 269.600 27.791,269.349 27.600,269.043 27.600 C 268.736 27.600,268.382 27.330,268.255 27.000 C 268.129 26.670,267.659 26.400,267.213 26.400 C 266.766 26.400,266.400 26.220,266.400 26.000 C 266.400 25.780,266.034 25.600,265.587 25.600 C 265.141 25.600,264.671 25.330,264.545 25.000 C 264.418 24.670,264.060 24.400,263.749 24.400 C 263.438 24.400,262.471 23.950,261.600 23.400 C 260.729 22.850,259.642 22.400,259.184 22.400 C 258.725 22.400,258.465 22.219,258.603 21.995 C 258.742 21.770,258.305 21.481,257.618 21.344 C 256.939 21.208,256.286 20.940,256.168 20.748 C 256.050 20.557,255.533 20.400,255.019 20.400 C 254.506 20.400,253.982 20.130,253.855 19.800 C 253.729 19.470,253.169 19.200,252.613 19.200 C 252.056 19.200,251.600 19.034,251.600 18.832 C 251.600 18.629,251.062 18.345,250.405 18.201 C 249.747 18.057,249.106 17.772,248.981 17.569 C 248.855 17.366,248.238 17.200,247.610 17.200 C 246.981 17.200,246.392 16.976,246.300 16.701 C 246.189 16.367,244.956 16.157,242.567 16.065 C 240.605 15.989,238.829 15.763,238.620 15.563 C 238.411 15.363,237.575 15.200,236.763 15.200 C 235.819 15.200,235.202 14.983,235.055 14.600 C 234.911 14.223,234.299 14.000,233.413 14.000 C 232.636 14.000,232.000 13.836,232.000 13.635 C 232.000 13.298,228.980 12.555,228.300 12.725 C 228.135 12.766,228.000 12.620,228.000 12.400 C 228.000 12.177,226.924 12.000,225.571 12.000 C 223.946 12.000,222.944 11.802,222.543 11.400 C 222.135 10.992,221.126 10.800,219.395 10.800 C 217.994 10.800,216.736 10.620,216.600 10.400 C 216.261 9.852,182.139 9.852,181.800 10.400 C 181.664 10.620,180.093 10.800,178.308 10.800 C 175.789 10.800,174.884 10.957,174.263 11.500 C 173.683 12.007,173.553 12.035,173.790 11.600 C 174.056 11.112,174.017 11.094,173.579 11.500 C 173.282 11.775,172.356 12.000,171.520 12.000 C 170.684 12.000,170.000 12.157,170.000 12.349 C 170.000 12.541,169.280 12.813,168.400 12.954 C 167.520 13.094,166.800 13.387,166.800 13.605 C 166.800 13.825,165.646 14.000,164.200 14.000 C 162.156 14.000,161.600 14.128,161.600 14.600 C 161.600 14.973,161.222 15.200,160.600 15.200 C 160.050 15.200,159.600 15.380,159.600 15.600 C 159.600 15.829,158.381 16.000,156.744 16.000 C 154.509 16.000,153.763 16.152,153.314 16.700 C 152.963 17.128,152.853 17.167,153.029 16.800 C 153.263 16.313,153.216 16.294,152.779 16.700 C 152.482 16.975,151.826 17.200,151.320 17.200 C 150.814 17.200,150.400 17.372,150.400 17.582 C 150.400 17.792,149.768 18.082,148.996 18.227 C 148.223 18.372,147.493 18.650,147.372 18.845 C 147.251 19.040,146.713 19.200,146.176 19.200 C 145.575 19.200,145.200 19.431,145.200 19.800 C 145.200 20.169,144.825 20.400,144.224 20.400 C 143.687 20.400,143.136 20.580,143.000 20.800 C 142.864 21.020,142.425 21.200,142.025 21.200 C 141.625 21.200,141.074 21.470,140.800 21.800 C 140.526 22.130,140.051 22.400,139.743 22.400 C 139.436 22.400,138.471 22.850,137.600 23.400 C 136.729 23.950,135.762 24.400,135.451 24.400 C 135.140 24.400,134.782 24.670,134.655 25.000 C 134.529 25.330,134.185 25.600,133.892 25.600 C 132.875 25.600,131.201 26.603,131.387 27.100 C 131.632 27.753,130.929 27.753,130.665 27.100 C 130.504 26.700,130.457 26.700,130.432 27.100 C 130.414 27.375,130.130 27.600,129.800 27.600 C 129.470 27.600,129.200 27.780,129.200 28.000 C 129.200 28.220,128.932 28.400,128.603 28.400 C 128.275 28.400,127.491 28.940,126.860 29.600 C 126.229 30.260,125.522 30.800,125.289 30.800 C 124.684 30.800,122.406 32.142,122.403 32.500 C 122.401 32.665,122.130 32.800,121.800 32.800 C 121.470 32.800,121.200 32.980,121.200 33.200 C 121.200 33.420,120.930 33.600,120.600 33.600 C 120.270 33.600,120.000 33.870,120.000 34.200 C 120.000 34.536,119.643 34.800,119.187 34.800 C 118.741 34.800,118.271 35.070,118.145 35.400 C 118.018 35.730,117.741 36.000,117.529 36.000 C 117.010 36.000,116.000 37.038,116.000 37.571 C 116.000 37.807,115.616 38.000,115.146 38.000 C 114.676 38.000,113.875 38.450,113.365 39.000 C 112.855 39.550,112.250 40.000,112.019 40.000 C 111.789 40.000,111.600 40.193,111.600 40.429 C 111.600 40.962,110.590 42.000,110.071 42.000 C 109.859 42.000,109.582 42.270,109.455 42.600 C 109.329 42.930,108.994 43.203,108.713 43.206 C 108.046 43.215,105.600 45.373,105.600 45.953 C 105.600 46.199,105.424 46.400,105.209 46.400 C 104.674 46.400,100.400 50.643,100.400 51.174 C 100.400 51.408,100.207 51.600,99.971 51.600 C 99.418 51.600,98.400 52.618,98.400 53.171 C 98.400 53.407,98.206 53.600,97.969 53.600 C 97.514 53.600,95.200 55.763,95.200 56.188 C 95.200 56.326,94.789 56.835,94.286 57.319 C 93.783 57.804,92.750 59.010,91.991 60.000 C 91.232 60.990,90.392 62.029,90.124 62.310 C 88.721 63.779,86.800 66.340,86.800 66.741 C 86.800 66.994,86.661 67.200,86.491 67.200 C 86.321 67.200,85.826 67.875,85.391 68.700 C 84.956 69.525,84.273 70.560,83.873 71.000 C 83.472 71.440,83.044 72.301,82.920 72.914 C 82.796 73.527,82.379 74.197,81.995 74.403 C 81.172 74.843,79.513 78.000,80.104 78.000 C 80.326 78.000,80.034 78.373,79.454 78.829 C 78.874 79.285,78.400 79.994,78.400 80.405 C 78.400 80.816,78.220 81.264,78.000 81.400 C 77.780 81.536,77.600 81.977,77.600 82.381 C 77.600 82.784,77.330 83.218,77.000 83.345 C 76.670 83.471,76.400 83.919,76.400 84.338 C 76.400 84.758,76.130 85.326,75.800 85.600 C 75.470 85.874,75.200 86.425,75.200 86.825 C 75.200 87.225,75.020 87.664,74.800 87.800 C 74.580 87.936,74.400 88.487,74.400 89.024 C 74.400 89.625,74.169 90.000,73.800 90.000 C 73.427 90.000,73.200 90.378,73.200 91.000 C 73.200 91.550,72.975 92.003,72.700 92.006 C 72.367 92.010,72.400 92.142,72.800 92.400 C 73.200 92.658,73.233 92.790,72.900 92.794 C 72.612 92.797,72.400 93.310,72.400 94.000 C 72.400 94.800,72.200 95.200,71.800 95.200 C 71.460 95.200,71.200 95.559,71.200 96.029 C 71.200 96.484,70.930 97.127,70.600 97.457 C 70.270 97.787,70.000 98.584,70.000 99.229 C 70.000 99.873,69.820 100.400,69.600 100.400 C 69.380 100.400,69.200 101.011,69.200 101.757 C 69.200 102.595,68.970 103.203,68.600 103.345 C 68.223 103.489,68.000 104.101,68.000 104.987 C 68.000 105.764,67.820 106.400,67.600 106.400 C 67.380 106.400,67.200 107.120,67.200 108.000 C 67.200 109.156,67.033 109.600,66.600 109.600 C 66.154 109.600,66.000 110.070,66.000 111.429 C 66.000 112.521,65.758 113.499,65.400 113.857 C 65.047 114.210,64.800 115.187,64.800 116.229 C 64.800 117.203,64.620 118.000,64.400 118.000 C 64.177 118.000,64.000 119.076,64.000 120.429 C 64.000 122.054,63.802 123.056,63.400 123.457 C 62.968 123.889,62.800 124.940,62.800 127.205 C 62.800 128.936,62.620 130.464,62.400 130.600 C 62.144 130.758,62.000 136.663,62.000 147.000 C 62.000 157.337,62.144 163.242,62.400 163.400 C 62.620 163.536,62.800 165.172,62.800 167.036 C 62.800 169.680,62.932 170.476,63.400 170.655 C 63.847 170.827,64.000 171.539,64.000 173.443 C 64.000 174.881,64.175 176.000,64.400 176.000 C 64.620 176.000,64.800 176.816,64.800 177.813 C 64.800 179.055,64.989 179.698,65.400 179.855 C 65.821 180.017,66.000 180.673,66.000 182.055 C 66.000 183.437,66.179 184.094,66.600 184.255 C 67.006 184.411,67.200 185.047,67.200 186.219 C 67.200 187.173,67.380 188.064,67.600 188.200 C 67.820 188.336,68.000 188.996,68.000 189.666 C 68.000 190.477,68.167 190.821,68.500 190.694 C 68.840 190.564,69.037 191.029,69.117 192.148 C 69.181 193.053,69.406 193.966,69.617 194.177 C 69.828 194.388,70.000 194.980,70.000 195.493 C 70.000 196.005,70.270 196.529,70.600 196.655 C 70.970 196.797,71.200 197.405,71.200 198.243 C 71.200 199.183,71.385 199.600,71.800 199.600 C 72.200 199.600,72.400 200.000,72.400 200.800 C 72.400 201.460,72.580 202.000,72.800 202.000 C 73.020 202.000,73.200 202.431,73.200 202.957 C 73.200 203.484,73.470 204.018,73.800 204.145 C 74.151 204.279,74.400 204.879,74.400 205.587 C 74.400 206.254,74.559 206.800,74.753 206.800 C 74.948 206.800,75.206 207.178,75.326 207.640 C 75.447 208.102,75.700 208.386,75.887 208.270 C 76.075 208.154,76.252 208.361,76.281 208.729 C 76.392 210.139,76.687 210.962,77.135 211.112 C 77.391 211.197,77.600 211.522,77.600 211.833 C 77.600 212.145,77.825 212.403,78.100 212.406 C 78.433 212.410,78.400 212.542,78.000 212.800 C 77.670 213.013,77.605 213.191,77.857 213.194 C 78.108 213.197,78.426 213.650,78.564 214.200 C 78.702 214.750,78.992 215.200,79.208 215.200 C 79.423 215.200,79.600 215.498,79.600 215.862 C 79.600 216.226,80.050 217.114,80.600 217.836 C 81.150 218.557,81.600 219.429,81.600 219.773 C 81.600 220.118,81.870 220.400,82.200 220.400 C 82.530 220.400,82.800 220.734,82.800 221.142 C 82.800 221.549,83.250 222.369,83.800 222.962 C 84.350 223.556,84.803 224.257,84.808 224.521 C 84.812 224.784,85.450 225.720,86.226 226.600 C 87.002 227.480,87.919 228.785,88.264 229.500 C 88.609 230.215,89.141 230.800,89.446 230.800 C 89.751 230.800,90.000 231.070,90.000 231.400 C 90.000 231.730,90.168 232.000,90.373 232.000 C 90.578 232.000,90.859 232.356,90.997 232.790 C 91.135 233.225,91.867 234.218,92.624 234.997 C 93.381 235.777,94.000 236.591,94.000 236.807 C 94.000 237.023,94.231 237.200,94.514 237.200 C 94.796 237.200,95.343 237.734,95.728 238.387 C 96.565 239.803,107.567 250.967,107.848 250.685 C 107.956 250.578,108.851 251.286,109.838 252.258 C 110.825 253.231,111.793 253.928,111.989 253.807 C 112.184 253.686,112.475 253.798,112.634 254.055 C 112.815 254.348,112.750 254.416,112.462 254.238 C 112.208 254.081,112.000 254.143,112.000 254.376 C 112.000 254.609,112.339 254.800,112.754 254.800 C 113.169 254.800,113.803 255.250,114.163 255.800 C 114.524 256.350,114.994 256.800,115.209 256.800 C 115.424 256.800,115.967 257.167,116.415 257.615 C 116.863 258.063,117.448 258.304,117.715 258.150 C 117.982 257.997,118.071 258.014,117.914 258.189 C 117.648 258.483,119.211 260.000,119.780 260.000 C 119.919 260.000,120.431 260.377,120.917 260.838 C 121.403 261.300,122.160 261.839,122.600 262.037 C 123.462 262.426,124.876 263.276,125.200 263.600 C 125.310 263.710,126.030 264.150,126.800 264.578 C 127.570 265.005,128.438 265.590,128.729 265.878 C 129.019 266.165,129.514 266.400,129.829 266.400 C 130.143 266.400,130.400 266.580,130.400 266.800 C 130.400 267.020,130.850 267.200,131.400 267.200 C 132.022 267.200,132.400 267.427,132.400 267.800 C 132.400 268.130,132.749 268.400,133.176 268.400 C 133.603 268.400,134.064 268.580,134.200 268.800 C 134.336 269.020,134.892 269.200,135.436 269.200 C 135.980 269.200,136.522 269.452,136.640 269.761 C 136.759 270.069,137.158 270.424,137.528 270.549 C 137.897 270.674,138.470 270.934,138.800 271.126 C 140.401 272.059,141.257 272.400,141.995 272.400 C 142.444 272.400,142.800 272.665,142.800 273.000 C 142.800 273.373,143.178 273.600,143.800 273.600 C 144.350 273.600,144.800 273.780,144.800 274.000 C 144.800 274.220,145.321 274.400,145.957 274.400 C 146.617 274.400,147.213 274.658,147.345 275.000 C 147.471 275.330,148.056 275.600,148.643 275.600 C 149.231 275.600,149.912 275.866,150.156 276.192 C 150.400 276.517,151.185 276.825,151.900 276.877 C 152.615 276.928,153.200 277.112,153.200 277.285 C 153.200 277.458,153.721 277.600,154.357 277.600 C 155.017 277.600,155.613 277.858,155.745 278.200 C 155.933 278.692,155.545 278.800,153.587 278.800 C 152.274 278.800,151.200 278.941,151.200 279.114 C 151.200 279.476,150.798 279.547,147.098 279.849 C 145.611 279.970,144.497 280.233,144.621 280.434 C 144.747 280.638,143.896 280.800,142.700 280.800 C 141.431 280.800,140.235 281.040,139.776 281.387 C 139.349 281.710,138.323 281.980,137.495 281.987 C 136.667 281.994,135.677 282.170,135.295 282.378 C 134.913 282.586,133.925 282.864,133.100 282.996 C 132.275 283.128,131.600 283.408,131.600 283.618 C 131.600 283.828,131.004 284.000,130.276 284.000 C 129.549 284.000,128.604 284.264,128.176 284.587 C 127.749 284.910,126.916 285.180,126.324 285.187 C 125.732 285.194,125.136 285.380,125.000 285.600 C 124.864 285.820,124.348 286.000,123.853 286.000 C 123.358 286.000,122.604 286.264,122.176 286.587 C 121.749 286.910,121.083 287.180,120.695 287.187 C 119.985 287.200,119.713 287.307,117.268 288.532 C 116.535 288.900,115.680 289.200,115.368 289.200 C 115.055 289.200,114.800 289.391,114.800 289.624 C 114.800 289.857,114.632 289.944,114.428 289.817 C 114.223 289.691,113.942 289.770,113.804 289.993 C 113.666 290.217,113.158 290.413,112.676 290.429 C 112.194 290.445,111.260 290.803,110.600 291.225 C 109.940 291.646,109.130 292.104,108.800 292.243 C 105.149 293.773,95.601 298.878,95.797 299.195 C 95.878 299.326,95.605 299.459,95.191 299.491 C 94.776 299.522,93.446 300.279,92.236 301.174 C 91.025 302.068,89.908 302.800,89.755 302.800 C 89.601 302.800,88.886 303.250,88.164 303.800 C 87.443 304.350,86.744 304.800,86.609 304.800 C 86.475 304.800,85.880 305.250,85.287 305.800 C 84.693 306.350,83.990 306.800,83.724 306.800 C 83.458 306.800,83.096 307.031,82.920 307.313 C 82.744 307.596,81.837 308.378,80.905 309.052 C 79.973 309.725,79.343 310.423,79.505 310.602 C 79.667 310.782,79.602 310.816,79.361 310.678 C 79.119 310.540,78.541 310.781,78.077 311.214 C 77.613 311.646,77.080 312.000,76.893 312.000 C 76.706 312.000,75.933 312.716,75.176 313.591 C 74.419 314.466,73.604 315.186,73.365 315.191 C 73.126 315.196,72.007 316.100,70.877 317.200 C 69.748 318.300,68.731 319.200,68.617 319.200 C 68.503 319.200,67.733 319.920,66.905 320.799 C 66.077 321.679,65.247 322.399,65.061 322.399 C 63.977 322.401,48.400 339.259,48.400 340.430 C 48.400 340.707,48.286 340.819,48.147 340.680 C 47.910 340.444,46.400 342.060,46.400 342.549 C 46.400 342.672,45.905 343.308,45.300 343.964 C 43.618 345.785,41.200 349.076,41.200 349.543 C 41.200 349.773,40.973 350.104,40.696 350.280 C 40.419 350.456,39.838 351.275,39.405 352.100 C 38.972 352.925,38.479 353.600,38.309 353.600 C 38.139 353.600,38.000 353.855,38.000 354.167 C 38.000 354.478,37.857 354.793,37.683 354.867 C 37.509 354.940,36.954 355.675,36.450 356.500 C 35.947 357.325,35.369 358.000,35.167 358.000 C 34.965 358.000,34.800 358.255,34.800 358.568 C 34.800 359.365,33.569 361.572,32.500 362.693 C 32.005 363.212,31.600 363.898,31.600 364.218 C 31.600 364.538,31.420 364.800,31.200 364.800 C 30.980 364.800,30.800 365.051,30.800 365.357 C 30.800 365.664,30.530 366.018,30.200 366.145 C 29.870 366.271,29.600 366.741,29.600 367.187 C 29.600 367.634,29.420 368.000,29.200 368.000 C 28.980 368.000,28.800 368.338,28.800 368.751 C 28.800 369.164,28.530 369.726,28.200 370.000 C 27.870 370.274,27.600 370.926,27.600 371.449 C 27.600 372.028,27.365 372.400,27.000 372.400 C 26.670 372.400,26.400 372.672,26.400 373.005 C 26.400 373.772,25.555 375.301,24.900 375.720 C 24.625 375.896,24.400 376.391,24.400 376.820 C 24.400 377.249,24.220 377.600,24.000 377.600 C 23.780 377.600,23.600 377.938,23.600 378.351 C 23.600 378.764,23.330 379.326,23.000 379.600 C 22.670 379.874,22.400 380.436,22.400 380.849 C 22.400 381.262,22.234 381.600,22.032 381.600 C 21.829 381.600,21.545 382.138,21.401 382.795 C 21.257 383.453,20.972 384.094,20.769 384.219 C 20.566 384.345,20.400 384.892,20.400 385.436 C 20.400 385.980,20.130 386.529,19.800 386.655 C 19.470 386.782,19.200 387.316,19.200 387.843 C 19.200 388.369,19.020 388.800,18.800 388.800 C 18.580 388.800,18.400 389.138,18.400 389.551 C 18.400 389.964,18.130 390.526,17.800 390.800 C 17.470 391.074,17.200 391.726,17.200 392.249 C 17.200 392.772,17.038 393.200,16.839 393.200 C 16.396 393.200,15.575 395.441,15.899 395.766 C 16.028 395.895,15.923 396.000,15.667 396.000 C 15.410 396.000,15.200 396.249,15.200 396.554 C 15.200 396.859,14.931 397.624,14.602 398.254 C 14.274 398.884,14.004 399.704,14.002 400.076 C 14.001 400.448,13.820 400.864,13.600 401.000 C 13.380 401.136,13.200 401.937,13.200 402.781 C 13.200 403.775,12.989 404.395,12.600 404.545 C 12.270 404.671,12.000 405.216,12.000 405.755 C 12.000 406.294,11.700 407.335,11.332 408.068 C 10.084 410.558,10.000 410.789,10.000 411.715 C 10.000 412.224,9.775 412.882,9.500 413.179 C 9.094 413.617,9.112 413.656,9.600 413.390 C 10.035 413.153,10.007 413.283,9.500 413.863 C 9.115 414.303,8.800 414.976,8.800 415.358 C 8.800 415.740,8.608 416.412,8.372 416.852 C 8.054 417.446,8.080 417.819,8.472 418.302 C 8.857 418.777,8.865 418.872,8.500 418.653 C 8.149 418.442,8.000 418.675,8.000 419.432 C 8.000 420.026,7.734 420.712,7.408 420.956 C 7.083 421.200,6.776 421.973,6.725 422.672 C 6.675 423.372,6.510 423.868,6.359 423.775 C 5.956 423.526,5.600 424.669,5.600 426.209 C 5.600 426.948,5.420 427.664,5.200 427.800 C 4.980 427.936,4.800 429.027,4.800 430.224 C 4.800 431.892,4.660 432.400,4.200 432.400 C 3.739 432.400,3.600 432.911,3.600 434.600 C 3.600 435.810,3.420 436.800,3.200 436.800 C 2.979 436.800,2.800 437.840,2.800 439.120 C 2.800 440.422,2.581 441.676,2.300 441.979 C 1.894 442.416,1.913 442.463,2.400 442.229 C 2.767 442.053,2.728 442.163,2.300 442.514 C 1.864 442.871,1.600 443.643,1.600 444.558 C 1.600 445.367,1.285 446.510,0.900 447.099 C -0.115 448.650,-0.058 477.631,0.962 478.758 C 1.313 479.146,1.600 479.739,1.600 480.075 C 1.600 480.412,2.050 481.026,2.600 481.439 C 3.150 481.852,3.600 482.513,3.600 482.907 C 3.600 483.302,3.870 483.729,4.200 483.855 C 4.530 483.982,4.800 484.336,4.800 484.643 C 4.800 484.949,5.076 485.200,5.413 485.200 C 5.749 485.200,6.129 485.470,6.255 485.800 C 6.382 486.130,6.724 486.400,7.016 486.400 C 7.307 486.400,7.670 486.791,7.822 487.269 C 7.974 487.747,8.402 488.465,8.773 488.863 C 9.339 489.470,301.086 490.036,391.900 489.606 C 392.786 489.602,393.200 489.409,393.200 489.000 C 393.200 488.627,393.578 488.400,394.200 488.400 C 394.785 488.400,395.200 488.170,395.200 487.847 C 395.200 487.542,395.573 487.196,396.030 487.076 C 396.486 486.957,396.957 486.486,397.076 486.030 C 397.196 485.573,397.542 485.200,397.847 485.200 C 398.151 485.200,398.400 484.834,398.400 484.386 C 398.400 483.938,398.711 483.097,399.092 482.516 C 400.416 480.495,400.296 451.953,398.958 450.615 C 398.593 450.250,398.395 449.112,398.386 447.329 C 398.377 445.722,398.137 444.189,397.800 443.600 C 397.486 443.050,397.222 441.756,397.214 440.724 C 397.206 439.692,397.020 438.736,396.800 438.600 C 396.580 438.464,396.400 437.408,396.400 436.253 C 396.400 435.026,396.156 433.830,395.813 433.376 C 395.475 432.930,395.220 431.709,395.213 430.500 C 395.206 429.345,395.043 428.400,394.852 428.400 C 394.661 428.400,394.408 427.551,394.291 426.513 C 394.174 425.475,393.881 424.560,393.639 424.480 C 393.370 424.390,393.200 423.111,393.200 421.167 C 393.200 419.425,393.059 418.000,392.886 418.000 C 392.713 418.000,392.534 417.685,392.489 417.300 C 392.166 414.559,391.866 413.164,391.558 412.974 C 391.361 412.852,391.200 412.333,391.200 411.819 C 391.200 411.306,390.930 410.782,390.600 410.655 C 390.226 410.512,390.000 409.902,390.000 409.036 C 390.000 408.272,389.820 407.536,389.600 407.400 C 389.380 407.264,389.200 406.726,389.200 406.205 C 389.200 405.684,388.930 404.987,388.600 404.657 C 388.270 404.327,387.994 403.549,387.987 402.929 C 387.980 402.308,387.710 401.451,387.387 401.024 C 387.064 400.596,386.800 399.973,386.800 399.637 C 386.800 398.708,385.534 395.594,385.232 395.780 C 385.086 395.871,384.923 395.379,384.870 394.688 C 384.818 393.997,384.628 393.334,384.449 393.216 C 384.270 393.097,384.002 392.505,383.854 391.900 C 383.706 391.295,383.408 390.800,383.192 390.800 C 382.977 390.800,382.800 390.369,382.800 389.843 C 382.800 389.316,382.530 388.782,382.200 388.655 C 381.870 388.529,381.600 388.070,381.600 387.636 C 381.600 387.202,381.420 386.736,381.200 386.600 C 380.980 386.464,380.800 386.023,380.800 385.619 C 380.800 385.216,380.530 384.782,380.200 384.655 C 379.870 384.529,379.600 384.030,379.600 383.547 C 379.600 382.484,378.374 379.600,377.923 379.600 C 377.745 379.600,377.600 379.169,377.600 378.643 C 377.600 378.116,377.330 377.582,377.000 377.455 C 376.670 377.329,376.400 376.859,376.400 376.413 C 376.400 375.966,376.263 375.600,376.095 375.600 C 375.789 375.600,375.067 374.415,374.571 373.100 C 374.426 372.715,374.148 372.400,373.953 372.400 C 373.759 372.400,373.600 372.062,373.600 371.649 C 373.600 371.236,373.330 370.674,373.000 370.400 C 372.670 370.126,372.400 369.637,372.400 369.314 C 372.400 368.557,370.985 366.748,370.653 367.080 C 370.514 367.219,370.400 367.123,370.400 366.867 C 370.400 366.610,370.606 366.400,370.858 366.400 C 371.111 366.400,370.841 365.959,370.258 365.419 C 369.676 364.880,369.194 364.205,369.187 363.919 C 369.170 363.203,368.210 362.000,367.656 362.000 C 367.405 362.000,367.200 361.572,367.200 361.049 C 367.200 360.526,366.930 359.874,366.600 359.600 C 366.270 359.326,366.000 358.916,366.000 358.689 C 366.000 358.461,365.550 357.686,365.000 356.964 C 364.450 356.243,364.000 355.461,364.000 355.227 C 364.000 354.992,363.820 354.800,363.600 354.800 C 363.380 354.800,363.200 354.530,363.200 354.200 C 363.200 353.870,362.930 353.600,362.600 353.600 C 362.270 353.600,362.000 353.249,362.000 352.820 C 362.000 352.391,361.773 351.896,361.496 351.720 C 361.219 351.544,360.638 350.725,360.205 349.900 C 359.772 349.075,359.279 348.400,359.109 348.400 C 358.939 348.400,358.800 348.140,358.800 347.823 C 358.800 347.505,358.482 347.010,358.093 346.723 C 357.704 346.435,357.096 345.750,356.742 345.200 C 356.388 344.650,355.539 343.570,354.855 342.800 C 354.172 342.030,353.610 341.254,353.606 341.076 C 353.603 340.898,353.392 340.881,353.138 341.038 C 352.877 341.200,352.784 341.149,352.924 340.922 C 353.061 340.702,352.819 340.141,352.386 339.677 C 351.954 339.213,351.600 338.673,351.600 338.478 C 351.600 338.282,350.475 337.059,349.100 335.761 C 347.725 334.462,346.506 333.170,346.391 332.890 C 346.088 332.149,337.574 323.600,337.139 323.600 C 336.938 323.600,335.678 322.430,334.340 321.000 C 333.003 319.570,331.659 318.400,331.354 318.400 C 331.049 318.400,330.800 318.130,330.800 317.800 C 330.800 317.470,330.611 317.200,330.381 317.200 C 330.150 317.200,329.545 316.750,329.035 316.200 C 328.525 315.650,327.944 315.200,327.743 315.200 C 327.542 315.200,327.106 314.885,326.773 314.500 C 325.804 313.378,322.531 310.683,322.149 310.693 C 321.957 310.697,321.404 310.273,320.919 309.751 C 320.435 309.228,319.865 308.800,319.652 308.800 C 319.440 308.800,319.207 308.654,319.133 308.476 C 318.946 308.022,314.747 304.969,313.900 304.671 C 313.515 304.536,313.200 304.239,313.200 304.013 C 313.200 303.786,312.816 303.600,312.346 303.600 C 311.876 303.600,311.064 303.139,310.542 302.575 C 310.019 302.011,309.246 301.524,308.823 301.492 C 308.401 301.460,308.136 301.304,308.234 301.146 C 308.331 300.987,308.004 300.718,307.506 300.548 C 306.652 300.257,306.434 300.195,305.700 300.034 C 305.535 299.998,305.940 299.732,306.600 299.442 C 307.618 298.995,308.769 298.157,311.883 295.597 C 312.149 295.379,312.554 295.200,312.783 295.200 C 313.012 295.200,313.200 295.032,313.200 294.827 C 313.200 294.622,313.563 294.339,314.006 294.198 C 314.449 294.057,314.691 293.748,314.544 293.509 C 314.391 293.263,314.462 293.191,314.707 293.343 C 315.187 293.639,320.400 288.697,320.400 287.945 C 320.400 287.682,320.508 287.575,320.640 287.707 C 320.896 287.963,325.600 282.849,325.600 282.315 C 325.600 282.142,325.967 281.633,326.415 281.185 C 326.863 280.737,327.105 280.170,326.953 279.924 C 326.801 279.678,326.852 279.585,327.067 279.718 C 327.521 279.998,330.800 275.184,330.800 274.237 C 330.800 273.887,330.967 273.600,331.171 273.600 C 331.697 273.600,332.800 271.256,332.800 270.139 C 332.800 269.571,333.037 269.200,333.400 269.200 C 333.803 269.200,334.000 268.797,334.000 267.976 C 334.000 267.303,334.165 266.855,334.367 266.980 C 334.570 267.105,334.862 266.626,335.018 265.917 C 335.174 265.207,335.444 264.350,335.617 264.013 C 336.437 262.419,337.200 260.420,337.200 259.863 C 337.200 259.524,337.380 259.136,337.600 259.000 C 337.820 258.864,338.000 258.234,338.000 257.600 C 338.000 256.966,338.200 256.324,338.444 256.173 C 338.705 256.012,338.797 255.338,338.668 254.540 C 338.547 253.793,338.599 253.276,338.785 253.391 C 339.986 254.133,340.999 214.810,339.923 209.196 C 339.667 207.859,338.865 206.400,338.386 206.400 C 338.174 206.400,338.000 206.130,338.000 205.800 C 338.000 205.470,337.789 205.200,337.531 205.200 C 337.274 205.200,336.726 204.895,336.315 204.523 C 335.604 203.880,335.504 203.919,334.284 205.326 C 333.394 206.351,332.669 206.804,331.922 206.803 C 331.330 206.801,330.340 207.234,329.722 207.765 L 328.600 208.730 328.324 226.665 C 328.003 247.574,327.714 250.469,325.179 258.200 C 319.875 274.376,305.963 288.664,290.367 293.953 C 280.015 297.463,282.384 297.278,248.400 297.222 C 215.450 297.168,211.734 296.976,207.602 295.114 C 199.055 291.263,193.947 283.053,192.984 271.616 C 192.248 262.882,192.106 263.008,202.307 263.267 C 209.017 263.437,208.862 263.306,209.181 269.086 C 209.516 275.168,211.401 278.235,215.600 279.531 C 220.557 281.060,268.209 281.225,277.200 279.744 C 287.829 277.993,299.088 271.249,303.819 263.800 C 304.239 263.140,304.676 262.510,304.791 262.400 C 305.660 261.569,308.870 255.122,309.770 252.399 C 311.342 247.644,311.645 245.060,311.923 234.000 L 312.200 223.000 315.188 217.800 C 319.871 209.652,322.430 204.423,325.563 196.600 C 327.514 191.727,328.101 191.266,330.654 192.598 C 331.284 192.926,332.160 193.197,332.600 193.200 C 333.059 193.203,333.798 193.790,334.334 194.577 C 335.408 196.154,335.954 196.099,337.827 194.227 C 339.074 192.979,339.508 192.189,339.930 190.400 C 340.060 189.850,340.221 157.315,340.288 118.100 L 340.411 46.800 341.982 46.800 C 342.846 46.800,343.664 46.620,343.800 46.400 C 343.936 46.180,344.497 46.000,345.047 46.000 C 345.701 46.000,345.948 45.840,345.762 45.538 C 345.587 45.255,345.652 45.185,345.930 45.357 C 346.552 45.741,348.087 44.865,347.749 44.318 C 347.586 44.054,347.659 43.989,347.930 44.157 C 348.530 44.527,352.127 40.930,351.757 40.330 C 351.584 40.050,351.655 39.987,351.943 40.165 C 352.246 40.352,352.496 40.022,352.655 39.227 C 352.790 38.552,353.058 38.000,353.250 38.000 C 353.753 38.000,353.703 7.711,353.200 7.400 C 352.980 7.264,352.800 6.803,352.800 6.376 C 352.800 5.680,349.953 2.533,347.665 0.700 C 346.525 -0.213,294.517 -0.370,292.887 0.535 M341.528 11.356 C 341.872 11.568,342.000 14.623,342.000 22.614 L 342.000 33.582 341.054 34.201 C 339.538 35.195,299.367 34.917,298.629 33.908 C 297.817 32.797,297.462 13.293,298.232 12.105 L 298.813 11.209 314.906 11.075 C 334.646 10.911,340.916 10.977,341.528 11.356 M212.949 40.789 C 213.175 41.015,214.410 41.200,215.693 41.200 C 216.976 41.200,218.672 41.470,219.462 41.800 C 220.251 42.130,221.585 42.400,222.425 42.400 C 223.265 42.400,224.052 42.561,224.174 42.758 C 224.295 42.955,225.071 43.200,225.897 43.304 C 226.724 43.407,227.940 43.682,228.600 43.913 C 229.260 44.145,230.790 44.634,232.000 45.001 C 233.210 45.368,234.560 45.811,235.000 45.986 C 235.440 46.161,236.610 46.617,237.600 47.000 C 240.313 48.049,240.798 48.248,243.400 49.379 C 256.566 55.104,273.600 67.427,273.600 71.226 C 273.600 73.276,272.352 73.623,269.400 72.394 C 268.960 72.211,267.520 71.767,266.200 71.409 C 264.880 71.050,263.170 70.558,262.400 70.316 C 257.389 68.741,247.931 68.373,215.388 68.490 C 186.231 68.595,184.847 68.633,184.057 69.348 C 182.038 71.176,182.259 74.810,184.466 76.068 C 185.213 76.493,192.134 76.651,219.000 76.853 C 252.404 77.104,256.877 77.288,261.200 78.592 C 262.410 78.957,263.996 79.407,264.724 79.591 C 274.638 82.103,288.926 91.485,294.589 99.200 C 296.425 101.702,300.400 109.749,300.400 110.965 C 300.400 111.264,300.669 112.024,300.998 112.654 C 301.326 113.284,301.596 114.104,301.598 114.476 C 301.599 114.848,301.780 115.264,302.000 115.400 C 302.220 115.536,302.400 116.098,302.400 116.650 C 302.400 117.201,302.585 117.998,302.811 118.421 C 304.041 120.720,305.761 131.087,306.471 140.493 C 308.493 167.245,301.355 185.402,283.600 198.674 C 266.190 211.689,237.610 213.847,226.012 203.024 C 209.419 187.540,186.580 186.877,171.206 201.433 C 166.523 205.867,163.395 207.073,154.000 208.067 C 129.475 210.662,104.931 195.923,96.022 173.250 C 92.591 164.520,91.263 143.528,93.373 131.400 C 93.756 129.200,94.204 126.590,94.369 125.600 C 94.533 124.610,94.892 122.990,95.166 122.000 C 95.439 121.010,95.859 119.480,96.098 118.600 C 97.571 113.174,99.725 107.373,101.965 102.800 C 107.290 91.927,118.424 83.589,133.769 78.981 C 138.672 77.508,142.024 77.175,155.059 76.867 C 167.583 76.570,167.478 76.595,168.424 73.728 C 168.944 72.152,168.470 70.550,167.122 69.329 C 166.407 68.681,165.379 68.587,157.859 68.480 C 144.657 68.293,135.934 69.177,130.470 71.256 C 129.286 71.707,128.599 71.324,129.230 70.564 C 129.590 70.130,129.576 69.853,129.170 69.364 C 128.689 68.785,128.597 68.789,128.140 69.414 C 127.628 70.114,126.400 69.971,126.400 69.212 C 126.400 68.669,129.196 66.006,132.200 63.689 C 133.520 62.670,134.690 61.723,134.800 61.584 C 136.358 59.611,156.017 48.400,157.918 48.400 C 158.101 48.400,159.183 47.950,160.323 47.400 C 161.463 46.850,162.746 46.400,163.174 46.400 C 163.603 46.400,164.064 46.220,164.200 46.000 C 164.336 45.780,164.752 45.599,165.124 45.598 C 165.496 45.596,166.316 45.326,166.946 44.998 C 167.576 44.669,168.575 44.400,169.166 44.400 C 169.757 44.400,170.418 44.222,170.636 44.004 C 171.044 43.596,173.426 43.008,177.077 42.413 C 178.220 42.227,179.380 41.936,179.655 41.766 C 180.149 41.461,182.970 41.078,189.600 40.416 C 194.145 39.963,212.414 40.254,212.949 40.789 M326.651 43.439 C 328.361 43.898,328.400 44.498,328.400 70.039 C 328.400 96.490,328.358 97.029,326.318 96.725 C 325.353 96.581,325.348 96.572,323.173 91.800 C 320.487 85.906,317.487 80.131,315.307 76.660 C 314.775 75.813,313.858 74.283,313.270 73.260 L 312.200 71.400 312.074 58.630 C 311.938 44.775,311.990 44.140,313.312 43.608 C 314.290 43.214,325.294 43.075,326.651 43.439 M294.200 45.600 C 294.060 45.826,294.388 46.000,294.953 46.000 C 295.503 46.000,296.064 46.180,296.200 46.400 C 296.336 46.620,297.427 46.800,298.624 46.800 L 300.800 46.800 300.800 49.600 C 300.800 51.324,300.635 52.400,300.371 52.400 C 299.818 52.400,298.800 51.382,298.800 50.829 C 298.800 50.593,298.530 50.400,298.200 50.400 C 297.870 50.400,297.600 50.160,297.600 49.868 C 297.600 49.575,297.150 49.094,296.600 48.800 C 296.050 48.506,295.600 48.025,295.600 47.732 C 295.600 47.440,295.396 47.200,295.147 47.200 C 294.752 47.200,293.200 45.717,293.200 45.339 C 293.200 45.262,293.481 45.200,293.824 45.200 C 294.167 45.200,294.336 45.380,294.200 45.600 M146.800 89.631 C 144.270 89.809,141.390 90.131,140.400 90.346 C 137.765 90.918,135.113 91.622,134.200 91.993 C 133.760 92.171,132.444 92.706,131.275 93.181 C 113.656 100.337,101.897 118.007,101.048 138.600 C 100.726 146.403,101.917 156.638,103.608 160.600 C 103.796 161.040,104.070 161.850,104.218 162.400 C 105.928 168.778,114.317 181.313,119.521 185.266 C 120.774 186.219,121.890 187.094,122.000 187.212 C 122.534 187.784,126.464 190.051,128.600 191.020 C 129.920 191.618,131.272 192.239,131.605 192.398 C 134.872 193.964,144.436 195.742,149.200 195.668 C 157.098 195.546,160.362 194.554,164.000 191.172 C 175.415 180.557,195.397 175.617,209.800 179.849 C 213.802 181.025,215.808 181.719,216.180 182.056 C 216.389 182.245,216.781 182.400,217.052 182.400 C 218.634 182.400,227.691 187.585,230.400 190.041 C 230.950 190.540,232.230 191.708,233.243 192.637 C 238.326 197.294,252.539 198.808,262.200 195.721 C 279.223 190.281,294.239 172.849,296.998 155.325 C 297.870 149.789,289.340 147.741,288.147 153.200 C 285.417 165.681,275.923 178.951,265.600 184.714 C 257.555 189.206,243.479 189.106,238.251 184.520 C 215.465 164.536,181.427 164.079,158.591 183.452 C 155.123 186.394,150.518 187.124,142.622 185.983 C 122.846 183.125,108.001 160.904,110.390 137.736 C 110.652 135.193,111.121 132.390,111.433 131.506 C 111.745 130.622,112.000 129.567,112.000 129.160 C 112.000 128.457,113.709 123.809,115.073 120.800 C 119.451 111.147,128.403 103.458,139.400 99.905 L 142.200 99.000 198.000 99.000 L 253.800 99.000 257.589 100.131 C 272.639 104.624,283.148 115.192,287.799 130.511 C 289.280 135.390,289.632 135.836,292.320 136.239 C 296.645 136.887,298.419 134.074,296.972 128.862 C 293.002 114.562,285.508 104.625,272.575 96.514 C 268.667 94.063,262.487 91.709,255.400 89.973 C 253.041 89.395,154.540 89.085,146.800 89.631 M189.800 118.859 C 187.657 120.023,164.774 143.433,164.388 144.857 C 163.233 149.112,167.755 152.688,171.445 150.438 C 173.693 149.067,195.586 126.931,196.239 125.368 C 197.911 121.366,193.463 116.869,189.800 118.859 M228.200 119.057 C 226.710 119.833,204.162 142.197,203.374 143.680 C 201.040 148.075,205.529 152.707,209.916 150.430 C 212.659 149.006,234.698 126.436,235.009 124.731 C 235.817 120.310,231.963 117.098,228.200 119.057 M36.945 196.200 C 36.818 196.530,36.360 196.800,35.926 196.800 C 35.096 196.800,32.800 198.834,32.800 199.569 C 32.800 199.806,32.607 200.000,32.371 200.000 C 31.679 200.000,30.800 201.079,30.800 201.929 C 30.800 202.361,30.530 202.818,30.200 202.945 C 29.722 203.128,29.600 203.990,29.600 207.187 C 29.600 210.487,29.707 211.200,30.200 211.200 C 30.573 211.200,30.800 211.578,30.800 212.200 C 30.800 212.750,30.980 213.200,31.200 213.200 C 31.420 213.200,31.600 213.470,31.600 213.800 C 31.600 214.130,31.840 214.400,32.132 214.400 C 32.425 214.400,32.906 214.850,33.200 215.400 C 33.494 215.950,33.975 216.400,34.268 216.400 C 34.560 216.400,34.800 216.670,34.800 217.000 C 34.800 217.373,35.178 217.600,35.800 217.600 C 36.350 217.600,36.800 217.780,36.800 218.000 C 36.800 218.243,38.592 218.400,41.376 218.400 C 43.996 218.400,46.058 218.229,46.200 218.000 C 46.336 217.780,46.887 217.600,47.424 217.600 C 47.961 217.600,48.400 217.414,48.400 217.188 C 48.400 216.961,49.300 215.903,50.400 214.838 C 51.564 213.709,52.400 212.545,52.400 212.050 C 52.400 211.561,52.655 211.200,53.000 211.200 C 53.493 211.200,53.600 210.487,53.600 207.187 C 53.600 203.990,53.478 203.128,53.000 202.945 C 52.670 202.818,52.400 202.361,52.400 201.929 C 52.400 201.079,51.521 200.000,50.829 200.000 C 50.593 200.000,50.400 199.730,50.400 199.400 C 50.400 199.070,50.130 198.800,49.800 198.800 C 49.470 198.800,49.200 198.607,49.200 198.371 C 49.200 197.662,48.112 196.800,47.216 196.800 C 46.753 196.800,46.271 196.530,46.145 196.200 C 45.959 195.717,45.060 195.600,41.545 195.600 C 38.029 195.600,37.130 195.717,36.945 196.200 M43.474 199.224 C 48.250 201.022,49.594 206.594,46.094 210.094 C 42.584 213.605,36.759 212.123,35.172 207.317 C 33.669 202.760,39.017 197.546,43.474 199.224 M205.400 200.370 C 210.529 201.818,215.212 204.504,219.400 208.400 C 226.620 215.117,236.282 218.004,251.514 217.997 C 261.099 217.993,268.368 216.450,277.037 212.580 C 287.110 208.082,283.719 215.538,270.200 227.614 C 266.292 231.104,259.889 236.000,259.232 236.000 C 259.031 236.000,258.807 236.138,258.733 236.307 C 258.142 237.669,244.625 244.681,237.000 247.582 C 236.560 247.750,235.300 248.233,234.200 248.657 C 230.388 250.126,230.416 250.198,230.397 238.800 C 230.378 227.780,230.269 227.600,223.600 227.600 C 219.243 227.600,219.085 227.673,214.997 231.557 C 206.165 239.949,195.589 239.721,186.916 230.950 L 183.604 227.600 179.408 227.600 C 175.338 227.600,175.173 227.635,173.906 228.767 L 172.600 229.933 172.480 238.667 C 172.344 248.517,172.029 250.000,170.078 250.000 C 168.678 250.000,160.706 247.289,156.600 245.416 C 155.940 245.115,154.375 244.403,153.123 243.833 C 151.870 243.264,150.735 242.618,150.599 242.399 C 150.464 242.179,150.107 242.000,149.807 242.000 C 149.078 242.000,140.163 236.465,136.400 233.676 C 126.674 226.467,114.267 213.518,110.961 207.124 C 109.973 205.213,111.191 205.321,115.082 207.488 C 128.396 214.905,143.972 218.293,155.954 216.377 C 158.443 215.979,164.276 214.900,165.600 214.592 C 168.581 213.899,172.673 211.491,176.188 208.360 C 185.141 200.387,195.460 197.565,205.400 200.370 M48.400 237.800 C 48.400 238.173,48.022 238.400,47.400 238.400 C 46.850 238.400,46.400 238.580,46.400 238.800 C 46.400 239.020,45.860 239.200,45.200 239.200 C 44.400 239.200,44.000 239.400,44.000 239.800 C 44.000 240.140,43.641 240.400,43.171 240.400 C 42.286 240.400,41.200 241.266,41.200 241.971 C 41.200 242.207,40.930 242.400,40.600 242.400 C 40.270 242.400,40.000 242.670,40.000 243.000 C 40.000 243.330,39.807 243.600,39.571 243.600 C 39.018 243.600,38.000 244.618,38.000 245.171 C 38.000 245.407,37.807 245.600,37.571 245.600 C 36.808 245.600,36.000 246.717,36.000 247.771 C 36.000 248.419,35.778 248.800,35.400 248.800 C 35.027 248.800,34.800 249.178,34.800 249.800 C 34.800 250.422,34.573 250.800,34.200 250.800 C 33.827 250.800,33.600 251.178,33.600 251.800 C 33.600 252.350,33.420 252.800,33.200 252.800 C 32.948 252.800,32.800 255.467,32.800 260.000 C 32.800 264.533,32.948 267.200,33.200 267.200 C 33.420 267.200,33.600 267.650,33.600 268.200 C 33.600 268.822,33.827 269.200,34.200 269.200 C 34.600 269.200,34.800 269.600,34.800 270.400 C 34.800 271.200,35.000 271.600,35.400 271.600 C 35.740 271.600,36.000 271.959,36.000 272.429 C 36.000 273.314,36.866 274.400,37.571 274.400 C 37.807 274.400,38.000 274.594,38.000 274.831 C 38.000 275.391,40.209 277.600,40.769 277.600 C 41.006 277.600,41.200 277.793,41.200 278.029 C 41.200 278.734,42.286 279.600,43.171 279.600 C 43.641 279.600,44.000 279.860,44.000 280.200 C 44.000 280.600,44.400 280.800,45.200 280.800 C 46.000 280.800,46.400 281.000,46.400 281.400 C 46.400 281.773,46.778 282.000,47.400 282.000 C 47.950 282.000,48.400 282.180,48.400 282.400 C 48.400 282.652,51.067 282.800,55.600 282.800 C 60.133 282.800,62.800 282.652,62.800 282.400 C 62.800 282.180,63.250 282.000,63.800 282.000 C 64.422 282.000,64.800 281.773,64.800 281.400 C 64.800 281.025,65.179 280.800,65.813 280.800 C 66.369 280.800,66.929 280.530,67.055 280.200 C 67.182 279.870,67.639 279.600,68.071 279.600 C 68.921 279.600,70.000 278.721,70.000 278.029 C 70.000 277.793,70.194 277.600,70.431 277.600 C 70.991 277.600,73.200 275.391,73.200 274.831 C 73.200 274.594,73.393 274.400,73.629 274.400 C 74.334 274.400,75.200 273.314,75.200 272.429 C 75.200 271.959,75.460 271.600,75.800 271.600 C 76.200 271.600,76.400 271.200,76.400 270.400 C 76.400 269.740,76.577 269.200,76.792 269.200 C 77.008 269.200,77.298 268.750,77.436 268.200 C 77.574 267.650,77.847 267.200,78.043 267.200 C 78.240 267.200,78.400 263.960,78.400 260.000 C 78.400 256.040,78.240 252.800,78.043 252.800 C 77.847 252.800,77.574 252.350,77.436 251.800 C 77.298 251.250,77.008 250.800,76.792 250.800 C 76.577 250.800,76.400 250.350,76.400 249.800 C 76.400 249.178,76.173 248.800,75.800 248.800 C 75.422 248.800,75.200 248.419,75.200 247.771 C 75.200 246.717,74.392 245.600,73.629 245.600 C 73.393 245.600,73.200 245.407,73.200 245.171 C 73.200 244.618,72.182 243.600,71.629 243.600 C 71.393 243.600,71.200 243.330,71.200 243.000 C 71.200 242.670,70.930 242.400,70.600 242.400 C 70.270 242.400,70.000 242.207,70.000 241.971 C 70.000 241.279,68.921 240.400,68.071 240.400 C 67.639 240.400,67.182 240.130,67.055 239.800 C 66.929 239.470,66.369 239.200,65.813 239.200 C 65.256 239.200,64.800 239.020,64.800 238.800 C 64.800 238.580,64.350 238.400,63.800 238.400 C 63.178 238.400,62.800 238.173,62.800 237.800 C 62.800 237.289,61.733 237.200,55.600 237.200 C 49.467 237.200,48.400 237.289,48.400 237.800 M186.705 241.167 C 195.591 247.231,207.251 247.146,216.641 240.947 C 218.674 239.606,220.768 239.211,221.934 239.951 C 222.984 240.616,222.406 249.962,221.207 251.710 C 218.942 255.011,219.010 255.000,201.371 255.000 L 185.742 255.000 184.120 253.927 C 181.339 252.087,180.631 250.466,180.462 245.553 C 180.234 238.965,181.833 237.842,186.705 241.167 M300.223 243.020 C 299.847 243.595,299.507 244.663,299.469 245.392 C 299.431 246.122,299.265 246.637,299.100 246.536 C 298.935 246.435,298.800 246.903,298.800 247.576 C 298.800 248.249,298.634 248.800,298.432 248.800 C 298.229 248.800,297.945 249.338,297.801 249.995 C 297.657 250.653,297.372 251.294,297.169 251.419 C 296.966 251.545,296.800 251.937,296.800 252.292 C 296.800 252.647,296.520 253.246,296.179 253.624 C 295.837 254.001,295.529 254.678,295.495 255.128 C 295.462 255.577,295.303 255.864,295.144 255.765 C 294.984 255.667,294.533 256.129,294.141 256.793 C 293.748 257.457,293.286 258.000,293.114 258.000 C 292.941 258.000,292.800 258.191,292.800 258.424 C 292.800 258.657,293.025 258.718,293.300 258.559 C 293.590 258.392,293.660 258.424,293.467 258.636 C 293.283 258.836,293.058 258.955,292.967 258.900 C 292.875 258.845,292.485 259.081,292.100 259.424 C 288.893 262.284,287.734 263.200,287.320 263.200 C 287.056 263.200,286.696 263.425,286.520 263.700 C 286.107 264.345,284.576 265.200,283.834 265.200 C 283.517 265.200,283.016 265.441,282.722 265.736 C 282.427 266.030,281.739 266.372,281.193 266.495 C 280.647 266.618,279.660 266.910,279.000 267.144 C 278.340 267.377,276.679 267.779,275.309 268.037 C 273.939 268.295,272.915 268.662,273.033 268.853 C 273.151 269.044,271.447 269.200,269.247 269.200 C 266.948 269.200,265.140 269.026,264.994 268.790 C 264.855 268.565,264.889 268.406,265.070 268.437 C 265.912 268.584,266.400 268.349,266.400 267.800 C 266.400 267.427,266.778 267.200,267.400 267.200 C 267.950 267.200,268.400 267.020,268.400 266.800 C 268.400 266.580,268.766 266.400,269.213 266.400 C 269.659 266.400,270.129 266.130,270.255 265.800 C 270.382 265.470,270.717 265.200,271.000 265.200 C 271.283 265.200,271.618 264.930,271.745 264.600 C 271.871 264.270,272.341 264.000,272.787 264.000 C 273.234 264.000,273.600 263.820,273.600 263.600 C 273.600 263.380,273.951 263.200,274.380 263.200 C 274.809 263.200,275.304 262.973,275.480 262.696 C 275.656 262.419,276.475 261.838,277.300 261.405 C 278.125 260.972,278.800 260.479,278.800 260.309 C 278.800 260.139,278.992 260.000,279.227 260.000 C 279.680 260.000,281.908 258.397,283.538 256.900 C 284.076 256.405,284.655 256.000,284.825 256.000 C 284.994 256.000,285.905 255.280,286.849 254.400 C 287.792 253.520,288.708 252.800,288.882 252.800 C 289.057 252.800,289.200 252.530,289.200 252.200 C 289.200 251.870,289.466 251.600,289.791 251.600 C 290.116 251.600,290.676 251.150,291.037 250.600 C 291.397 250.050,291.923 249.600,292.206 249.600 C 292.488 249.600,294.270 248.070,296.165 246.200 C 298.061 244.330,299.384 242.797,299.106 242.794 C 298.828 242.791,299.050 242.551,299.600 242.261 C 300.910 241.571,301.057 241.749,300.223 243.020 M60.400 244.117 C 66.723 246.395,71.427 253.739,70.572 260.000 C 68.365 276.174,46.756 278.537,41.302 263.201 C 37.279 251.890,49.123 240.055,60.400 244.117 M356.800 302.200 C 356.800 302.573,356.422 302.800,355.800 302.800 C 355.250 302.800,354.800 302.980,354.800 303.200 C 354.800 303.420,354.530 303.600,354.200 303.600 C 353.870 303.600,353.600 303.793,353.600 304.029 C 353.600 304.264,353.343 304.714,353.029 305.029 C 352.714 305.343,352.264 305.600,352.029 305.600 C 351.793 305.600,351.600 305.870,351.600 306.200 C 351.600 306.530,351.420 306.800,351.200 306.800 C 350.980 306.800,350.800 307.250,350.800 307.800 C 350.800 308.422,350.573 308.800,350.200 308.800 C 349.705 308.800,349.600 309.533,349.600 313.000 C 349.600 316.467,349.705 317.200,350.200 317.200 C 350.573 317.200,350.800 317.578,350.800 318.200 C 350.800 318.750,350.980 319.200,351.200 319.200 C 351.420 319.200,351.600 319.470,351.600 319.800 C 351.600 320.130,351.793 320.400,352.029 320.400 C 352.582 320.400,353.600 321.418,353.600 321.971 C 353.600 322.207,353.870 322.400,354.200 322.400 C 354.530 322.400,354.800 322.580,354.800 322.800 C 354.800 323.020,355.250 323.200,355.800 323.200 C 356.422 323.200,356.800 323.427,356.800 323.800 C 356.800 324.295,357.533 324.400,361.000 324.400 C 364.467 324.400,365.200 324.295,365.200 323.800 C 365.200 323.427,365.578 323.200,366.200 323.200 C 366.750 323.200,367.200 323.020,367.200 322.800 C 367.200 322.580,367.470 322.400,367.800 322.400 C 368.130 322.400,368.400 322.207,368.400 321.971 C 368.400 321.418,369.418 320.400,369.971 320.400 C 370.207 320.400,370.400 320.130,370.400 319.800 C 370.400 319.470,370.670 319.200,371.000 319.200 C 371.373 319.200,371.600 318.822,371.600 318.200 C 371.600 317.650,371.780 317.200,372.000 317.200 C 372.241 317.200,372.400 315.533,372.400 313.000 C 372.400 310.467,372.241 308.800,372.000 308.800 C 371.780 308.800,371.600 308.350,371.600 307.800 C 371.600 307.178,371.373 306.800,371.000 306.800 C 370.670 306.800,370.400 306.530,370.400 306.200 C 370.400 305.870,370.207 305.600,369.971 305.600 C 369.418 305.600,368.400 304.582,368.400 304.029 C 368.400 303.793,368.130 303.600,367.800 303.600 C 367.470 303.600,367.200 303.420,367.200 303.200 C 367.200 302.980,366.750 302.800,366.200 302.800 C 365.578 302.800,365.200 302.573,365.200 302.200 C 365.200 301.705,364.467 301.600,361.000 301.600 C 357.533 301.600,356.800 301.705,356.800 302.200 M365.047 306.434 C 368.612 309.860,368.523 313.189,364.776 316.574 C 360.120 320.781,352.501 315.013,354.967 309.149 C 356.778 304.843,361.944 303.451,365.047 306.434 M188.299 307.029 C 200.296 307.119,207.482 307.323,207.973 307.586 C 208.438 307.834,212.238 308.004,217.474 308.010 C 222.273 308.015,226.920 308.206,227.800 308.435 C 228.680 308.664,232.100 309.008,235.400 309.199 C 241.908 309.577,246.905 310.170,247.697 310.660 C 248.254 311.004,250.623 311.428,255.400 312.039 C 257.160 312.264,258.771 312.617,258.980 312.824 C 259.189 313.031,260.089 313.206,260.980 313.214 C 261.871 313.222,263.050 313.486,263.600 313.800 C 264.150 314.114,265.007 314.378,265.505 314.386 C 266.003 314.394,266.723 314.558,267.105 314.751 C 268.791 315.604,270.875 316.400,271.419 316.400 C 271.745 316.400,272.323 316.554,272.705 316.741 C 273.087 316.929,274.120 317.399,275.000 317.785 C 275.880 318.172,276.870 318.640,277.200 318.825 C 277.530 319.010,279.484 320.001,281.543 321.027 C 283.602 322.053,286.704 323.772,288.436 324.846 C 290.169 325.921,291.707 326.800,291.855 326.800 C 292.003 326.800,292.714 327.250,293.436 327.800 C 294.157 328.350,294.852 328.800,294.980 328.800 C 295.809 328.800,306.584 336.621,312.200 341.300 C 326.412 353.140,344.537 376.548,352.076 392.800 C 354.209 397.397,355.600 400.477,355.600 400.601 C 355.600 400.680,356.151 401.972,356.825 403.472 C 358.541 407.292,358.614 407.468,359.768 410.608 C 360.336 412.153,360.800 413.692,360.800 414.028 C 360.800 414.365,360.943 414.811,361.118 415.020 C 361.293 415.229,361.766 416.480,362.171 417.800 C 362.575 419.120,363.152 420.767,363.453 421.460 C 363.754 422.154,364.000 423.088,364.000 423.537 C 364.000 423.986,364.160 424.452,364.356 424.573 C 364.551 424.694,364.806 425.379,364.922 426.096 C 365.182 427.710,367.096 435.759,367.617 437.428 C 367.828 438.104,368.000 439.373,368.000 440.248 C 368.000 441.124,368.168 442.011,368.373 442.220 C 368.758 442.612,369.401 446.100,369.990 451.000 C 370.176 452.540,370.531 454.742,370.781 455.894 C 371.030 457.045,371.181 459.385,371.117 461.094 L 371.000 464.200 200.820 464.300 C 89.939 464.366,30.504 464.264,30.248 464.008 C 29.774 463.534,29.867 456.908,30.384 454.400 C 30.753 452.606,31.316 449.376,31.987 445.200 C 32.452 442.301,33.120 438.937,33.574 437.200 C 33.775 436.430,34.239 434.270,34.606 432.400 C 34.972 430.530,35.435 428.687,35.636 428.305 C 35.836 427.923,36.000 427.335,36.000 426.999 C 36.000 426.436,38.010 420.068,38.777 418.200 C 38.958 417.760,39.586 415.870,40.172 414.000 C 41.460 409.893,42.001 408.494,44.583 402.600 C 45.162 401.280,46.023 399.300,46.497 398.200 C 48.226 394.193,53.946 383.293,55.848 380.385 C 56.921 378.743,57.889 377.220,58.000 377.000 C 58.302 376.396,61.343 371.866,61.800 371.338 C 62.020 371.084,63.280 369.382,64.600 367.557 C 76.869 350.588,93.828 335.444,112.000 325.229 C 115.090 323.492,125.518 318.400,125.985 318.400 C 126.199 318.400,127.054 318.105,127.886 317.745 C 128.719 317.384,129.760 316.959,130.200 316.800 C 130.640 316.641,131.681 316.216,132.514 315.855 C 133.346 315.495,134.299 315.200,134.632 315.200 C 134.965 315.200,136.959 314.362,139.065 313.338 C 141.170 312.314,143.637 311.310,144.546 311.107 C 145.456 310.904,147.280 310.514,148.600 310.240 C 150.967 309.748,151.632 309.545,153.600 308.712 C 154.830 308.191,157.043 307.675,160.200 307.173 C 161.520 306.963,162.780 306.709,163.000 306.607 C 163.220 306.506,164.750 306.527,166.400 306.655 C 168.050 306.783,177.905 306.951,188.299 307.029 " stroke="none" fill="#1d4c84" fill-rule="evenodd"></path><path id="path4" d="M314.906 11.075 L 298.813 11.209 298.232 12.105 C 297.462 13.293,297.817 32.797,298.629 33.908 C 299.367 34.917,339.538 35.195,341.054 34.201 L 342.000 33.582 342.000 22.614 C 342.000 14.623,341.872 11.568,341.528 11.356 C 340.916 10.977,334.646 10.911,314.906 11.075 M340.720 12.480 C 341.472 13.232,341.393 31.584,340.632 32.624 C 339.828 33.724,300.924 34.067,299.839 32.982 C 298.826 31.969,298.882 13.025,299.900 12.432 C 300.972 11.808,340.094 11.854,340.720 12.480 M189.600 40.416 C 182.970 41.078,180.149 41.461,179.655 41.766 C 179.380 41.936,178.220 42.227,177.077 42.413 C 173.426 43.008,171.044 43.596,170.636 44.004 C 170.418 44.222,169.757 44.400,169.166 44.400 C 168.575 44.400,167.576 44.669,166.946 44.998 C 166.316 45.326,165.496 45.596,165.124 45.598 C 164.752 45.599,164.336 45.780,164.200 46.000 C 164.064 46.220,163.603 46.400,163.174 46.400 C 162.746 46.400,161.463 46.850,160.323 47.400 C 159.183 47.950,158.101 48.400,157.918 48.400 C 156.017 48.400,136.358 59.611,134.800 61.584 C 134.690 61.723,133.520 62.670,132.200 63.689 C 128.803 66.309,126.322 68.765,126.508 69.323 C 126.841 70.324,127.968 70.067,128.244 68.927 C 129.096 65.405,146.324 53.958,158.488 48.831 C 178.769 40.284,203.013 38.204,223.400 43.263 C 237.550 46.774,248.847 51.789,260.000 59.508 C 265.599 63.383,272.693 69.336,273.217 70.600 C 273.544 71.387,273.550 71.386,273.575 70.569 C 273.649 68.133,259.582 57.548,249.000 52.077 C 245.210 50.118,242.214 48.784,237.600 47.000 C 236.610 46.617,235.440 46.161,235.000 45.986 C 234.560 45.811,233.210 45.368,232.000 45.001 C 230.790 44.634,229.260 44.145,228.600 43.913 C 227.940 43.682,226.724 43.407,225.897 43.304 C 225.071 43.200,224.295 42.955,224.174 42.758 C 224.052 42.561,223.265 42.400,222.425 42.400 C 221.585 42.400,220.251 42.130,219.462 41.800 C 218.672 41.470,216.976 41.200,215.693 41.200 C 214.410 41.200,213.175 41.015,212.949 40.789 C 212.414 40.254,194.145 39.963,189.600 40.416 M313.312 43.608 C 311.990 44.140,311.938 44.775,312.074 58.630 L 312.200 71.400 313.270 73.260 C 313.858 74.283,314.775 75.813,315.307 76.660 C 317.487 80.131,320.487 85.906,323.173 91.800 C 325.348 96.572,325.353 96.581,326.318 96.725 C 328.358 97.029,328.400 96.490,328.400 70.039 C 328.400 44.498,328.361 43.898,326.651 43.439 C 325.294 43.075,314.290 43.214,313.312 43.608 M326.400 44.791 C 327.098 45.233,327.540 94.264,326.857 95.485 C 326.581 95.977,325.719 94.527,323.226 89.381 C 321.428 85.669,318.662 80.464,317.079 77.816 C 315.495 75.167,313.989 72.460,313.730 71.800 C 313.057 70.080,313.011 45.549,313.680 44.880 C 314.267 44.293,325.488 44.215,326.400 44.791 M139.600 68.246 C 137.510 68.567,134.558 69.177,133.040 69.601 C 131.521 70.026,130.147 70.291,129.985 70.191 C 129.823 70.091,129.482 70.261,129.226 70.569 C 128.599 71.325,129.289 71.706,130.470 71.256 C 135.934 69.177,144.657 68.293,157.859 68.480 C 165.379 68.587,166.407 68.681,167.122 69.329 C 168.470 70.550,168.944 72.152,168.424 73.728 C 167.478 76.595,167.583 76.570,155.059 76.867 C 142.024 77.175,138.672 77.508,133.769 78.981 C 119.446 83.282,108.342 91.164,103.029 100.802 C 100.422 105.533,97.860 112.111,96.098 118.600 C 95.859 119.480,95.439 121.010,95.166 122.000 C 94.892 122.990,94.533 124.610,94.369 125.600 C 94.204 126.590,93.756 129.200,93.373 131.400 C 91.263 143.528,92.591 164.520,96.022 173.250 C 104.931 195.923,129.475 210.662,154.000 208.067 C 163.395 207.073,166.523 205.867,171.206 201.433 C 186.580 186.877,209.419 187.540,226.012 203.024 C 236.006 212.351,261.745 212.076,277.800 202.472 C 299.703 189.370,308.696 169.931,306.471 140.493 C 305.814 131.789,305.633 130.558,303.626 121.094 C 303.404 120.046,303.037 118.843,302.811 118.421 C 302.585 117.998,302.400 117.201,302.400 116.650 C 302.400 116.098,302.220 115.536,302.000 115.400 C 301.780 115.264,301.599 114.848,301.598 114.476 C 301.596 114.104,301.326 113.284,300.998 112.654 C 300.669 112.024,300.400 111.264,300.400 110.965 C 300.400 109.749,296.425 101.702,294.589 99.200 C 288.926 91.485,274.638 82.103,264.724 79.591 C 263.996 79.407,262.410 78.957,261.200 78.592 C 256.877 77.288,252.404 77.104,219.000 76.853 C 192.134 76.651,185.213 76.493,184.466 76.068 C 182.259 74.810,182.038 71.176,184.057 69.348 C 184.847 68.633,186.231 68.595,215.388 68.490 C 247.931 68.373,257.389 68.741,262.400 70.316 C 263.170 70.558,264.880 71.050,266.200 71.409 C 267.520 71.767,268.960 72.211,269.400 72.394 C 271.050 73.081,271.690 73.193,272.632 72.956 C 273.164 72.823,273.600 72.570,273.600 72.394 C 273.600 72.219,273.264 72.163,272.854 72.270 C 272.444 72.377,270.779 72.020,269.154 71.477 C 257.759 67.668,256.938 67.606,217.927 67.603 L 184.855 67.600 183.053 69.100 C 180.989 70.818,180.674 72.366,181.901 74.772 C 183.564 78.033,180.572 77.771,219.129 78.035 C 248.949 78.240,253.842 78.358,256.800 78.942 C 270.742 81.695,282.826 88.146,291.738 97.593 C 306.820 113.580,310.493 163.087,297.975 181.655 C 282.938 203.959,257.796 213.718,234.400 206.330 C 230.983 205.251,228.685 203.906,226.000 201.413 C 209.508 186.102,187.074 185.736,170.447 200.507 C 166.430 204.076,164.624 204.960,158.894 206.167 C 136.464 210.890,113.839 200.622,100.354 179.600 C 87.630 159.764,93.089 110.096,109.776 93.864 C 121.043 82.905,133.578 78.508,154.871 78.048 C 167.677 77.771,167.782 77.747,169.299 74.772 C 170.450 72.516,170.222 71.179,168.381 69.381 L 166.763 67.800 155.081 67.731 C 146.536 67.680,142.380 67.819,139.600 68.246 M145.000 88.388 C 102.597 92.161,84.664 146.879,114.334 181.957 C 122.221 191.281,134.661 196.517,149.000 196.549 C 158.632 196.571,160.023 196.217,163.890 192.763 C 183.041 175.655,211.427 175.296,230.651 191.918 C 236.519 196.991,240.929 198.404,250.858 198.393 C 256.984 198.386,257.999 198.233,264.196 196.385 C 275.235 193.093,287.475 181.687,293.584 169.000 C 300.074 155.518,299.902 149.558,293.000 148.815 L 291.000 148.600 291.000 143.200 L 291.000 137.800 293.218 137.600 C 298.896 137.088,300.017 133.599,297.199 125.200 C 291.152 107.171,277.841 94.988,258.000 89.324 L 254.200 88.239 201.200 88.171 C 172.050 88.134,146.760 88.232,145.000 88.388 M255.400 89.973 C 262.487 91.709,268.667 94.063,272.575 96.514 C 285.508 104.625,293.002 114.562,296.972 128.862 C 298.399 134.000,296.705 136.825,292.540 136.254 C 289.634 135.855,289.305 135.507,288.132 131.591 C 287.542 129.620,286.988 128.078,286.901 128.165 C 286.569 128.498,288.510 134.270,289.432 135.691 C 290.347 137.100,290.399 137.509,290.389 143.091 L 290.378 149.000 289.189 150.571 C 288.535 151.435,288.007 152.335,288.016 152.571 C 288.025 152.807,288.299 152.507,288.626 151.905 C 288.953 151.303,289.666 150.718,290.210 150.605 C 290.755 150.492,291.668 150.302,292.240 150.182 C 304.597 147.596,291.450 177.680,275.138 189.317 C 262.221 198.532,241.470 200.176,233.243 192.637 C 232.230 191.708,230.950 190.540,230.400 190.041 C 227.691 187.585,218.634 182.400,217.052 182.400 C 216.781 182.400,216.389 182.245,216.180 182.056 C 215.808 181.719,213.802 181.025,209.800 179.849 C 195.397 175.617,175.415 180.557,164.000 191.172 C 160.362 194.554,157.098 195.546,149.200 195.668 C 144.436 195.742,134.872 193.964,131.605 192.398 C 131.272 192.239,129.920 191.618,128.600 191.020 C 126.464 190.051,122.534 187.784,122.000 187.212 C 121.890 187.094,120.774 186.219,119.521 185.266 C 114.317 181.313,105.928 168.778,104.218 162.400 C 104.070 161.850,103.796 161.040,103.608 160.600 C 101.917 156.638,100.726 146.403,101.048 138.600 C 101.897 118.007,113.656 100.337,131.275 93.181 C 132.444 92.706,133.760 92.171,134.200 91.993 C 135.113 91.622,137.765 90.918,140.400 90.346 C 144.511 89.453,153.834 89.310,202.400 89.395 C 241.031 89.461,253.885 89.602,255.400 89.973 M145.916 99.097 C 147.299 99.175,149.459 99.174,150.716 99.095 C 151.972 99.016,150.840 98.952,148.200 98.953 C 145.560 98.953,144.532 99.018,145.916 99.097 M246.713 99.095 C 247.876 99.176,249.676 99.176,250.713 99.093 C 251.751 99.011,250.800 98.945,248.600 98.946 C 246.400 98.947,245.551 99.014,246.713 99.095 M139.000 100.043 C 129.437 103.082,122.719 108.355,117.010 117.300 C 116.624 117.905,116.400 118.400,116.512 118.400 C 116.625 118.400,117.320 117.455,118.058 116.300 C 123.465 107.838,132.284 101.791,142.600 99.473 C 143.221 99.333,143.176 99.291,142.400 99.286 C 141.850 99.283,140.320 99.623,139.000 100.043 M252.833 99.347 C 252.925 99.428,253.720 99.604,254.600 99.738 C 255.715 99.907,255.958 99.871,255.400 99.619 C 254.632 99.271,252.490 99.044,252.833 99.347 M259.000 100.947 C 269.503 104.455,278.545 111.809,283.461 120.841 C 284.048 121.921,284.601 122.733,284.688 122.646 C 285.005 122.328,281.340 116.648,279.089 113.970 C 273.683 107.536,263.932 101.310,257.600 100.247 C 256.830 100.118,257.460 100.433,259.000 100.947 M192.291 118.431 C 195.649 119.251,197.459 122.448,196.230 125.389 C 195.646 126.788,173.977 148.810,171.747 150.272 C 171.188 150.638,170.072 151.066,169.266 151.223 C 167.852 151.498,167.843 151.510,169.022 151.554 C 171.120 151.633,173.415 149.686,185.060 137.949 C 197.377 125.534,197.828 124.916,196.815 121.847 C 196.215 120.028,194.152 118.415,192.137 118.190 L 190.600 118.018 192.291 118.431 M228.200 118.621 C 226.724 119.378,203.770 142.180,202.974 143.680 C 200.953 147.485,204.430 152.203,208.675 151.416 C 210.755 151.030,234.555 127.512,235.265 125.140 C 236.600 120.684,232.161 116.588,228.200 118.621 M189.200 118.790 C 186.870 120.256,164.357 143.476,164.007 144.773 C 163.315 147.343,165.382 151.212,167.438 151.197 C 167.637 151.196,167.295 150.862,166.678 150.455 C 164.565 149.062,163.758 147.039,164.409 144.769 C 164.816 143.351,186.853 120.770,189.400 119.161 C 190.060 118.744,190.420 118.405,190.200 118.408 C 189.980 118.410,189.530 118.582,189.200 118.790 M232.126 118.850 C 234.590 120.119,235.509 121.994,235.009 124.731 C 234.698 126.436,212.659 149.006,209.916 150.430 C 205.529 152.707,201.040 148.075,203.374 143.680 C 204.162 142.197,226.710 119.833,228.200 119.057 C 229.637 118.308,230.942 118.240,232.126 118.850 M115.632 119.539 C 114.979 120.760,115.114 121.100,115.841 120.063 C 116.193 119.560,116.388 119.054,116.273 118.940 C 116.159 118.825,115.870 119.095,115.632 119.539 M284.818 123.260 C 284.808 123.403,285.248 124.483,285.796 125.660 C 286.344 126.837,286.786 127.530,286.778 127.200 C 286.764 126.604,284.853 122.762,284.818 123.260 M112.446 127.239 C 112.201 127.943,112.012 128.808,112.027 129.160 C 112.041 129.512,112.304 128.997,112.609 128.016 C 113.249 125.962,113.115 125.322,112.446 127.239 M111.217 132.141 C 110.945 133.111,110.809 134.241,110.915 134.652 C 111.055 135.198,111.120 135.119,111.154 134.360 C 111.179 133.788,111.401 132.743,111.646 132.039 C 111.892 131.335,112.007 130.673,111.901 130.568 C 111.796 130.463,111.488 131.171,111.217 132.141 M110.222 139.300 C 109.910 143.532,110.577 151.333,111.440 153.532 C 111.757 154.339,111.916 154.550,111.794 154.000 C 110.918 150.054,110.675 147.422,110.678 141.900 C 110.682 134.632,110.601 134.168,110.222 139.300 M287.267 155.067 C 286.996 156.079,286.845 156.979,286.932 157.065 C 287.019 157.152,287.319 156.403,287.600 155.400 C 287.881 154.397,288.031 153.498,287.935 153.401 C 287.838 153.305,287.537 154.054,287.267 155.067 M112.041 155.854 C 112.018 156.324,112.280 157.314,112.622 158.054 C 113.237 159.385,113.204 159.097,112.411 156.200 C 112.162 155.294,112.072 155.209,112.041 155.854 M285.700 159.900 C 285.213 161.137,284.878 162.211,284.955 162.289 C 285.032 162.366,285.502 161.426,286.000 160.200 C 286.498 158.974,286.833 157.899,286.745 157.811 C 286.657 157.724,286.187 158.663,285.700 159.900 M113.204 159.741 C 113.180 161.716,119.004 171.246,122.627 175.159 C 127.137 180.031,136.885 185.729,140.448 185.576 C 140.752 185.564,139.380 184.976,137.400 184.271 C 127.468 180.735,120.737 174.471,115.407 163.800 C 114.198 161.380,113.207 159.553,113.204 159.741 M284.057 163.657 C 283.775 164.109,283.632 164.566,283.740 164.673 C 283.847 164.781,284.144 164.478,284.400 164.000 C 285.005 162.870,284.724 162.590,284.057 163.657 M280.800 169.296 C 276.057 176.579,268.652 183.254,262.466 185.825 C 261.220 186.343,260.473 186.774,260.808 186.783 C 265.269 186.907,276.983 176.506,282.347 167.656 C 284.556 164.012,283.540 165.089,280.800 169.296 M195.315 169.096 C 196.588 169.176,198.568 169.175,199.715 169.094 C 200.862 169.014,199.820 168.949,197.400 168.950 C 194.980 168.951,194.042 169.016,195.315 169.096 M184.870 170.079 C 183.039 170.516,181.617 170.951,181.711 171.045 C 181.805 171.139,183.124 170.927,184.641 170.574 C 186.159 170.221,188.480 169.791,189.800 169.617 L 192.200 169.301 190.200 169.293 C 189.100 169.289,186.702 169.643,184.870 170.079 M205.200 169.596 C 206.410 169.750,208.210 169.993,209.200 170.137 C 210.868 170.380,210.838 170.356,208.800 169.816 C 207.590 169.496,205.790 169.253,204.800 169.276 L 203.000 169.318 205.200 169.596 M211.800 170.800 C 212.240 170.989,212.960 171.138,213.400 171.132 C 214.043 171.123,214.004 171.057,213.200 170.800 C 211.832 170.362,210.781 170.362,211.800 170.800 M178.600 171.814 C 177.013 172.541,177.780 172.539,179.800 171.812 C 180.680 171.495,181.040 171.242,180.600 171.250 C 180.160 171.258,179.260 171.512,178.600 171.814 M215.600 171.800 C 217.426 172.503,218.145 172.493,216.600 171.786 C 215.940 171.483,215.130 171.242,214.800 171.248 C 214.470 171.255,214.830 171.503,215.600 171.800 M172.119 174.374 C 166.348 177.149,155.102 184.835,155.796 185.530 C 155.884 185.617,157.121 184.699,158.546 183.490 C 163.286 179.469,169.354 175.862,176.400 172.878 C 176.950 172.645,177.130 172.445,176.800 172.433 C 176.470 172.421,174.364 173.295,172.119 174.374 M221.400 173.960 C 227.475 176.552,233.392 180.268,238.326 184.588 C 239.715 185.805,241.155 186.799,241.526 186.798 C 241.953 186.796,241.784 186.578,241.065 186.203 C 240.441 185.877,239.028 184.800,237.925 183.809 C 233.019 179.398,220.855 172.346,218.265 172.412 C 218.009 172.418,219.420 173.115,221.400 173.960 M143.000 186.065 C 145.654 186.417,151.810 186.423,153.752 186.077 C 154.605 185.925,152.085 185.800,148.152 185.800 C 144.068 185.800,141.858 185.914,143.000 186.065 M243.800 187.200 C 244.460 187.368,245.540 187.506,246.200 187.507 C 247.209 187.508,247.145 187.455,245.800 187.177 C 243.774 186.758,242.137 186.777,243.800 187.200 M258.000 187.200 C 257.196 187.457,257.157 187.523,257.800 187.532 C 258.240 187.538,258.960 187.389,259.400 187.200 C 260.419 186.762,259.368 186.762,258.000 187.200 M250.115 187.896 C 251.388 187.976,253.368 187.975,254.515 187.894 C 255.662 187.814,254.620 187.749,252.200 187.750 C 249.780 187.751,248.842 187.816,250.115 187.896 M326.736 193.900 C 326.267 194.945,325.739 196.160,325.563 196.600 C 322.430 204.423,319.871 209.652,315.188 217.800 L 312.200 223.000 311.923 234.000 C 311.645 245.060,311.342 247.644,309.770 252.399 C 308.870 255.122,305.660 261.569,304.791 262.400 C 304.676 262.510,304.239 263.140,303.819 263.800 C 299.088 271.249,287.829 277.993,277.200 279.744 C 268.209 281.225,220.557 281.060,215.600 279.531 C 211.401 278.235,209.516 275.168,209.181 269.086 C 208.862 263.306,209.017 263.437,202.307 263.267 C 192.106 263.008,192.248 262.882,192.984 271.616 C 194.038 284.130,201.118 294.094,210.416 296.149 C 216.127 297.411,275.712 297.810,281.200 296.623 C 304.459 291.593,322.538 273.993,326.833 252.200 C 327.885 246.859,328.060 243.868,328.324 226.665 L 328.600 208.730 329.722 207.765 C 330.340 207.234,331.348 206.800,331.964 206.800 C 332.739 206.800,333.414 206.401,334.157 205.505 C 335.318 204.103,334.937 203.463,333.686 204.714 C 333.266 205.134,332.187 205.596,331.290 205.739 C 330.079 205.933,329.353 206.371,328.473 207.438 L 327.287 208.877 327.087 227.738 C 326.968 238.976,326.717 247.247,326.466 248.200 C 326.234 249.080,325.745 251.150,325.379 252.800 C 320.357 275.436,301.360 292.498,277.256 296.021 C 273.461 296.575,218.263 296.236,213.600 295.630 C 202.708 294.213,194.788 283.655,193.842 269.288 C 193.524 264.474,193.628 264.400,200.724 264.400 C 207.678 264.400,207.451 264.236,207.713 269.435 C 208.009 275.286,209.677 278.200,213.918 280.276 L 216.200 281.393 230.400 281.760 C 247.944 282.213,275.440 281.571,279.800 280.606 C 293.865 277.494,306.107 266.729,310.739 253.400 C 312.638 247.936,312.897 245.851,313.153 233.980 L 313.400 222.560 316.258 217.780 C 319.765 211.913,324.194 203.083,326.178 198.000 C 327.914 193.554,328.475 192.804,329.557 193.480 C 329.967 193.736,330.987 194.074,331.824 194.231 C 332.661 194.388,333.763 194.967,334.273 195.517 C 335.454 196.791,335.469 196.245,334.300 194.527 C 333.790 193.778,333.053 193.203,332.600 193.200 C 332.160 193.197,331.284 192.926,330.654 192.598 C 328.553 191.501,327.684 191.790,326.736 193.900 M40.900 199.076 C 41.285 199.176,41.915 199.176,42.300 199.076 C 42.685 198.975,42.370 198.893,41.600 198.893 C 40.830 198.893,40.515 198.975,40.900 199.076 M37.039 201.161 C 35.948 202.268,35.201 203.356,35.322 203.661 C 35.484 204.068,35.545 204.049,35.568 203.583 C 35.603 202.911,38.631 199.829,39.600 199.480 C 40.123 199.291,40.121 199.259,39.585 199.232 C 39.247 199.214,38.101 200.082,37.039 201.161 M194.200 199.459 C 187.594 200.520,181.747 203.410,176.188 208.360 C 172.673 211.491,168.581 213.899,165.600 214.592 C 164.276 214.900,158.443 215.979,155.954 216.377 C 143.972 218.293,128.396 214.905,115.082 207.488 C 111.191 205.321,109.973 205.213,110.961 207.124 C 114.267 213.518,126.674 226.467,136.400 233.676 C 140.163 236.465,149.078 242.000,149.807 242.000 C 150.107 242.000,150.464 242.179,150.599 242.399 C 150.735 242.618,151.870 243.264,153.123 243.833 C 154.375 244.403,155.940 245.115,156.600 245.416 C 160.706 247.289,168.678 250.000,170.078 250.000 C 172.029 250.000,172.344 248.517,172.480 238.667 L 172.600 229.933 173.906 228.767 C 175.173 227.635,175.338 227.600,179.408 227.600 L 183.604 227.600 186.916 230.950 C 195.589 239.721,206.165 239.949,214.997 231.557 C 219.085 227.673,219.243 227.600,223.600 227.600 C 230.269 227.600,230.378 227.780,230.397 238.800 C 230.416 250.198,230.388 250.126,234.200 248.657 C 235.300 248.233,236.560 247.750,237.000 247.582 C 244.625 244.681,258.142 237.669,258.733 236.307 C 258.807 236.138,259.031 236.000,259.232 236.000 C 259.624 236.000,263.019 233.566,266.233 230.982 C 272.630 225.838,282.803 215.404,282.790 214.000 C 282.787 213.670,282.132 214.210,281.334 215.200 C 270.244 228.967,244.475 246.414,232.800 248.059 L 231.800 248.200 231.600 239.128 C 231.340 227.340,230.760 226.402,223.726 226.401 C 219.444 226.400,218.886 226.653,214.950 230.379 C 205.919 238.927,194.433 238.589,186.981 229.555 C 184.965 227.111,183.298 226.421,179.400 226.419 C 172.209 226.415,171.602 227.384,171.595 238.880 C 171.588 248.687,171.513 249.200,170.083 249.200 C 169.150 249.200,164.130 247.674,162.200 246.803 C 161.760 246.605,159.960 245.863,158.200 245.155 C 141.693 238.515,121.552 222.513,113.352 209.524 C 111.865 207.169,112.271 207.220,118.094 210.123 C 125.572 213.850,130.481 215.392,140.567 217.180 C 143.630 217.724,153.985 217.722,157.033 217.177 C 168.600 215.111,171.493 213.873,177.391 208.466 C 189.504 197.361,206.559 197.647,218.905 209.164 C 228.505 218.120,251.460 221.960,267.000 217.210 C 274.114 215.036,282.218 211.625,280.311 211.609 C 279.712 211.604,278.272 212.025,277.111 212.544 C 268.388 216.447,261.132 217.993,251.514 217.997 C 236.282 218.004,226.620 215.117,219.400 208.400 C 212.332 201.825,202.091 198.191,194.200 199.459 M45.858 201.228 C 46.853 202.347,47.594 203.643,47.768 204.569 C 47.924 205.401,48.142 205.992,48.252 205.881 C 48.828 205.306,47.460 202.431,45.924 200.990 L 44.231 199.400 45.858 201.228 M34.893 205.600 C 34.893 206.370,34.975 206.685,35.076 206.300 C 35.176 205.915,35.176 205.285,35.076 204.900 C 34.975 204.515,34.893 204.830,34.893 205.600 M47.600 207.199 C 47.600 208.333,44.940 211.134,43.453 211.565 C 42.373 211.878,42.332 211.933,43.157 211.964 C 44.373 212.010,48.000 208.485,48.000 207.257 C 48.000 206.786,47.910 206.400,47.800 206.400 C 47.690 206.400,47.600 206.759,47.600 207.199 M35.201 207.557 C 35.199 208.546,38.995 212.003,40.043 211.966 C 40.923 211.934,40.907 211.903,39.848 211.586 C 38.491 211.180,36.989 209.875,35.948 208.200 C 35.538 207.540,35.202 207.251,35.201 207.557 M180.772 240.453 C 178.965 243.829,180.954 251.831,184.120 253.927 L 185.742 255.000 201.371 255.000 C 219.010 255.000,218.942 255.011,221.207 251.710 C 222.406 249.962,222.984 240.616,221.934 239.951 C 220.768 239.211,218.674 239.606,216.641 240.947 C 207.251 247.146,195.591 247.231,186.705 241.167 C 183.962 239.295,181.547 239.005,180.772 240.453 M185.197 241.798 C 194.457 248.595,207.173 248.729,217.254 242.136 C 221.173 239.573,221.421 239.817,221.129 245.941 C 220.765 253.540,220.612 253.600,201.540 253.599 C 182.088 253.599,182.000 253.561,182.000 245.208 C 182.000 239.673,182.123 239.541,185.197 241.798 M52.800 243.561 C 51.991 243.708,53.172 243.818,55.600 243.822 C 58.537 243.827,59.319 243.741,58.200 243.537 C 56.334 243.198,54.753 243.204,52.800 243.561 M49.400 244.627 C 48.740 244.970,48.020 245.435,47.800 245.661 C 47.474 245.995,50.599 244.575,51.167 244.130 C 51.657 243.747,50.435 244.091,49.400 244.627 M63.200 245.673 C 67.097 249.209,67.780 249.752,66.200 248.055 C 65.320 247.110,64.240 246.147,63.800 245.914 C 63.360 245.682,63.090 245.573,63.200 245.673 M44.858 248.176 C 43.726 249.373,42.800 250.483,42.800 250.643 C 42.800 250.803,42.856 250.858,42.924 250.767 C 42.992 250.675,44.008 249.565,45.182 248.300 C 46.356 247.035,47.226 246.000,47.116 246.000 C 47.006 246.000,45.990 246.979,44.858 248.176 M40.514 258.600 C 40.517 259.700,40.595 260.103,40.687 259.495 C 40.779 258.886,40.777 257.986,40.682 257.495 C 40.587 257.003,40.511 257.500,40.514 258.600 M70.493 258.400 C 70.493 259.170,70.575 259.485,70.676 259.100 C 70.776 258.715,70.776 258.085,70.676 257.700 C 70.575 257.315,70.493 257.630,70.493 258.400 M67.658 266.907 C 66.561 268.681,65.427 269.687,62.624 271.372 C 59.741 273.104,60.055 273.285,63.010 271.594 C 65.078 270.411,67.497 268.088,68.381 266.435 C 69.089 265.113,68.549 265.465,67.658 266.907 M44.801 268.926 C 46.090 270.332,49.827 272.805,50.649 272.796 C 50.842 272.794,50.010 272.234,48.800 271.551 C 47.590 270.868,45.880 269.654,45.001 268.855 L 43.401 267.400 44.801 268.926 M55.600 273.200 L 52.200 273.451 55.400 273.497 C 57.160 273.523,58.960 273.389,59.400 273.200 C 59.840 273.011,59.930 272.877,59.600 272.903 C 59.270 272.928,57.470 273.062,55.600 273.200 M358.938 305.082 C 358.684 305.257,359.621 305.400,361.019 305.400 C 363.429 305.400,363.651 305.483,365.281 306.993 L 367.000 308.587 365.329 306.829 C 363.634 305.044,360.312 304.137,358.938 305.082 M356.406 306.994 C 355.663 307.761,355.132 308.450,355.227 308.525 C 355.322 308.600,356.006 307.973,356.746 307.131 C 358.429 305.218,358.212 305.131,356.406 306.994 M163.000 306.607 C 162.780 306.709,161.520 306.963,160.200 307.173 C 157.043 307.675,154.830 308.191,153.600 308.712 C 151.632 309.545,150.967 309.748,148.600 310.240 C 147.280 310.514,145.456 310.904,144.546 311.107 C 143.637 311.310,141.170 312.314,139.065 313.338 C 136.959 314.362,134.965 315.200,134.632 315.200 C 134.299 315.200,133.346 315.495,132.514 315.855 C 131.681 316.216,130.640 316.641,130.200 316.800 C 129.760 316.959,128.719 317.384,127.886 317.745 C 127.054 318.105,126.199 318.400,125.985 318.400 C 125.518 318.400,115.090 323.492,112.000 325.229 C 93.828 335.444,76.869 350.588,64.600 367.557 C 63.280 369.382,62.020 371.084,61.800 371.338 C 61.343 371.866,58.302 376.396,58.000 377.000 C 57.889 377.220,56.921 378.743,55.848 380.385 C 53.946 383.293,48.226 394.193,46.497 398.200 C 46.023 399.300,45.162 401.280,44.583 402.600 C 42.001 408.494,41.460 409.893,40.172 414.000 C 39.586 415.870,38.958 417.760,38.777 418.200 C 38.010 420.068,36.000 426.436,36.000 426.999 C 36.000 427.335,35.836 427.923,35.636 428.305 C 35.435 428.687,34.972 430.530,34.606 432.400 C 34.239 434.270,33.775 436.430,33.574 437.200 C 33.120 438.937,32.452 442.301,31.987 445.200 C 31.316 449.376,30.753 452.606,30.384 454.400 C 29.867 456.908,29.774 463.534,30.248 464.008 C 30.504 464.264,89.939 464.366,200.820 464.300 L 371.000 464.200 371.117 461.094 C 371.181 459.385,371.030 457.045,370.781 455.894 C 370.531 454.742,370.176 452.540,369.990 451.000 C 369.401 446.100,368.758 442.612,368.373 442.220 C 368.168 442.011,368.000 441.124,368.000 440.248 C 368.000 439.373,367.828 438.104,367.617 437.428 C 367.096 435.759,365.182 427.710,364.922 426.096 C 364.806 425.379,364.551 424.694,364.356 424.573 C 364.160 424.452,364.000 423.986,364.000 423.537 C 364.000 423.088,363.754 422.154,363.453 421.460 C 363.152 420.767,362.575 419.120,362.171 417.800 C 361.766 416.480,361.293 415.229,361.118 415.020 C 360.943 414.811,360.800 414.365,360.800 414.028 C 360.800 413.692,360.336 412.153,359.768 410.608 C 358.614 407.468,358.541 407.292,356.825 403.472 C 356.151 401.972,355.600 400.680,355.600 400.601 C 355.600 400.477,354.209 397.397,352.076 392.800 C 344.537 376.548,326.412 353.140,312.200 341.300 C 306.584 336.621,295.809 328.800,294.980 328.800 C 294.852 328.800,294.157 328.350,293.436 327.800 C 292.714 327.250,292.003 326.800,291.855 326.800 C 291.707 326.800,290.169 325.921,288.436 324.846 C 286.704 323.772,283.602 322.053,281.543 321.027 C 279.484 320.001,277.530 319.010,277.200 318.825 C 276.870 318.640,275.880 318.172,275.000 317.785 C 274.120 317.399,273.087 316.929,272.705 316.741 C 272.323 316.554,271.745 316.400,271.419 316.400 C 270.893 316.400,269.663 315.934,266.953 314.705 C 266.486 314.494,265.766 314.387,265.353 314.467 C 264.867 314.561,265.310 314.854,266.600 315.293 C 272.767 317.393,274.668 318.176,279.348 320.545 C 282.179 321.978,284.879 323.487,285.348 323.900 C 285.816 324.312,287.730 325.515,289.600 326.574 C 314.672 340.774,339.070 367.092,351.188 393.008 C 356.332 404.010,356.420 404.213,358.814 410.600 C 362.287 419.867,365.260 429.835,366.755 437.226 C 369.173 449.180,370.077 455.299,370.148 460.200 L 370.200 463.800 200.749 463.900 C 58.386 463.985,31.227 463.914,30.848 463.458 C 30.037 462.481,32.230 445.097,33.984 438.600 C 34.162 437.940,34.535 436.320,34.811 435.000 C 35.765 430.449,39.027 418.872,39.995 416.600 C 40.182 416.160,40.818 414.450,41.407 412.800 C 43.721 406.318,44.605 404.210,48.182 396.636 C 64.264 362.581,89.882 336.246,121.400 321.369 C 125.749 319.316,128.254 318.304,134.734 315.984 C 135.908 315.563,137.820 314.675,138.984 314.009 C 141.218 312.731,145.545 311.200,146.924 311.200 C 147.777 311.200,148.248 311.069,153.200 309.449 C 159.779 307.298,160.670 307.246,184.800 307.610 C 198.579 307.818,209.307 308.167,213.081 308.529 C 216.426 308.850,221.916 309.117,225.281 309.122 L 231.400 309.131 228.800 308.590 C 227.104 308.237,223.166 308.041,217.474 308.025 C 212.269 308.010,208.435 307.833,207.973 307.586 C 207.482 307.323,200.296 307.119,188.299 307.029 C 177.905 306.951,168.050 306.783,166.400 306.655 C 164.750 306.527,163.220 306.506,163.000 306.607 M367.000 311.400 C 367.000 312.788,367.132 313.716,367.294 313.462 C 367.456 313.208,367.588 312.280,367.588 311.400 C 367.588 310.520,367.456 309.592,367.294 309.338 C 367.132 309.084,367.000 310.012,367.000 311.400 M235.800 309.609 C 238.000 309.778,241.150 310.131,242.800 310.392 C 248.250 311.255,248.682 311.289,247.890 310.794 C 246.818 310.123,241.970 309.527,236.600 309.407 L 231.800 309.300 235.800 309.609 M354.501 311.400 C 354.505 312.280,354.587 312.593,354.683 312.095 C 354.779 311.598,354.775 310.878,354.675 310.495 C 354.575 310.113,354.496 310.520,354.501 311.400 M250.000 311.646 C 250.770 311.874,252.480 312.217,253.800 312.407 C 255.120 312.598,257.550 313.028,259.200 313.363 C 260.850 313.699,262.740 314.079,263.400 314.208 L 264.600 314.444 263.600 313.836 C 263.050 313.502,261.871 313.222,260.980 313.214 C 260.089 313.206,259.189 313.031,258.980 312.824 C 258.645 312.493,255.096 311.917,250.200 311.399 L 248.600 311.230 250.000 311.646 M355.200 314.366 C 355.200 314.726,358.354 317.798,358.494 317.574 C 358.553 317.478,357.836 316.656,356.901 315.747 C 355.965 314.838,355.200 314.216,355.200 314.366 M365.091 315.895 C 363.817 317.170,363.257 317.427,361.298 317.637 L 359.000 317.882 361.123 317.941 C 363.125 317.997,363.354 317.897,365.123 316.209 C 366.155 315.224,366.907 314.414,366.793 314.409 C 366.680 314.404,365.914 315.073,365.091 315.895 " stroke="none" fill="#686f88" fill-rule="evenodd"></path></g></svg>